<?xml version="1.0" encoding="UTF-8"?>
<svg id="_圖層_2" data-name="圖層 2" xmlns="http://www.w3.org/2000/svg" viewBox="0 0 292.95 39.38">
  <g id="_圖層_1-2" data-name="圖層 1">
    <g>
      <path d="M9.61,7.43c-.08-.05-.25-.07-.51-.04-.24,.05-.6,.13-1.1,.24-.81,.21-1.51,.44-2.08,.68-.55,.24-1.11,.34-1.69,.32-.45-.03-.68-.2-.71-.52-.03-.53,.05-.99,.24-1.39,.1-.21,.37-.28,.79-.2,.39,.03,.68,0,.87-.08,.21-.05,.47-.16,.79-.32,.34-.18,.92-.4,1.73-.64,.76-.24,1.3-.37,1.61-.4,.13,0,.24-.01,.31-.04,.58-.13,1.04-.08,1.38,.16,.37,.24,.68,.77,.94,1.59,.18,.48,.2,.93,.04,1.35-.26,.71-1,1.71-2.2,2.98-.24,.21-.45,.44-.63,.67,.29,.03,.52,.12,.71,.28,.65,.45,.9,.97,.75,1.55-.11,.82-.92,2.36-2.44,4.61-.26,.4-.35,.61-.28,.64,.08,0,.21-.01,.39-.04,.37-.11,.86-.11,1.49,0,.79,.13,1.35,.49,1.69,1.07,0-.03,.01-.04,.04-.04,.31-.16,.6-.18,.87-.08,.45,.08,.96,.07,1.53-.04,.29-.11,.8-.25,1.53-.44,0-.08,.01-.13,.04-.16,.29-.79,.45-2.3,.47-4.53,.05-2.91,.12-4.85,.2-5.8,.05-1.01,.07-1.76,.04-2.26-.08-.53-.21-.91-.39-1.15-.24-.24-.35-.57-.35-.99-.03-.37,.13-.68,.47-.91,.26-.19,.51-.19,.75,0,.13,.13,.25,.25,.35,.36h.75c.5-.05,1.58-.41,3.26-1.07,2.12-.85,3.62-1.32,4.48-1.43,.45-.08,.71-.03,.79,.16,.16,.29,.33,.56,.51,.79,.24,.34,.2,.65-.12,.91-.71,.74-1.38,1.33-2,1.75-.52,.4-.94,.68-1.26,.83-.63,.29-.93,.19-.9-.32,0-.24,.2-.52,.59-.83,.39-.32,.58-.53,.55-.64-.03-.05-.16-.07-.39-.04-1.13,.34-2.25,.73-3.38,1.15-.79,.32-1.43,.53-1.93,.64,.05,.5,.08,1.05,.08,1.63-.1,1.3-.17,3.67-.2,7.11-.05,1.7-.13,3.02-.24,3.97,.37-.18,.79-.37,1.26-.56,3.64-1.59,6.22-2.6,7.74-3.02,1.57-.45,2.92-.62,4.05-.52,.6,.05,.94,.21,1.02,.48,.13,.32,.08,.57-.16,.75-.29,.24-.45,.56-.47,.95,0,.42-.12,.65-.35,.68-.21,.03-.45-.01-.71-.12-.31-.13-.68-.2-1.1-.2-.52-.03-1.34,.12-2.44,.44-1.39,.42-3.77,1.32-7.16,2.7-1.42,.53-2.49,.97-3.22,1.31,.18,.11,.39,.28,.63,.52,.42,.48,.54,.93,.35,1.35-.47,1.01-.88,2.48-1.22,4.41-.26,1.56-.38,3.79-.35,6.68,0,.82,.13,1.23,.39,1.23,.39,.03,.8-.09,1.22-.36,.68-.5,1.43-1.09,2.24-1.75,1.75-1.48,3.14-2.75,4.17-3.81,.55-.58,1-1.11,1.34-1.59-1.89-.56-3.87-.89-5.94-.99-.31-.08-.42-.37-.31-.87,.03-.26,.17-.44,.43-.52,.16-.19,.33-.33,.51-.44,1.86-1.17,3.35-2.23,4.48-3.18,1.26-1.06,2.28-2.12,3.07-3.18,.24-.32,.48-.42,.75-.32,.29,.13,.59,.49,.9,1.07,.18,.4,.1,.75-.24,1.07-1.6,1.62-3.67,3.3-6.21,5.05,1.31,.16,2.59,.41,3.85,.75h.04c.05,0,.09,.01,.12,.04h.04c1.62,.45,3.2,1.05,4.72,1.79,1.15,.61,1.81,1.01,1.97,1.19,.21,.27,.37,.44,.47,.52,.68,.48,.98,1.13,.9,1.95-.08,.61-.41,.87-.98,.79-.31-.05-.6-.07-.86-.04-.63,0-1.08-.05-1.34-.16-.21-.11-.37-.33-.47-.67-.1-.34-.07-.56,.12-.64,.31-.13,.52-.21,.63-.24,.18-.05-.64-.53-2.48-1.43-.92-.48-1.81-.85-2.67-1.11-.29,.53-.71,1.15-1.26,1.87-1.78,2.28-3.43,4.07-4.95,5.37-1.05,.9-1.89,1.55-2.52,1.95-.58,.37-1,.5-1.26,.4-.5-.19-.96-.26-1.38-.24-.55,.08-.96-.17-1.22-.75-.26-.42-.41-1.17-.43-2.23-.08-1.67,.01-3.78,.28-6.32,.29-2.62,.76-4.81,1.42-6.56,0-.11,.01-.17,.04-.2-.52,.13-.84,.21-.94,.24-.47,.08-1.08,.13-1.81,.16-.13,0-.24-.01-.31-.04,.05,1.3-.12,2.82-.51,4.57-.55,2.23-1.53,4.65-2.95,7.27-.29,.56-1.06,.82-2.32,.79-1.31-.05-2.41-.57-3.3-1.55-.89-1.03-1.43-2.15-1.61-3.34-.13-.85-.08-1.29,.16-1.31,.55-.08,.9,.09,1.06,.52,.73,1.7,1.46,2.8,2.16,3.3,.81,.5,1.39,.68,1.73,.52,.34-.13,.88-1.09,1.61-2.86,.97-2.36,1.55-4.42,1.73-6.2,.18-1.64,.12-2.6-.2-2.86-.13-.05-.6-.03-1.42,.08-1.73,.53-3.81,1.72-6.25,3.58-.71,.5-1.31,.42-1.81-.24-.34-.53-.38-.89-.12-1.07,2.33-1.78,3.98-3.19,4.95-4.25,.97-1.06,1.7-2.08,2.2-3.06,.45-.87,.62-1.39,.51-1.55-.08-.08-.56,.12-1.45,.6-1.34,.74-2.61,1.56-3.81,2.46-.47,.34-1.07,.15-1.81-.6-.39-.42-.2-.85,.59-1.27,1.26-.77,2.41-1.4,3.46-1.91,1.86-1.62,3.38-3.27,4.56-4.97,.34-.56,.42-1.01,.24-1.35Zm11.87-.04c1.65-.74,2.92-1.17,3.81-1.27,.5-.08,.75,.05,.75,.4,.05,.27,.13,.49,.24,.68,.21,.27,.14,.52-.2,.75-.24,.21-.47,.45-.71,.72-.42,.5-1.11,1.21-2.08,2.11-1.08,.98-1.6,1.51-1.57,1.59,.05,.03,.21-.01,.47-.12,1.31-.56,2.24-.87,2.79-.95,.86-.03,1.45,.13,1.77,.48,.29,.4,.14,.85-.43,1.35-.42,.37-.76,.61-1.02,.71-1.89,.95-2.99,1.31-3.3,1.07-.31-.24-.12-.61,.59-1.11,.03-.08-.55,.08-1.73,.48-.45,.16-.72,.24-.83,.24-.55,.11-.92,.03-1.1-.24-.29-.4-.35-.68-.2-.83,.26-.26,.49-.48,.67-.64,.18-.13,.96-.89,2.32-2.27,.81-.82,1.21-1.28,1.18-1.39-.05-.05-.43,.05-1.14,.32-.66,.26-1.04,.41-1.14,.44-.11,.03-.2,.05-.28,.08-.66,.24-1.1-.01-1.34-.75-.18-.64-.08-.97,.31-.99,.31-.05,1.04-.33,2.16-.83Z" fill="#fff"/>
      <path d="M59.29,3.14c-.11-.34,.21-.71,.94-1.11,.6-.32,1-.26,1.18,.16,.24,.58,.18,1.35-.16,2.3-.31,.77-.67,1.56-1.06,2.38,.76,.03,1.55,.13,2.36,.32,1.23,.29,2.21,.68,2.95,1.15,.84,.79,1.01,1.64,.51,2.54-.6,.66-1.35,1.13-2.24,1.39-.55,.13-.96,.03-1.22-.32-.31-.37-.3-.64,.04-.79,.65-.29,1.15-.69,1.49-1.19-.03-.16-.17-.29-.43-.4-.68-.26-1.43-.45-2.24-.56-.68-.08-1.27-.11-1.77-.08-.21,0-.41,.08-.59,.24-.05,0-.07,0-.04,0-.52,.93-1.08,1.84-1.65,2.74-1.23,1.75-2.33,3.23-3.3,4.45,.21,0,.51-.01,.9-.04,.47-.08,1.57-.49,3.3-1.23,2.15-.95,3.66-1.52,4.52-1.71,.45-.08,.72-.04,.83,.12,.16,.32,.33,.57,.51,.76,.24,.32,.22,.64-.04,.95-.73,.74-1.39,1.35-1.96,1.83-.47,.42-.87,.71-1.18,.87-.63,.34-.94,.27-.94-.24,0-.26,.2-.56,.59-.87,.34-.32,.51-.53,.51-.64-.03-.11-.17-.12-.43-.04-1.18,.4-2.33,.85-3.46,1.35-1.39,.64-2.45,.97-3.18,.99-.39,0-.71-.24-.94-.72-.05-.08-.08-.13-.08-.16-.45,.48-.84,.89-1.18,1.23-1.62,1.54-2.84,2.38-3.66,2.54-1.47,.24-1.89-.49-1.26-2.19,.24-.61,.48-.93,.75-.95,.37-.08,.55,.04,.55,.36,.03,.29,.25,.38,.67,.28,.42-.11,1.19-.73,2.32-1.87,1.15-1.19,2.65-3.27,4.48-6.24,1.78-2.78,2.96-4.86,3.54-6.24,.21-.5,.24-.97,.08-1.39Zm-7.39,31.79c-.55-.24-.87-.52-.94-.83-.08-.26,.04-.64,.35-1.11,.31-.5,.67-.7,1.06-.6,2.02-.9,3.75-1.79,5.19-2.66v-3.18c-.16,.11-.29,.21-.39,.32-.39,.34-1.02,.79-1.89,1.35-.87,.56-1.82,.93-2.87,1.11-.31,.03-.56-.13-.75-.48-.31-.5-.35-.87-.12-1.11,.21-.24,.43-.37,.67-.4,.5-.11,1.23-.41,2.2-.91,1.34-.72,2.33-1.32,2.99-1.83,.08-.11,.16-.17,.24-.2,.03-.37,.05-.71,.08-1.03-1.91,.82-3.2,1.27-3.85,1.35-.68,.05-1.22,0-1.61-.16-.26-.13-.43-.53-.51-1.19-.08-.87,.17-1.26,.75-1.15,.31,.05,.64,.08,.98,.08,.68,0,1.38-.13,2.08-.4,.89-.34,1.68-.64,2.36-.87,.1-1.11,.25-2.08,.43-2.9,.1-.53,.31-.81,.63-.83,.39-.03,.68,.12,.86,.44s.24,.73,.16,1.23c-.08,.37-.13,.79-.16,1.27,1.13-.66,1.74-1.01,1.85-1.03,.13-.08,.18-.25,.16-.52-.13-.32-.11-.57,.08-.75,.16-.16,.37-.16,.63,0,.86,.4,1.42,.61,1.65,.64,.45,.19,.5,.56,.16,1.11-.24,.37-.35,.68-.35,.91-.03,.26-.21,.41-.55,.44-.21,.03-1.39,.48-3.54,1.35-.13,.05-.21,.09-.24,.12-.03,.29-.04,.61-.04,.95,0-.05,.05-.08,.16-.08,.79-.24,1.45-.28,2-.12,1.07,.5,1.74,1.01,2,1.51,.26,.53,.35,.93,.27,1.19-.16,.37-.68,1.07-1.57,2.11-.79,.82-1.74,1.63-2.87,2.42,.76-.4,1.69-.81,2.79-1.23,.5-.24,.98-.64,1.45-1.19,.29-.32,.68-.42,1.18-.32,.55,.11,.71,.41,.47,.91-.34,.64-.8,1.19-1.38,1.67-.79,.53-2.24,1.27-4.36,2.23-2.94,1.33-5.01,2.12-6.21,2.38-.79,.19-1.35,.19-1.69,0Zm7.71-6.72c.73-.61,1.23-1.09,1.49-1.43,.29-.45,.34-.83,.16-1.15-.21-.13-.49-.21-.83-.24-.29,0-.56,.05-.83,.16v2.66Zm8.49-18.84c.03-.16,.05-.29,.08-.4-.18-.42-.24-.73-.16-.91,.13-.45,.29-.73,.47-.83,.16-.08,.29-.08,.39,0,.16,.13,.52,.04,1.1-.28,2.07-1.32,4.02-2.19,5.86-2.58,.79-.08,1.57,.05,2.36,.4,.84,.4,1.27,1.19,1.3,2.38-.16,3.23-.53,6.05-1.1,8.46-.37,1.51-.8,2.62-1.3,3.34-.26,.4-.6,.6-1.02,.6-.18,0-.33-.01-.43-.04-.92,.61-1.9,1.17-2.95,1.67-1.26,.61-2.32,1.01-3.18,1.19-.58,.13-1,.21-1.26,.24-.1,1.11-.2,2.32-.28,3.62-.24,3.74-.22,6.32,.04,7.75,.24,1.27,.48,1.91,.75,1.91,.42-.05,1.27-.53,2.55-1.43,1.23-.85,2.1-1.71,2.59-2.58,.45-.77,.72-1.8,.83-3.1-1.7-.87-3.51-1.56-5.42-2.07-.29-.11-.34-.41-.16-.91,.18-.37,.48-.5,.9-.4,1.02,.21,2,.49,2.95,.83,.86-.34,1.93-.93,3.18-1.75,.71-.45,1.23-.91,1.57-1.39,.42-.77,.54-1.37,.35-1.79-.13-.37,.01-.69,.43-.95,.6-.37,1.03-.38,1.3-.04,.18,.19,.37,.37,.55,.56,.34,.48,.22,1.27-.35,2.38-.34,.66-1.08,1.39-2.2,2.19-1.08,.69-1.89,1.25-2.44,1.67,2.31,1.01,4.44,2.28,6.41,3.81,1.1,.9,1.7,1.48,1.81,1.75,.16,.34,.29,.57,.39,.67,.55,.61,.69,1.31,.43,2.11-.21,.53-.59,.7-1.14,.52-.26-.11-.52-.17-.79-.2-.6-.13-1-.29-1.18-.48-.21-.16-.33-.41-.35-.75,0-.37,.09-.57,.28-.6,.29-.05,.48-.08,.59-.08,.18-.03-.6-.73-2.36-2.11-1.18-.9-2.37-1.68-3.58-2.34,.03,1.56-.24,2.78-.79,3.66-.81,1.25-1.93,2.44-3.34,3.58-1.31,1.06-2.28,1.64-2.91,1.75-1.07,.05-1.89-.75-2.44-2.42-.47-1.67-.62-4.5-.43-8.5,.18-3.6,.55-7.21,1.1-10.81,.55-3.58,.88-6,.98-7.27Zm.59,9.46c.31-.53,.64-1.01,.98-1.43,.76-1.03,1.51-1.96,2.24-2.78,.97-1.06,1.38-1.63,1.22-1.71-.13-.08-.37-.03-.71,.16-.34,.19-.68,.37-1.02,.56-.37,.24-.72,.41-1.06,.52-.29,.11-.51,.16-.67,.16h-.2c-.1,.56-.21,1.15-.31,1.79-.21,.79-.37,1.71-.47,2.74Zm8.41-10.33c.08-.95-.05-1.52-.39-1.71-.58-.13-1.15-.11-1.73,.08-2.12,.77-3.79,1.55-4.99,2.35,.03,.37,.03,.81,0,1.31-.05,.53-.13,1.17-.24,1.91,.42-.19,.96-.45,1.61-.79,1.26-.74,2.25-1.13,2.99-1.15,.37-.05,.68,.01,.94,.2,.21,.16,.26,.72,.16,1.67,0,.48-.55,1.35-1.65,2.62-1.02,1.25-2,2.56-2.95,3.93-.34,.56-.47,.85-.39,.87,.13,.11,.64-.01,1.53-.36,1.05-.4,2.02-.83,2.91-1.31,.13-.11,.29-.2,.47-.28,.03-.05,.05-.09,.08-.12,.6-1.11,1.15-4.19,1.65-9.22Z" fill="#fff"/>
      <path d="M107.35,38.75c-.47-.03-.94,.01-1.42,.12-.29,.08-.42-.05-.39-.4,0-.32-.01-.65-.04-.99-.03-.32,.08-1.67,.31-4.05-.42,.34-.76,.61-1.02,.79-.94,.61-1.86,1.07-2.75,1.39-.39,.19-.84,.49-1.34,.91-.16,.16-.39,.15-.71-.04-.26-.19-.49-.45-.67-.79-.18-.42-.16-.77,.08-1.03,.24-.34,.48-.72,.75-1.11,.34-.64,1.11-1.84,2.32-3.62,1.23-1.83,2.44-3.54,3.62-5.13-.45,.21-.84,.41-1.18,.6-2.31,1.3-3.91,2.04-4.8,2.22-.86,.19-1.49,.19-1.89,0-.37-.18-.6-.57-.71-1.15-.03-.34,.01-.61,.12-.79,.08-.11,.2-.17,.35-.2,.26-.03,.52,.01,.79,.12,.21,.05,.56,0,1.06-.16,.55-.16,1.74-.73,3.58-1.71,1-.58,2.36-1.17,4.09-1.75,.26-1.4,.55-2.66,.87-3.78,.16-.5,.41-.75,.75-.75s.6,.17,.79,.52c.16,.32,.18,.73,.08,1.23-.21,.58-.37,1.27-.47,2.07,.18-.11,.39-.17,.63-.2,1.47-.42,2.53-.58,3.18-.48,.45,.05,.68,.24,.71,.56,.08,.4-.24,.93-.94,1.59-.63,.56-1.08,.74-1.34,.56-.24-.11-.45-.15-.63-.12-.31,.03-1,.24-2.04,.64-.18,1.33-.37,2.82-.55,4.49,1.02-.98,1.93-1.91,2.71-2.78,.26-.4,.56-.48,.9-.24,.29,.21,.3,.56,.04,1.03-.84,1.35-1.7,2.54-2.59,3.58-.52,.5-1,.97-1.42,1.39-.34,3.29-.51,5.46-.51,6.52,.03,.64-.08,.95-.31,.95Zm5.7-29.96c.16-.37,.25-.69,.27-.95-.66,.19-1.22,.37-1.69,.56-2.67,1.17-4.5,1.8-5.46,1.91-.92,.11-1.55,.04-1.89-.2-.37-.21-.56-.61-.59-1.19,0-.34,.05-.6,.16-.75,.1-.11,.24-.16,.39-.16,.24,0,.48,.05,.75,.16,.24,.08,.63,.07,1.18-.04,.6-.11,1.98-.61,4.13-1.51,1.05-.45,2.37-.88,3.97-1.27,.08-.53,.13-.99,.16-1.39,.08-.85,0-1.39-.24-1.63-.16-.24-.18-.61-.08-1.11,.1-.37,.35-.57,.75-.6,.66-.08,1.06,0,1.22,.24,.31,.42,.43,1.25,.35,2.46-.03,.45-.05,.95-.08,1.51,.5-.13,1.02-.25,1.57-.36,1.52-.26,2.59-.32,3.22-.16,.39,.08,.6,.28,.63,.6,.05,.4-.31,.89-1.1,1.47-.63,.5-1.08,.66-1.34,.48-.21-.16-.43-.22-.67-.2-.31,.03-1.11,.17-2.4,.44-.08,1.3-.13,2.74-.16,4.33-.03,.56-.05,1.09-.08,1.59,1.49-.08,3,0,4.52,.24,1.34,.19,2.1,.36,2.28,.52,.26,.21,.47,.33,.63,.36,.79,.37,1.22,.97,1.3,1.79,.03,.61-.25,.93-.83,.95-.37,.03-.68,.05-.94,.08-.68,.13-1.18,.15-1.49,.04-.26-.08-.45-.28-.55-.6-.13-.34-.12-.56,.04-.64,.47-.16,.76-.25,.86-.28,.16-.11-.8-.28-2.87-.52-1.05-.13-2.06-.18-3.03-.16-.03,.79-.05,1.27-.08,1.43-.03,.13-.03,.25,0,.36,0,.08-.01,.29-.04,.64-.18,.66-.51,1.09-.98,1.27-.58,.24-1.02,.11-1.34-.4-.26-.4-.31-.85-.16-1.35,.1-.4,.2-.93,.28-1.59v-.24c-1.44,.11-2.88,.37-4.32,.79-2.02,1.8-3.59,3.02-4.72,3.66-.42,.24-.94,.27-1.57,.08-.37-.08-.6-.28-.71-.6-.08-.32,.2-.67,.83-1.07,1.83-1.09,3.7-2.48,5.58-4.17,2.33-2.09,3.77-3.7,4.32-4.81Zm-6.57,19.04c-1.21,1.46-2.25,2.94-3.14,4.45-.18,.29-.22,.49-.12,.6,.05,.08,.25,0,.59-.24,.81-.64,1.59-1.29,2.32-1.95,.13-1.03,.25-1.99,.35-2.86Zm12.26-2.62c.18-.45,.26-.89,.24-1.31-1.39,.66-2.36,1.05-2.91,1.15-.89,.13-1.53,.08-1.93-.16-.31-.19-.51-.57-.59-1.15-.03-.34,.01-.61,.12-.79,.1-.11,.24-.16,.39-.16,.26-.03,.52,.01,.79,.12,.18,.05,.45,.04,.79-.04,.42-.11,1.34-.49,2.75-1.15,.42-.24,.94-.45,1.57-.64,0-.21,.01-.41,.04-.6v-1.47c-.08-.16-.25-.29-.51-.4-.34-.16-.5-.33-.47-.52,.03-.18,.09-.36,.2-.52,.5-.56,.95-.7,1.36-.44,.38,.26,.69,.53,.92,.79,.15,.21,.23,.57,.23,1.07v1.51c.58-.21,1.19-.4,1.85-.56,1.49-.29,2.55-.38,3.18-.28,.42,.08,.64,.28,.67,.6,.03,.42-.33,.93-1.06,1.51-.63,.5-1.07,.66-1.34,.48-.21-.13-.43-.18-.67-.16-.21,.08-.75,.21-1.61,.4-.45,.11-.8,.21-1.06,.32-.05,1.17-.12,2.36-.2,3.58-.13,1.27-.2,2.56-.2,3.85,2.42-.03,4.81,.29,7.16,.95,1.42,.37,2.21,.68,2.4,.91,.26,.21,.47,.36,.63,.44,.73,.45,1.09,1.09,1.06,1.91-.05,.61-.37,.9-.94,.87-.34-.05-.64-.07-.9-.04-.68,0-1.15-.05-1.42-.16-.24-.11-.39-.33-.47-.68-.1-.4-.07-.61,.12-.64,.45-.08,.72-.12,.83-.12,.16-.11-.86-.44-3.07-.99-1.76-.48-3.54-.73-5.36-.76,0,.03,.01,.05,.04,.08,.05,1.54,.03,2.54-.08,3.02-.03,.32-.03,.68,0,1.07,.03,.32,.03,.52,0,.6-.03,.18-.03,.37,0,.56,.11,.53,.07,.93-.12,1.19-.21,.34-.62,.38-1.21,.12-.81-.34-1.17-.75-1.06-1.23,.24-.98,.31-1.88,.24-2.7-.05-.45-.04-.85,.04-1.19,.05-.29,.09-.79,.12-1.51-1.39,0-2.77,.12-4.13,.36-1.47,1.38-2.63,2.35-3.5,2.9-.42,.21-.94,.26-1.57,.16-.37-.08-.6-.28-.71-.6-.13-.32,.12-.68,.75-1.07,1.65-1.06,3.28-2.38,4.87-3.97,2.07-1.99,3.32-3.5,3.73-4.53Zm-7.19-11.64c.68-.16,1.42-.28,2.2-.36,.08-.72,.13-1.48,.16-2.31-.68,.82-1.47,1.71-2.36,2.66Zm5.5,16.93s-.04,.01-.04,.04c.76-.13,1.53-.2,2.32-.2,.03-.98,.05-1.84,.08-2.58-.68,.85-1.47,1.76-2.36,2.74Z" fill="#fff"/>
      <path d="M174.63,8.43c.55,.11,1.19,.16,1.93,.16,.5,.05,.66,.29,.47,.72-.13,.29-.18,.6-.16,.91,.05,.42-.16,.64-.63,.64-.5,0-1.49,.24-2.99,.71-.08,.82-.13,1.68-.16,2.58,.05,.26,.04,.53-.04,.79-.11,1.25-.16,2.52-.16,3.82,.89-1.01,1.66-1.99,2.32-2.94,.24-.37,.52-.46,.86-.28s.39,.52,.16,.99c-.92,1.75-1.89,3.27-2.91,4.57-.16,.16-.29,.29-.39,.4,.03,.5,.05,1.01,.08,1.51,.1,2.36,.1,3.91,0,4.65-.08,.45-.08,.99,0,1.63,.05,.48,.07,.79,.04,.95-.03,.21-.03,.49,0,.83,.1,.48,.06,.87-.12,1.19-.21,.32-.6,.36-1.18,.12-.81-.32-1.17-.71-1.06-1.19,.21-.98,.26-1.88,.16-2.7-.08-.71-.07-1.39,.04-2.03,.08-.56,.1-1.56,.08-3.02-1.13,1.06-1.98,1.8-2.55,2.23-.92,.66-1.86,1.17-2.83,1.51-.39,.19-.84,.52-1.34,.99-.16,.19-.41,.19-.75,0-.29-.18-.52-.45-.71-.79-.18-.4-.18-.77,0-1.11,.24-.37,.48-.77,.75-1.19,.37-.71,1.22-2.11,2.56-4.17,1.73-2.62,3.39-5.06,4.99-7.31,.05-.08,.09-.13,.12-.16,.05-.42,.09-.83,.12-1.23-1.13,.37-1.9,.65-2.32,.83-1.47,.61-2.57,.93-3.3,.95-.63,.05-1.14,.03-1.53-.08-.45-.13-.38-.69,.2-1.67,.24-.37,.51-.52,.83-.44,.34,.03,.75,.03,1.22,0,.65-.11,1.43-.36,2.32-.75,.55-.26,1.45-.61,2.71-1.03,.08-1.59,.12-3.27,.12-5.05-.03-1.56-.05-2.4-.08-2.5-.11-.13-.29-.25-.55-.36-.34-.16-.5-.33-.47-.52,.03-.24,.09-.41,.2-.52,.47-.58,.92-.74,1.34-.48,.45,.26,.76,.53,.94,.79,.26,.34,.41,.89,.43,1.63,.03,1.72,.03,3.51,0,5.37,.34-.08,.76-.07,1.26,.04Zm-3.7,9.26c-1.52,1.99-2.87,3.97-4.05,5.96-.18,.37-.22,.61-.12,.72,.08,.08,.29,0,.63-.24,1.23-.95,2.41-2.03,3.54-3.22-.03-1.17-.03-2.24,0-3.22Zm11.01,8.27c-.92,1.06-1.98,1.67-3.18,1.83-1.02,.16-1.59-.01-1.69-.52-.05-.37,.28-.61,.98-.71,.94-.21,1.81-.83,2.59-1.87,.87-1.11,1.47-2.56,1.81-4.33,.1-.72,.2-1.44,.28-2.19-.45,.56-.9,1.09-1.38,1.59-1.08,1.03-2.04,1.71-2.91,2.03-.45,.13-.76,.28-.94,.44-.6,.5-1.18,.72-1.73,.64-.34-.11-.46-.57-.35-1.39,.08-.48,.37-1.4,.86-2.78,.66-1.85,1.1-3.34,1.34-4.45,.18-.98,.26-1.76,.24-2.34-.05-.32-.13-.64-.24-.95-.18-.42-.07-.77,.35-1.03,.26-.21,.56-.28,.9-.2,.66-.4,1.3-.81,1.93-1.23,.65-.48,1.23-1.09,1.73-1.83,.24-.34,.34-.56,.31-.64-.03-.16-.45-.4-1.26-.71-.42-.11-.55-.37-.39-.79,.16-.4,.47-.64,.94-.72,.39-.03,.76-.08,1.1-.16,.84-.13,1.7,.21,2.59,1.03,.6,.64,.1,1.68-1.49,3.14-.97,.98-1.9,1.72-2.79,2.23-.58,.29-1.18,.53-1.81,.72,.13,.61,.18,1.35,.16,2.23-.11,.87-.64,2.72-1.61,5.52-.13,.37-.14,.6-.04,.68,.08,.08,.24,.07,.47-.04,.97-.5,1.81-1.07,2.52-1.71,.63-.61,1.15-1.24,1.57-1.91-.05-.61-.09-1.23-.12-1.87-.11-.98-.21-1.68-.31-2.11-.26-.82-.12-1.23,.43-1.23,.21,0,.47-.01,.79-.04,.73-.03,1.11,.45,1.14,1.43,.24,4.11,.1,7.17-.39,9.18-.63,2.25-1.43,3.95-2.4,5.09Zm11.12-2.23c-1.1-.5-1.98-1.29-2.63-2.34-.03,.87-.05,1.76-.08,2.66-.13,2.38-.12,4.78,.04,7.19,.13,1.96,.14,3.23,.04,3.81-.08,.42-.08,.89,0,1.39,.05,.4,.06,.65,.04,.76,0,.18,.01,.41,.04,.68,.1,.5,.08,.91-.08,1.23-.21,.32-.6,.36-1.18,.12-.84-.32-1.21-.71-1.1-1.19,.18-.98,.22-1.88,.12-2.7-.08-.58-.07-1.13,.04-1.63,.08-.53,.08-1.72,0-3.58-.11-2.15-.07-4.07,.12-5.76,.21-2.25,.3-4.9,.27-7.95-.03-1.27-.05-1.95-.08-2.03-.13-.11-.25-.2-.35-.28-.76,.32-1.38,.48-1.85,.48-.55,0-.88-.41-.98-1.23-.03-.5,.13-.77,.47-.79,.55-.05,1.38-.32,2.48-.79,1.62-.88,3.11-1.52,4.44-1.95,2.23-.72,3.55-.98,3.97-.79,.92,.34,1.55,1.21,1.89,2.58,.45,1.4,.43,3.26-.04,5.56-.42,2.07-1.31,4.03-2.67,5.88-.73,.64-1.7,.86-2.91,.68Zm3.85-11.25c-.16-.64-.49-1.05-.98-1.23-.31-.16-.98-.08-2,.24-1.28,.4-2.61,.97-3.97,1.71,.05,.05,.09,.09,.12,.12,.21,.24,.33,.69,.35,1.35,.03,1.33,.05,2.72,.08,4.17,1.73,1.93,3.04,2.94,3.93,3.02,.71-.34,1.42-1.71,2.12-4.09,.63-2.3,.75-4.07,.35-5.29Z" fill="#fff"/>
      <path d="M227.03,28.3c-.31,.27-.76,.38-1.34,.36-.42-.03-.62-.28-.59-.75,0-.48,.13-.81,.39-.99,.26-.18,.41-.44,.43-.75,.16-2.04,.25-4.98,.28-8.82,.05-3.63,.08-6.69,.08-9.18,0-1.33-.25-2.03-.75-2.11-.39-.13-1.1-.03-2.12,.32-1.26,.4-2.41,.87-3.46,1.43,.05,.24,.06,.53,.04,.88-.21,.95-.39,2.16-.55,3.62,1.05-.21,2.52-.61,4.4-1.19,.84-.08,1.35,.56,1.53,1.91,0,.93-1,2.08-2.99,3.46-1.78,1.25-2.66,2.04-2.63,2.38,.08,.11,.45,.07,1.1-.12,.81-.21,1.61-.4,2.4-.56,.89-.13,1.39,.4,1.49,1.59-.03,.66-.75,1.55-2.16,2.66-.37,.29-.68,.3-.94,.04-.31-.29-.3-.64,.04-1.03,.55-.37,.81-.6,.79-.68-.21-.26-.68-.36-1.42-.28-1,.11-1.7,.17-2.12,.2-.05,1.93-.07,3.27-.04,4.01v.36c2.2-1.06,4.06-1.72,5.58-1.99,.5-.11,.76,0,.79,.32,.03,.4-.01,.85-.12,1.35-.18,.77-.84,1.88-1.97,3.34,.34,.11,.64,.21,.9,.32,.87,.4,2.02,1.13,3.46,2.19,1.13,.82,1.74,1.37,1.85,1.63,.18,.45,.22,1.01,.12,1.67-.13,.56-.45,.85-.94,.87-.39,.05-.68-.12-.87-.52-.13-.32-.37-.65-.71-.99-1.13-1.19-2.08-2.04-2.87-2.54-.47-.32-1-.56-1.57-.71-.26-.05-.49-.16-.67-.32-1.02,1.14-2.08,2.23-3.18,3.26-1.44,1.35-2.44,2.12-2.99,2.3-.71,.24-1.27,.34-1.69,.32-.52-.03-.88-.24-1.06-.64-.21-.4-.24-.68-.08-.83,.18-.21,.43-.26,.75-.16,.29,.05,.63-.01,1.02-.2,.6-.29,1.49-.97,2.67-2.03,1.23-1.11,2.76-2.82,4.6-5.13,.31-.4,.38-.64,.2-.71-.1-.05-.37,.01-.79,.2-1.36,.61-2.76,1.29-4.21,2.03-1.26,.66-2.17,1.01-2.75,1.03-.63,.05-1.1-.01-1.42-.2-.6-.34-.75-.64-.43-.87,.31-.26,.52-.57,.63-.91,.05-.24,.31-.34,.79-.32,.55,.05,1.58-.25,3.11-.91-.16-.08-.24-.21-.24-.4-.03-.26-.05-.56-.08-.87-.03-.32,.04-1.8,.2-4.45,.21-3.42,.45-6.13,.71-8.15,.21-1.62,.45-3.03,.71-4.25,.08-.29,.17-.49,.28-.6v-.04c-.03-.79,.12-1.23,.43-1.31,1.89-.77,3.31-1.29,4.28-1.55,.84-.26,1.77-.36,2.79-.28,.71,.08,1.42,.53,2.12,1.35,.37,.48,.47,3.38,.31,8.7-.18,5.99-.39,10.19-.63,12.6-.11,.77-.41,1.33-.9,1.67Zm-7.86-11.76c-.03,.24-.04,.45-.04,.64,.39-.4,.88-.77,1.46-1.11,2.1-1.46,3.14-2.42,3.14-2.9-.11-.16-.52-.08-1.26,.24-.87,.42-1.85,.73-2.95,.91h-.24c-.05,.69-.09,1.43-.12,2.23Zm22.01,22.21c-.79-.08-1.59-.49-2.4-1.23-2.28-2.57-3.87-4.86-4.76-6.88-.21-.5-.14-.81,.2-.91,.31-.11,.67,.08,1.06,.56,1.65,2.28,2.83,3.7,3.54,4.25,.68,.5,1.15,.77,1.42,.79,.24-.05,.41-1.44,.51-4.17,.03-.58-.04-2-.2-4.25-.21-2.83-.3-4.86-.28-6.08v-1.79c-.55,.82-1.22,1.8-2,2.94-1.18,1.56-2.49,2.92-3.93,4.05-1.57,1.22-2.73,1.88-3.46,1.99-.71,.11-1.11-.12-1.22-.68-.08-.37,.13-.57,.63-.6,.55-.13,1.65-.97,3.3-2.5,1.26-1.19,2.44-2.66,3.54-4.41,1.49-2.12,2.36-3.47,2.59-4.05,.1-.42,.14-.81,.12-1.15-.94,.24-1.94,.52-2.99,.83-2.83,.85-4.46,1.29-4.87,1.31-.47,0-1.04-.01-1.69-.04-.63-.05-.96-.49-.98-1.31-.03-.58,.12-.93,.43-1.03s.6-.11,.86,0c.39,.11,.87,.15,1.42,.12,.66-.05,2.21-.48,4.68-1.27,1.31-.45,2.49-.81,3.54-1.07,.05-1.09,.09-2.23,.12-3.42,.1-3.1,.07-4.81-.12-5.13-.24-.24-.52-.3-.86-.2-.79,.27-1.17,.23-1.14-.12,.05-.5,.31-.89,.79-1.15,.66-.45,1.18-.68,1.57-.68,.68,0,1.19,.21,1.53,.64,.39,.56,.58,1.17,.55,1.83-.18,3.13-.29,5.68-.31,7.67,.63-.18,1.19-.32,1.69-.4,1.47-.26,2.71-.3,3.73-.12,.58,.11,.9,.29,.98,.56,.1,.32,.03,.57-.24,.75-.29,.19-.47,.49-.55,.91-.08,.4-.21,.61-.39,.64-.24-.03-.48-.09-.75-.2-.29-.16-.6-.25-.94-.28-.5-.08-1.26-.03-2.28,.16-.37,.05-.79,.16-1.26,.32,0,.56,.01,1.01,.04,1.35,.05,1.72,.04,3.35-.04,4.89-.05,1.43,.01,3.59,.2,6.48,.18,2.54,.14,5.7-.12,9.46-.42,1.77-.84,2.65-1.26,2.62Z" fill="#fff"/>
      <path d="M266.37,2.86c.34,.05,.56,.25,.67,.6,.16,.45,.1,.87-.16,1.27-.21,.32-.39,.64-.55,.95,.97-.24,3.22-.93,6.76-2.07,1.34-.5,2.61-.89,3.81-1.15-.66-.24-1.59-.37-2.79-.4-.39-.03-.58-.41-.55-1.15,0-.64,.21-.94,.63-.91,1.52,.19,2.69,.45,3.5,.79,.66,.29,1.07,.57,1.26,.83,.1,.11,.17,.21,.2,.32,1.91-.45,3.63-.71,5.15-.79,2.41-.11,4.28,.13,5.62,.71,1.42,.64,2.29,1.37,2.63,2.19,.68,1.78,.5,2.9-.55,3.38-.97,.29-2.41,.34-4.32,.16-.66,.08-1.04-.09-1.14-.52-.08-.37,.17-.64,.75-.79,1.99-.4,3-.77,3.03-1.11,.03-.42-.41-.89-1.3-1.39-.86-.48-2.4-.68-4.6-.6-2.86,.05-6.62,.87-11.28,2.46-4.25,1.4-6.85,2.15-7.82,2.23-.26,.66-.41,1.25-.43,1.75-.05,.74,0,1.21,.16,1.39,.24,.37,.28,.69,.12,.95-.13,.24-.25,.48-.35,.72-.13,.21-.37,.28-.71,.2-.37-.08-.68-.33-.94-.75-.39-.58-.42-1.67-.08-3.26,.42-1.77,1.23-3.59,2.44-5.44,.31-.4,.6-.58,.86-.56Zm5.11,14.39c.47-.29,.98-.6,1.53-.91,.31-.24,.52-.49,.63-.76,.13-.24,.29-.34,.47-.32,.18,0,.35,.17,.51,.52,.26,.5,.1,.99-.47,1.47-1.57,1.09-2.87,2.03-3.89,2.82-.34,.29-.64,.49-.9,.6-.6,.4-1.02,.65-1.26,.75-.81,.4-1.47,.61-1.97,.64-.84,.08-1.38-.04-1.61-.36-.18-.26-.12-.69,.2-1.27,.13-.24,.25-.36,.35-.36,.16,0,.35-.01,.59-.04,.37-.03,.92-.17,1.65-.44,.26-.13,.79-.4,1.57-.79,.21-.42,.39-.97,.55-1.63,.08-.56,.13-1.15,.16-1.79-.97,.5-1.69,.85-2.16,1.03-.97,.37-1.62,.57-1.96,.6-.31,.03-.59-.24-.83-.79-.13-.34-.16-.61-.08-.79,.1-.21,.33-.32,.67-.32,.24-.03,.8-.21,1.69-.56,.73-.29,1.62-.71,2.67-1.27-.05-.66-.12-1.36-.2-2.11-.11,.03-.17,.05-.2,.08-.6,.29-1.11,.48-1.53,.56-.34,.11-.59,.16-.75,.16-.39,.03-.6-.25-.63-.83-.05-.48-.03-.79,.08-.95,.13-.16,.37-.25,.71-.28,.16-.03,.47-.12,.94-.28,.52-.13,1.11-.36,1.77-.68,.68-.34,1.35-.61,2-.79,.63-.21,1.07-.33,1.34-.36,.39-.03,.64,.13,.75,.48,.08,.42,.06,.77-.04,1.03-.13,.32-.41,.53-.83,.64-.31,.08-.52,.2-.63,.36-.13,.13-.25,.15-.35,.04-.11-.08-.37-.04-.79,.12,.05,.05,.09,.13,.12,.24,.08,.5,.13,.99,.16,1.47,.58-.32,1.03-.49,1.38-.52,.63-.05,1,.05,1.1,.32,.24,.56,.26,.93,.08,1.11-.29,.37-.68,.61-1.18,.71-.34,.08-.75,.25-1.22,.52,0,1.06-.05,1.99-.16,2.78-.03,.08-.04,.13-.04,.16Zm2.24,13.47c2.33-.98,4.3-1.56,5.9-1.75,.52-.05,.79,.08,.79,.4,0,.4-.08,.85-.24,1.35-.26,.82-1.15,1.99-2.67,3.5-1.18,1.14-2.37,2.16-3.58,3.06-1.36,1.06-2.29,1.64-2.79,1.75-.66,.18-1.15,.24-1.49,.16-.47-.08-.8-.32-.98-.71-.18-.45-.2-.73-.04-.83,.26-.24,.52-.28,.79-.12,.24,.08,.52,.07,.86-.04,.52-.24,1.31-.73,2.36-1.47,1.13-.82,2.53-2.11,4.21-3.85,.26-.29,.34-.48,.24-.56-.08-.05-.33,0-.75,.16-1.31,.48-2.69,1.05-4.13,1.71-1.21,.56-2.1,.85-2.67,.88-.6,0-1.06-.09-1.38-.28-.58-.4-.71-.69-.39-.87,.34-.24,.56-.53,.67-.88,.08-.26,.35-.36,.83-.28,.68,.11,2.17-.33,4.48-1.31Zm-2.98-9.74c.11-.53,.32-.81,.64-.83,.4-.03,.69,.12,.88,.44,.18,.32,.24,.73,.16,1.23-.1,.56-.17,1.29-.2,2.19,.39-.08,1-.28,1.81-.6,1.42-.56,2.57-.85,3.46-.87,.79-.03,1.43,.04,1.93,.2,.34,.11,.42,.56,.24,1.35-.16,.66-.45,.87-.87,.64-.5-.21-.94-.32-1.34-.32-.55,.03-1.23,.16-2.04,.4-1.18,.32-2.24,.65-3.18,.99-.03,.58-.04,1.11-.04,1.59,.24,0,.88-.21,1.93-.64,1.31-.53,2.41-.81,3.3-.83,.73,0,1.35,.05,1.85,.16,.31,.11,.39,.56,.24,1.35-.16,.66-.45,.87-.87,.64-.47-.21-.9-.3-1.3-.28-.55,.05-1.19,.17-1.93,.36-1.15,.34-2.2,.68-3.15,.99h-.04v.75c.08,.64,0,.97-.23,.99-.49,.03-.94,.12-1.35,.28-.28,.11-.42-.01-.42-.36-.03-.16-.05-.33-.08-.52v-2.46c.05-1.88,.13-3.38,.24-4.49,.13-.9,.25-1.68,.36-2.34Zm10.25-2.98c.76-.11,1.51,.01,2.24,.36,.79,.37,1.19,1.13,1.22,2.26,.21,3.55,.14,6.68-.2,9.38-.24,1.72-.56,2.99-.98,3.82-.18,.42-.51,.65-.98,.68-.5,.05-.73-.08-.71-.4,.05-.26,0-.48-.16-.64-.13-.16-.1-.4,.08-.71,.52-1.32,.77-4.82,.75-10.49,0-1.09-.21-1.71-.63-1.87-.5-.18-1.06-.22-1.69-.12-2.18,.5-3.91,1.07-5.19,1.71-.76,.32-1.23,.27-1.42-.16-.21-.5-.26-.89-.16-1.15,.16-.37,.33-.61,.51-.71,.13-.08,.24-.07,.31,.04,.16,.11,.51,.07,1.06-.12,2.12-1.09,4.1-1.71,5.94-1.87Zm5.07-10.93c-.1,.34-.33,.61-.67,.79-.52,.26-1.02,.53-1.49,.79-.34,.16-.59,.28-.75,.36,0,.21-.01,.44-.04,.68,.68-.29,1.42-.53,2.2-.72,1.18-.37,2-.57,2.48-.6,.39-.05,.64,.13,.75,.56,.13,.42,.12,.77-.04,1.03-.18,.32-.49,.53-.9,.64-.63,.16-1.04,.37-1.22,.64-.24,.24-.45,.26-.63,.08-.18-.16-.88-.07-2.08,.28-.21,.05-.43,.12-.67,.2-.1,.77-.24,1.6-.39,2.5,.47-.18,.92-.33,1.34-.44,.42-.13,.72-.28,.9-.44-.03-.08-.05-.13-.08-.16-.21-.4,0-.77,.63-1.11,.58-.32,.96-.3,1.14,.04,.68,1.3,1.07,2.36,1.18,3.18,.1,.69,.1,1.17,0,1.43-.16,.42-.35,.69-.59,.79-.52,.16-.92,.19-1.18,.08-.29-.11-.27-.45,.04-1.03,.08-.26,.06-.61-.04-1.03-.08-.18-.13-.33-.16-.44-.24,.11-.6,.24-1.1,.4-1.21,.32-2.49,.77-3.85,1.35-1.52,.61-2.56,.83-3.11,.68-1.1-.21-1.65-.6-1.65-1.15,.08-.58,.33-1.23,.75-1.95,.13-.21,.21-.4,.24-.56-.45,.05-.76,.09-.94,.12-.39-.03-.6-.33-.63-.91,0-.56,.05-.89,.16-.99,.16-.16,.41-.25,.75-.28,.31-.03,.92-.16,1.81-.4,.76-.21,1.69-.53,2.79-.95,0-.66-.04-1.27-.12-1.83-.03-.05-.04-.09-.04-.12-1.68,.72-2.63,1.09-2.87,1.11-.66,.11-1.06-.12-1.22-.68-.08-.34-.03-.68,.16-.99,.6-.61,.96-1.05,1.06-1.31,.08-.24,.07-.48-.04-.72-.11-.18,.12-.44,.67-.75,.52-.32,.9-.3,1.14,.04,.13,.21,.18,.48,.16,.79-.05,.26-.21,.61-.47,1.03-.1,.16-.14,.25-.12,.28,.05,.03,.31-.05,.79-.24,2.15-.9,3.67-1.37,4.56-1.39,1.21-.08,1.68,.36,1.42,1.31Zm-5.19,5.56c-.18,.03-.33,.08-.43,.16-.58,.24-1.08,.45-1.49,.64-.08,.29-.21,.61-.39,.95-.39,.56-.6,.95-.63,1.19-.03,.24,.17,.37,.59,.4,.31,.03,.96-.2,1.93-.67,.18-1.03,.33-1.92,.43-2.66Zm-.47,21.7c.79,.16,1.89,.52,3.3,1.07,1.1,.45,1.7,.77,1.81,.95,.31,.42,.48,.97,.51,1.63,.03,.53-.2,.87-.67,1.03-.39,.16-.72,.07-.98-.28-.16-.21-.41-.44-.75-.68-1.05-.74-1.94-1.25-2.67-1.51-.42-.16-.86-.25-1.34-.28-.37,0-.75-.13-1.14-.4-.34-.26-.51-.57-.51-.91,0-.37,.2-.6,.59-.68,.58-.08,1.19-.07,1.85,.04Z" fill="#fff"/>
    </g>
  </g>
</svg>