<?xml version="1.0" encoding="UTF-8"?>
<svg id="_圖層_2" data-name="圖層 2" xmlns="http://www.w3.org/2000/svg" viewBox="0 0 724.96 727.73">
  <g id="_圖層_2-2" data-name="圖層 2">
    <g>
      <g>
        <polygon points="1.5 182.77 1.5 544.96 362.48 726.05 723.45 544.96 723.45 182.77 362.48 1.68 1.5 182.77" fill="none" stroke="#c7b299" stroke-miterlimit="10" stroke-width="3.01"/>
        <polygon points="464.51 193.66 260.44 193.66 158.41 363.86 260.44 534.07 464.51 534.07 566.55 363.86 464.51 193.66" fill="none" stroke="#c7b299" stroke-miterlimit="10" stroke-width="3.01"/>
        <line x1="260.44" y1="193.66" x2="122.24" y2="124.56" fill="none" stroke="#c7b299" stroke-miterlimit="10" stroke-width="3.01"/>
        <line x1="158.41" y1="363.86" x2="3.4" y2="438.37" fill="none" stroke="#c7b299" stroke-miterlimit="10" stroke-width="3.01"/>
        <line x1="260.44" y1="534.07" x2="171.18" y2="631.78" fill="none" stroke="#c7b299" stroke-miterlimit="10" stroke-width="3.01"/>
        <line x1="464.51" y1="534.07" x2="556.45" y2="629.45" fill="none" stroke="#c7b299" stroke-miterlimit="10" stroke-width="3.01"/>
        <line x1="566.55" y1="363.86" x2="722.48" y2="437.78" fill="none" stroke="#c7b299" stroke-miterlimit="10" stroke-width="3.01"/>
        <line x1="464.51" y1="193.66" x2="609.27" y2="126.11" fill="none" stroke="#c7b299" stroke-miterlimit="10" stroke-width="3.01"/>
      </g>
      <g>
        <path d="M241.32,384.64c-.05,.14-.16,.26-.33,.37s-.4,.16-.7,.16c-.6,1.69-1.29,3.29-2.07,4.82-.78,1.52-1.63,2.93-2.55,4.22-.92,1.29-1.89,2.43-2.93,3.42l-.34-.26c.72-1.11,1.44-2.4,2.15-3.88s1.38-3.06,1.99-4.74c.62-1.68,1.13-3.37,1.53-5.08l3.25,.98Zm-2.4,6.52c-.04,.12-.12,.22-.25,.3s-.32,.14-.57,.17v15.7c0,.05-.09,.14-.26,.25-.18,.11-.39,.22-.65,.32-.26,.1-.51,.15-.78,.15h-.4v-16.49l.9-1.16,2.01,.77Zm15.95-4.46c.33,.26,.63,.51,.88,.73,.25,.22,.53,.45,.82,.69,.29,.24,.54,.47,.75,.7-.07,.28-.3,.42-.69,.42h-16.53l-.21-.76h13.62l1.35-1.77Zm-1.5,3.8c.32,.25,.59,.47,.83,.67,.24,.2,.49,.42,.75,.65,.26,.23,.5,.45,.71,.66-.07,.28-.3,.42-.69,.42h-13.15l-.21-.76h10.53l1.21-1.64Zm0,3.67c.3,.25,.57,.47,.81,.66s.49,.41,.75,.65,.51,.46,.74,.67c-.07,.28-.31,.42-.71,.42h-13.04l-.21-.76h10.43l1.24-1.64Zm-9.19,13.19c0,.05-.09,.14-.26,.25s-.4,.21-.67,.3c-.27,.09-.56,.13-.86,.13h-.29v-9.74l2.24,.95h9.48v.76h-9.64v7.34Zm9.69-2.19v.77h-10.64v-.77h10.64Zm-7.81-21.74c1.02,.26,1.83,.58,2.43,.96,.6,.38,1.03,.78,1.31,1.2,.27,.42,.41,.82,.42,1.2s-.08,.69-.26,.94c-.19,.25-.43,.39-.73,.44-.3,.04-.62-.07-.98-.33-.07-.49-.23-1-.49-1.52-.26-.52-.55-1.02-.9-1.49-.34-.48-.7-.88-1.07-1.21l.26-.18Zm6.31,15.83l1.11-1.19,2.35,1.79c-.07,.11-.2,.21-.4,.3s-.42,.16-.69,.2v6.7s-.1,.11-.29,.22c-.19,.11-.43,.21-.7,.29-.27,.08-.53,.12-.78,.12h-.34v-8.44h-.26Z" fill="#fff"/>
        <path d="M270.02,384.67c-.05,.14-.16,.27-.33,.38-.17,.12-.4,.16-.7,.15-.56,1.6-1.21,3.13-1.95,4.59s-1.54,2.81-2.39,4.05c-.85,1.24-1.77,2.33-2.73,3.29l-.37-.21c.67-1.09,1.33-2.35,1.98-3.79,.65-1.43,1.25-2.96,1.8-4.58,.55-1.62,1-3.24,1.37-4.86l3.33,.98Zm-2.43,6.62c-.05,.12-.14,.22-.26,.3-.12,.08-.31,.14-.55,.17v15.52c-.02,.05-.11,.14-.28,.25-.17,.11-.38,.22-.65,.32s-.54,.15-.82,.15h-.42v-16.31l.92-1.19,2.06,.79Zm16.1,2.45c.32,.26,.6,.5,.86,.71,.25,.21,.52,.43,.81,.67,.28,.24,.54,.47,.77,.7-.05,.28-.29,.42-.71,.42h-17.11l-.21-.77h14.28l1.32-1.74Zm-.87,10.26c.33,.28,.63,.53,.88,.74s.52,.44,.79,.69c.27,.25,.52,.47,.75,.69-.07,.28-.3,.42-.69,.42h-15.37l-.21-.77h12.51l1.32-1.77Zm-.87-19.1c.33,.28,.63,.53,.88,.74,.25,.21,.52,.44,.79,.67,.27,.24,.52,.47,.75,.7-.07,.28-.3,.42-.69,.42h-13.44l-.21-.77h10.59l1.32-1.77Zm-4.04,21.37h-2.14v-19.26l2.14-.03v19.29Z" fill="#fff"/>
        <path d="M302.02,383.53l3.12,.87c-.05,.16-.15,.28-.3,.37-.15,.09-.41,.12-.78,.11-.49,1.58-1.12,3.21-1.87,4.88-.76,1.67-1.67,3.32-2.75,4.93s-2.32,3.14-3.75,4.58c-1.43,1.43-3.05,2.71-4.88,3.81l-.29-.29c1.57-1.21,2.97-2.59,4.22-4.12,1.25-1.53,2.35-3.15,3.3-4.86,.95-1.71,1.76-3.43,2.42-5.19,.66-1.75,1.18-3.45,1.57-5.11Zm-6.63,17.44l.4-.03c.33,1.04,.45,1.95,.34,2.74-.11,.79-.33,1.45-.67,1.97-.34,.52-.71,.9-1.1,1.15-.39,.25-.79,.36-1.21,.33s-.71-.22-.87-.57c-.12-.32-.11-.61,.05-.88,.16-.27,.4-.49,.71-.65,.56-.3,1.1-.82,1.6-1.56,.5-.74,.75-1.57,.75-2.51Zm-3.09-11.56h16.29v.77h-16.08l-.21-.77Zm2.59-5.57c.99,.28,1.77,.62,2.36,1s1.02,.79,1.28,1.21c.26,.42,.4,.82,.41,1.19,0,.37-.08,.67-.26,.91-.18,.24-.43,.37-.73,.4s-.62-.08-.98-.33c-.07-.47-.23-.97-.48-1.49s-.54-1.02-.88-1.49-.68-.89-1.02-1.24l.29-.16Zm.69,14.41h17.48v.76h-18.22l.74-.76Zm3.12,2.56c.67,.58,1.16,1.15,1.48,1.7,.32,.55,.51,1.07,.57,1.56,.06,.48,.04,.91-.08,1.27-.11,.36-.29,.63-.52,.82-.23,.18-.48,.25-.77,.21-.28-.04-.55-.23-.79-.57,.16-.77,.2-1.61,.13-2.52-.07-.91-.19-1.69-.37-2.36l.34-.11Zm.61-7.02h11.14v.74h-11.67l.53-.74Zm2.75,6.76c.83,.33,1.48,.7,1.95,1.11,.48,.4,.81,.81,1,1.23,.19,.41,.27,.79,.24,1.12-.04,.33-.15,.61-.33,.82-.18,.21-.42,.32-.7,.32s-.57-.12-.87-.37c-.02-.69-.19-1.4-.53-2.15s-.7-1.39-1.08-1.91l.32-.16Zm3.67-.45c.88,.12,1.59,.32,2.13,.58,.54,.26,.94,.55,1.2,.87,.26,.32,.41,.62,.44,.92,.03,.3-.03,.56-.16,.78-.13,.22-.33,.35-.58,.4-.26,.04-.54-.02-.86-.2-.11-.37-.29-.75-.55-1.13-.26-.39-.56-.76-.88-1.11-.33-.35-.65-.65-.96-.9l.24-.21Zm1.64-10.69h-.24l.87-.95,1.95,1.61c-.14,.18-.43,.27-.87,.29l-.79,3.69h-1.98l1.06-4.64Zm5.04,8.84h-.26l1.11-1.13,2.17,1.79c-.09,.09-.22,.16-.4,.22-.18,.06-.4,.11-.66,.15-.12,1.42-.3,2.68-.54,3.76-.24,1.08-.52,1.97-.84,2.67-.33,.7-.7,1.2-1.12,1.52-.37,.28-.8,.49-1.28,.62-.48,.13-1,.2-1.54,.2,0-.28-.03-.55-.09-.8-.06-.26-.18-.45-.36-.59-.19-.16-.49-.3-.88-.42s-.83-.22-1.31-.29v-.45c.33,.04,.72,.07,1.15,.11s.84,.06,1.23,.08c.39,.02,.66,.03,.82,.03,.42,0,.76-.08,1-.24,.37-.3,.73-1.08,1.07-2.35s.59-2.89,.75-4.86Zm-2.64-4.46h-.24l.87-.98,1.93,1.61c-.18,.14-.46,.24-.84,.29l-.69,3.8h-1.87l.84-4.72Z" fill="#fff"/>
        <path d="M326.65,396.7h2.53v.42c-.92,1.51-2.17,2.85-3.78,4-1.6,1.15-3.43,2.12-5.49,2.89l-.24-.42c1.55-.84,2.92-1.87,4.12-3.07,1.2-1.21,2.15-2.48,2.85-3.81Zm-6.86,0h20.54l1.4-1.82c.33,.28,.63,.53,.88,.74,.25,.21,.52,.44,.81,.7,.28,.25,.55,.5,.79,.73-.07,.28-.32,.42-.74,.42h-23.45l-.24-.77Zm1.11-9.79h18.69l1.32-1.71c.32,.26,.6,.5,.86,.7,.25,.2,.52,.42,.79,.66,.27,.24,.52,.47,.75,.7-.07,.26-.3,.4-.69,.4h-21.49l-.24-.74Zm.18,19.71h17.77l1.45-1.82c.37,.26,.7,.51,.98,.74,.28,.23,.58,.47,.88,.71s.58,.48,.83,.71c-.05,.28-.29,.42-.71,.42h-20.99l-.21-.76Zm4.07-4.57h10.09l1.24-1.56c.32,.25,.59,.47,.83,.66,.24,.19,.48,.4,.74,.62,.25,.22,.5,.43,.73,.62-.07,.28-.31,.42-.71,.42h-12.7l-.21-.76Zm.87-18.34l3.09,.29c-.02,.18-.1,.33-.24,.46s-.38,.22-.71,.28v12.27h-2.14v-13.3Zm.92,6.41h10.19v.77h-10.19v-.77Zm0,3.25h10.19v.76h-10.19v-.76Zm3.88,5.38l3.04,.26c-.02,.18-.09,.32-.22,.44-.13,.12-.35,.2-.65,.25v7.2h-2.17v-8.15Zm4.99-2.06c.4,.6,.94,1.14,1.61,1.64,.67,.49,1.4,.93,2.2,1.32,.8,.39,1.62,.71,2.47,.98,.85,.26,1.65,.47,2.43,.63l-.05,.32c-.42,.25-.76,.55-1,.9-.25,.35-.41,.76-.48,1.21-1.04-.4-2.04-.94-3-1.61-.96-.67-1.83-1.43-2.63-2.3-.79-.86-1.46-1.78-2.01-2.74l.45-.34Zm-.05-12.98l3.14,.29c-.02,.18-.1,.33-.25,.46-.15,.13-.39,.22-.73,.28v12.27h-2.17v-13.3Z" fill="#fff"/>
        <path d="M352.13,399.15l-.34-.74c.93-.48,1.65-.98,2.17-1.5,.51-.53,.84-1.27,1-2.22l.29,.9c-.99-.42-1.67-.84-2.06-1.24-.39-.41-.58-.84-.58-1.29,0-.49,.16-.91,.49-1.24,.33-.33,.76-.5,1.31-.5,.32,0,.59,.04,.83,.12s.47,.22,.7,.43c.12,.3,.21,.57,.26,.81,.05,.24,.08,.53,.08,.88,0,1.42-.37,2.59-1.12,3.51-.75,.92-1.76,1.61-3.02,2.08Z" fill="#fff"/>
        <path d="M365.68,385.43l2.3,1.11h-.34v18.5c0,.07-.15,.2-.44,.38-.29,.18-.68,.28-1.18,.28h-.34v-20.27Zm6.26,8.81v.79h-5.25v-.79h5.25Zm-.03,7.68v.76h-5.23v-.76h5.23Zm.08-15.38v.77h-5.25v-.77h5.25Zm-1.19,0l1.08-1.19,2.27,1.79c-.07,.11-.21,.2-.42,.29-.21,.09-.45,.16-.71,.21v16.23c0,.05-.09,.13-.28,.24-.19,.11-.4,.2-.65,.29-.25,.09-.49,.13-.74,.13h-.29v-18h-.26Zm16.32,8.58c.51,.44,.94,.81,1.29,1.12s.67,.61,.95,.91c-.05,.28-.28,.42-.69,.42h-15.1l-.21-.79h12.54l1.21-1.66Zm-.95-9.1c.32,.26,.6,.5,.86,.7,.25,.2,.52,.42,.79,.66s.52,.46,.75,.67c-.07,.28-.32,.42-.74,.42h-13.68l-.21-.77h10.9l1.32-1.69Zm-.69,4.72c.33,.26,.63,.5,.88,.71,.25,.21,.52,.44,.81,.67,.28,.24,.55,.47,.79,.7-.07,.28-.32,.42-.74,.42h-12.28l-.21-.77h9.37l1.37-1.74Zm-10.24,7.65c1.06,.33,1.89,.72,2.51,1.16s1.06,.88,1.33,1.32c.27,.44,.41,.85,.41,1.24s-.1,.7-.29,.95c-.19,.25-.44,.38-.75,.41-.31,.03-.65-.1-1.02-.38-.05-.51-.21-1.04-.48-1.58-.26-.54-.57-1.07-.92-1.58-.35-.51-.7-.96-1.06-1.35l.26-.18Zm10.53-4.38c-.05,.37-.36,.59-.92,.66v10.45c0,.55-.07,1.02-.2,1.41s-.42,.72-.86,.96c-.44,.25-1.14,.41-2.09,.5-.04-.35-.09-.65-.17-.9-.08-.25-.22-.46-.44-.63-.21-.18-.49-.33-.84-.45-.35-.12-.85-.23-1.5-.32v-.42c.6,.04,1.1,.07,1.52,.11s.8,.06,1.16,.08,.61,.03,.75,.03c.23,0,.39-.04,.48-.12,.09-.08,.13-.21,.13-.38v-11.29l2.98,.32Zm-3.09-9.9c-.02,.18-.1,.33-.25,.45-.15,.12-.39,.21-.73,.26v8.07h-2.06v-9.1l3.04,.32Z" fill="#fff"/>
        <path d="M395.19,385.48v-1.03l2.19,1.03h5.76v.77h-5.89v20.95c0,.09-.07,.2-.22,.33-.15,.13-.35,.25-.61,.34-.26,.1-.55,.15-.88,.15h-.34v-22.54Zm1,3.3h6.84v.77h-6.84v-.77Zm0,3.38h6.84v.74h-6.84v-.74Zm4.67,3.72v-.92l2.11,.92h6.73v.76h-6.86v8.47c0,.07-.08,.16-.24,.26-.16,.11-.37,.2-.62,.28-.26,.08-.52,.12-.81,.12h-.32v-9.9Zm.95,3.62h7.84v.74h-7.84v-.74Zm0,3.77h7.84v.76h-7.84v-.76Zm.5-17.79h-.26l1.03-1.11,2.22,1.69c-.07,.09-.2,.18-.38,.28-.18,.1-.38,.16-.59,.2v7.05c0,.05-.1,.13-.3,.22-.2,.1-.43,.18-.67,.26-.25,.08-.48,.12-.71,.12h-.32v-8.71Zm4.83,0v-.92l2.14,.92h6.07v.77h-6.2v7.2c0,.07-.08,.16-.25,.26-.17,.11-.38,.2-.65,.29-.26,.09-.54,.13-.82,.13h-.29v-8.66Zm1.19,3.3h7v.77h-7v-.77Zm0,3.38h7v.74h-7v-.74Zm.37,3.72h-.24l1.03-1.13,2.22,1.69c-.07,.09-.19,.18-.37,.28-.18,.1-.38,.16-.61,.2v7.92c0,.07-.1,.16-.3,.26-.2,.11-.43,.2-.67,.29s-.49,.13-.74,.13h-.32v-9.63Zm5.73-10.4h-.26l1.03-1.27,2.48,1.87c-.09,.11-.23,.21-.44,.32-.2,.11-.44,.18-.73,.21v18.52c0,.55-.06,1.02-.19,1.41-.12,.4-.4,.71-.82,.95s-1.1,.41-2.03,.51c-.04-.35-.09-.66-.17-.92s-.21-.47-.38-.63c-.19-.18-.46-.33-.79-.45-.33-.12-.79-.23-1.37-.32v-.42c.51,.05,.95,.09,1.32,.11s.72,.04,1.06,.07,.57,.04,.71,.04c.23,0,.38-.05,.46-.15,.08-.1,.12-.24,.12-.44v-19.42Z" fill="#fff"/>
        <path d="M434.03,383.53l3.12,.87c-.05,.16-.15,.28-.3,.37-.15,.09-.41,.12-.78,.11-.49,1.58-1.12,3.21-1.87,4.88-.76,1.67-1.67,3.32-2.75,4.93s-2.32,3.14-3.75,4.58c-1.43,1.43-3.05,2.71-4.88,3.81l-.29-.29c1.57-1.21,2.97-2.59,4.22-4.12,1.25-1.53,2.35-3.15,3.3-4.86,.95-1.71,1.76-3.43,2.42-5.19,.66-1.75,1.18-3.45,1.57-5.11Zm-6.63,17.44l.4-.03c.33,1.04,.45,1.95,.34,2.74-.11,.79-.33,1.45-.67,1.97-.34,.52-.71,.9-1.1,1.15-.39,.25-.79,.36-1.21,.33s-.71-.22-.87-.57c-.12-.32-.11-.61,.05-.88,.16-.27,.4-.49,.71-.65,.56-.3,1.1-.82,1.6-1.56,.5-.74,.75-1.57,.75-2.51Zm-3.09-11.56h16.29v.77h-16.08l-.21-.77Zm2.59-5.57c.99,.28,1.77,.62,2.36,1s1.02,.79,1.28,1.21c.26,.42,.4,.82,.41,1.19,0,.37-.08,.67-.26,.91-.18,.24-.43,.37-.73,.4s-.62-.08-.98-.33c-.07-.47-.23-.97-.48-1.49s-.54-1.02-.88-1.49-.68-.89-1.02-1.24l.29-.16Zm.69,14.41h17.48v.76h-18.22l.74-.76Zm3.12,2.56c.67,.58,1.16,1.15,1.48,1.7,.32,.55,.51,1.07,.57,1.56,.06,.48,.04,.91-.08,1.27-.11,.36-.29,.63-.52,.82-.23,.18-.48,.25-.77,.21-.28-.04-.55-.23-.79-.57,.16-.77,.2-1.61,.13-2.52-.07-.91-.19-1.69-.37-2.36l.34-.11Zm.61-7.02h11.14v.74h-11.67l.53-.74Zm2.75,6.76c.83,.33,1.48,.7,1.95,1.11,.48,.4,.81,.81,1,1.23,.19,.41,.27,.79,.24,1.12-.04,.33-.15,.61-.33,.82-.18,.21-.42,.32-.7,.32s-.57-.12-.87-.37c-.02-.69-.19-1.4-.53-2.15s-.7-1.39-1.08-1.91l.32-.16Zm3.67-.45c.88,.12,1.59,.32,2.13,.58,.54,.26,.94,.55,1.2,.87,.26,.32,.41,.62,.44,.92,.03,.3-.03,.56-.16,.78-.13,.22-.33,.35-.58,.4-.26,.04-.54-.02-.86-.2-.11-.37-.29-.75-.55-1.13-.26-.39-.56-.76-.88-1.11-.33-.35-.65-.65-.96-.9l.24-.21Zm1.64-10.69h-.24l.87-.95,1.95,1.61c-.14,.18-.43,.27-.87,.29l-.79,3.69h-1.98l1.06-4.64Zm5.04,8.84h-.26l1.11-1.13,2.17,1.79c-.09,.09-.22,.16-.4,.22-.18,.06-.4,.11-.66,.15-.12,1.42-.3,2.68-.54,3.76-.24,1.08-.52,1.97-.84,2.67-.33,.7-.7,1.2-1.12,1.52-.37,.28-.8,.49-1.28,.62-.48,.13-1,.2-1.54,.2,0-.28-.03-.55-.09-.8-.06-.26-.18-.45-.36-.59-.19-.16-.49-.3-.88-.42s-.83-.22-1.31-.29v-.45c.33,.04,.72,.07,1.15,.11s.84,.06,1.23,.08c.39,.02,.66,.03,.82,.03,.42,0,.76-.08,1-.24,.37-.3,.73-1.08,1.07-2.35s.59-2.89,.75-4.86Zm-2.64-4.46h-.24l.87-.98,1.93,1.61c-.18,.14-.46,.24-.84,.29l-.69,3.8h-1.87l.84-4.72Z" fill="#fff"/>
        <path d="M459.83,387.07c.49,.39,.91,.72,1.24,1,.33,.28,.63,.55,.9,.82-.05,.28-.28,.42-.69,.42h-9.37l-.21-.79h6.97l1.16-1.45Zm-.74,3.61c.46,.37,.84,.68,1.16,.94s.6,.51,.84,.75c-.07,.28-.3,.42-.69,.42h-7.39l-.21-.76h5.2l1.08-1.35Zm0,3.38c.46,.37,.84,.68,1.16,.94s.6,.51,.84,.75c-.07,.28-.3,.42-.69,.42h-7.39l-.21-.77h5.2l1.08-1.35Zm-4.17,13.12c0,.05-.08,.13-.24,.24-.16,.11-.36,.2-.59,.28s-.5,.12-.78,.12h-.29v-9.84l2.03,.87h4.3v.79h-4.44v7.55Zm4.44-2.32v.79h-5.31v-.79h5.31Zm-4.88-20.9c.93,.18,1.67,.42,2.22,.74,.55,.32,.94,.66,1.17,1.02,.24,.36,.35,.71,.34,1.04,0,.33-.11,.61-.29,.83-.18,.22-.42,.35-.71,.38-.29,.04-.61-.06-.96-.29-.07-.4-.22-.82-.44-1.25-.22-.43-.47-.85-.75-1.25-.28-.4-.56-.76-.85-1.06l.26-.16Zm3.59,14.88l1.03-1.11,2.22,1.69c-.07,.11-.2,.2-.4,.29s-.41,.16-.66,.21v6.33c0,.05-.09,.13-.28,.22-.19,.1-.4,.18-.65,.26s-.48,.12-.69,.12h-.32v-8.02h-.26Zm7.34-13.38l1.16-1.16,2.06,1.79c-.09,.11-.21,.18-.36,.22-.15,.04-.37,.08-.67,.12-.33,1.16-.8,2.3-1.4,3.43-.6,1.13-1.35,2.19-2.24,3.18-.9,.99-1.97,1.86-3.22,2.6l-.26-.37c.95-.81,1.77-1.75,2.47-2.84,.7-1.08,1.27-2.22,1.73-3.42,.46-1.2,.79-2.38,1-3.56h-.26Zm8.32,19.37c.32,.25,.59,.47,.83,.67,.24,.2,.49,.42,.75,.66,.26,.24,.5,.46,.71,.67-.07,.28-.3,.42-.69,.42h-14.5l-.21-.79h11.85l1.24-1.64Zm-7-19.37v.77h-5.52l-.24-.77h5.76Zm-5.12,1.79c.85,.26,1.47,.58,1.89,.95,.41,.37,.66,.74,.74,1.1,.08,.36,.04,.67-.11,.92-.15,.25-.37,.41-.65,.46-.28,.05-.57-.04-.87-.29-.04-.51-.18-1.04-.44-1.6-.26-.55-.54-1.02-.86-1.38l.29-.16Zm3.09,14.01c0,.05-.08,.13-.24,.22s-.36,.18-.59,.25c-.24,.07-.49,.11-.75,.11h-.29v-7.1l1.98,.87h7.15v.74h-7.26v4.91Zm6.97-1.21v.79h-8v-.79h8Zm-7.58,1.79c.79,.32,1.41,.67,1.85,1.07s.73,.78,.88,1.15c.15,.37,.2,.71,.16,1.03-.04,.32-.17,.56-.38,.74-.21,.18-.45,.26-.73,.25-.27,0-.56-.14-.86-.38-.02-.63-.15-1.29-.41-1.98-.26-.69-.53-1.27-.83-1.74l.32-.13Zm5.47-10.53c.46,.37,.84,.69,1.15,.95,.31,.26,.58,.52,.81,.76-.05,.28-.26,.42-.63,.42h-5.99l-.21-.77h3.85l1.03-1.37Zm-.71-6.89c.42,1.36,.99,2.63,1.7,3.84,.71,1.21,1.55,2.27,2.51,3.18,.96,.92,1.99,1.63,3.1,2.14l-.03,.29c-.37,.07-.7,.24-.98,.51-.28,.27-.48,.65-.61,1.12-1.62-1.09-2.92-2.56-3.89-4.41-.98-1.85-1.72-4.02-2.23-6.52l.42-.16Zm4.07,18.02c-.04,.14-.14,.26-.3,.36-.17,.1-.39,.15-.67,.15-.33,.6-.77,1.26-1.31,1.98-.54,.72-1.09,1.38-1.65,1.98h-.48c.19-.49,.38-1.05,.57-1.66,.18-.62,.36-1.24,.51-1.87,.16-.63,.29-1.21,.4-1.71l2.93,.79Zm1.19-16.33c-.09,.12-.21,.2-.36,.22s-.36,0-.62-.09c-.55,.33-1.12,.66-1.72,.96-.6,.31-1.15,.56-1.66,.75l-.26-.4c.37-.37,.78-.83,1.24-1.4,.46-.56,.88-1.11,1.27-1.64l2.11,1.58Zm-3.54,9.5l1.03-1.11,2.24,1.71c-.09,.11-.24,.2-.45,.29-.21,.09-.44,.16-.69,.21v4.38c0,.05-.09,.12-.28,.21-.19,.09-.4,.17-.63,.24-.24,.07-.45,.11-.65,.11h-.32v-6.04h-.26Zm5.39-7.1c-.09,.11-.2,.17-.34,.2-.14,.03-.34,0-.61-.07-.6,.35-1.25,.69-1.97,1-.71,.32-1.32,.56-1.83,.74l-.26-.4c.44-.33,.93-.78,1.48-1.35,.55-.56,1.05-1.11,1.5-1.64l2.03,1.5Z" fill="#fff"/>
      </g>
      <g>
        <path d="M264.4,324.48h5.97c1.23,0,2.34-.21,3.33-.63,.99-.42,1.76-1.04,2.32-1.85,.56-.81,.84-1.79,.84-2.96,0-1.76-.62-3.12-1.85-4.09-1.23-.97-2.78-1.45-4.65-1.45h-5.02v29.03h5.54c1.58,0,2.98-.28,4.2-.84,1.21-.56,2.17-1.37,2.85-2.43s1.03-2.34,1.03-3.85c0-1.13-.19-2.13-.58-3.01-.39-.88-.94-1.62-1.66-2.22-.72-.6-1.58-1.05-2.56-1.35-.99-.3-2.08-.45-3.27-.45h-6.5v-2.48h6.5c1.8,0,3.45,.19,4.96,.58,1.51,.39,2.84,.98,3.99,1.77,1.14,.79,2.03,1.8,2.67,3.03,.63,1.23,.95,2.69,.95,4.38,0,2.43-.55,4.44-1.66,6.04-1.11,1.6-2.61,2.8-4.49,3.59-1.88,.79-4.02,1.19-6.42,1.19h-10.03v-36.94h9.5c2.22,0,4.15,.33,5.78,1,1.64,.67,2.91,1.68,3.83,3.04,.92,1.35,1.37,3.09,1.37,5.2,0,1.72-.46,3.2-1.37,4.43-.92,1.23-2.19,2.16-3.83,2.8-1.64,.63-3.56,.95-5.78,.95h-5.97v-2.48Z" fill="#c7b299"/>
        <path d="M301.78,332.55l-.42,.95-5.49,12.98h-5.02l17.16-38.79,17.16,38.79h-5.02l-5.39-12.67-.42-1.06-6.34-14.88-6.23,14.67Zm-1.85-1.37h16.37l1.58,4.22h-19.54l1.58-4.22Z" fill="#c7b299"/>
        <path d="M332.65,320.49c.93-2.3,2.24-4.31,3.93-6.02,1.69-1.71,3.68-3.04,5.97-4.01,2.29-.97,4.77-1.45,7.45-1.45s5.2,.48,7.47,1.45c2.27,.97,4.25,2.31,5.94,4.01,1.69,1.71,3,3.71,3.93,6.02,.93,2.3,1.4,4.81,1.4,7.52s-.47,5.17-1.4,7.49c-.93,2.32-2.24,4.34-3.93,6.04-1.69,1.71-3.67,3.04-5.94,4.01-2.27,.97-4.76,1.45-7.47,1.45s-5.16-.48-7.45-1.45c-2.29-.97-4.28-2.3-5.97-4.01-1.69-1.71-3-3.72-3.93-6.04-.93-2.32-1.4-4.82-1.4-7.49s.47-5.22,1.4-7.52Zm5.17,14.96c1.21,2.18,2.88,3.91,4.99,5.17s4.51,1.9,7.18,1.9,5.11-.63,7.21-1.9c2.09-1.27,3.75-2.99,4.96-5.17,1.21-2.18,1.82-4.66,1.82-7.44s-.61-5.26-1.82-7.44c-1.21-2.18-2.87-3.91-4.96-5.17-2.09-1.27-4.5-1.9-7.21-1.9s-5.07,.63-7.18,1.9-3.78,2.99-4.99,5.17c-1.21,2.18-1.82,4.66-1.82,7.44s.61,5.26,1.82,7.44Z" fill="#c7b299"/>
        <path d="M375.08,309.54h23.5v4.22h-9.5v32.72h-4.49v-32.72h-9.5v-4.22Z" fill="#c7b299"/>
        <path d="M410.3,332.55l-.42,.95-5.49,12.98h-5.02l17.16-38.79,17.16,38.79h-5.02l-5.39-12.67-.42-1.06-6.34-14.88-6.23,14.67Zm-1.85-1.37h16.37l1.58,4.22h-19.54l1.58-4.22Z" fill="#c7b299"/>
        <path d="M447.94,309.54v36.94h-4.49v-36.94h4.49Z" fill="#c7b299"/>
      </g>
      <g>
        <g>
          <path d="M331.29,133.23h20.12l1.5-1.87c.37,.3,.7,.56,.99,.78s.59,.46,.9,.71c.31,.26,.59,.5,.86,.73-.05,.26-.29,.4-.71,.4h-23.45l-.21-.74Zm1.35-11.64h17.61l1.53-1.82c.35,.28,.67,.53,.96,.74,.29,.21,.59,.44,.91,.7,.32,.25,.6,.5,.85,.73-.05,.28-.28,.42-.69,.42h-20.96l-.21-.77Zm2.59,2.35c1.07,.7,1.92,1.41,2.55,2.11,.62,.7,1.07,1.38,1.35,2.02,.27,.64,.4,1.22,.4,1.73,0,.51-.11,.92-.32,1.23-.2,.31-.47,.47-.81,.49-.33,.02-.68-.14-1.03-.48-.04-.76-.18-1.55-.45-2.38-.26-.83-.57-1.63-.92-2.41-.35-.78-.72-1.5-1.11-2.15l.34-.16Zm7.13-2.27h2.17v21.53c0,.05-.08,.14-.22,.25-.15,.11-.36,.21-.62,.3-.26,.09-.58,.13-.95,.13h-.37v-22.22Zm7.52,2.22l3.06,1.19c-.05,.14-.16,.26-.32,.34-.16,.09-.39,.12-.69,.11-.69,1.18-1.46,2.32-2.32,3.43-.86,1.11-1.73,2.05-2.59,2.82l-.37-.24c.35-.63,.72-1.37,1.11-2.2,.39-.83,.76-1.72,1.12-2.67,.36-.94,.69-1.87,.99-2.78Z" fill="#fff"/>
          <path d="M367.62,124.29l2.72,1.35c-.07,.14-.18,.24-.32,.3-.14,.06-.37,.07-.69,.01-.46,.74-1.02,1.57-1.69,2.48-.67,.92-1.4,1.83-2.2,2.73s-1.65,1.74-2.55,2.49l-.32-.32c.7-.86,1.38-1.83,2.02-2.92s1.22-2.16,1.74-3.25c.52-1.08,.95-2.05,1.28-2.89Zm-.4-4.72l2.72,1.32c-.07,.12-.18,.22-.32,.28-.14,.06-.36,.07-.66,.01-.42,.55-.95,1.14-1.58,1.78-.63,.64-1.32,1.27-2.05,1.87-.73,.61-1.48,1.16-2.26,1.65l-.29-.32c.6-.63,1.18-1.34,1.74-2.12,.56-.78,1.08-1.57,1.56-2.36,.48-.79,.85-1.49,1.14-2.11Zm-1.58,10.61l.95-1.29,1.82,.71c-.05,.12-.14,.22-.26,.3-.12,.08-.3,.14-.53,.17v13.17c0,.05-.08,.13-.25,.22-.17,.1-.37,.19-.61,.28-.24,.09-.49,.13-.75,.13h-.37v-13.7Zm8.42,3.96l2.82,.29c-.02,.16-.1,.3-.24,.44-.14,.13-.36,.22-.66,.25-.07,.88-.2,1.72-.4,2.53-.19,.81-.53,1.58-1.02,2.32-.48,.74-1.2,1.43-2.14,2.08-.94,.65-2.2,1.25-3.79,1.79l-.29-.5c1.27-.63,2.27-1.28,3.02-1.95,.75-.67,1.31-1.39,1.68-2.15,.37-.76,.62-1.57,.77-2.41,.14-.84,.22-1.74,.24-2.69Zm-1.03-14.59l2.8,.98c-.05,.14-.16,.26-.32,.36-.16,.1-.38,.14-.66,.12-.7,1.58-1.54,3.02-2.52,4.3-.98,1.29-2.03,2.35-3.15,3.19l-.37-.29c.55-.69,1.08-1.48,1.61-2.39,.53-.91,1.02-1.9,1.47-2.97,.45-1.07,.83-2.17,1.15-3.3Zm-4.17,16.99h9.37l1.27-1.61c.51,.42,.95,.78,1.32,1.08,.37,.3,.7,.59,.98,.87-.05,.28-.28,.42-.69,.42h-12.04l-.21-.76Zm3.27-10.58v8.42c0,.05-.06,.14-.19,.26-.12,.12-.3,.23-.53,.33-.23,.1-.5,.15-.82,.15h-.32v-8.26l1.03-1.37,1.14,.47h-.32Zm-.61,7.02h7.34v.76h-7.34v-.76Zm.05-7.02h7.29v.77h-7.29v-.77Zm0,3.43h7.31v.76h-7.31v-.76Zm1.45-6.83h4.44v.77h-4.44v-.77Zm1.29,3.51h1.61v7.18h-1.61v-7.18Zm.69,11.93c1.07,.21,1.94,.49,2.61,.83s1.18,.71,1.52,1.1c.34,.39,.55,.75,.61,1.09s.03,.64-.11,.88-.34,.4-.62,.45c-.28,.05-.6-.03-.95-.24-.16-.46-.42-.92-.79-1.4-.37-.47-.78-.93-1.23-1.37-.45-.44-.88-.81-1.31-1.11l.26-.24Zm1.29-15.44h-.29l1.11-1.13,2.01,1.9c-.09,.07-.21,.12-.37,.16-.16,.04-.37,.06-.63,.08-.23,.25-.51,.54-.84,.88-.33,.34-.67,.69-1.02,1.03s-.66,.65-.96,.91h-.42c.16-.37,.33-.79,.5-1.27,.18-.47,.35-.95,.52-1.41,.17-.47,.3-.85,.41-1.15Zm1.87,3.4h-.21l.92-.95,1.93,1.48c-.05,.09-.15,.17-.29,.24-.14,.07-.31,.12-.5,.16v7.23c0,.07-.08,.15-.25,.25-.17,.1-.37,.19-.62,.26-.25,.08-.48,.12-.69,.12h-.29v-8.79Zm4.96,1.87h2.03v13.25c0,.49-.07,.94-.2,1.33-.13,.4-.4,.72-.82,.96s-1.05,.41-1.91,.5c-.02-.3-.07-.57-.15-.82-.08-.25-.21-.45-.38-.61-.18-.16-.42-.29-.74-.41-.32-.12-.77-.22-1.35-.3v-.4c.49,.04,.92,.07,1.27,.09s.69,.05,1.02,.07,.55,.03,.67,.03c.23,0,.38-.04,.45-.12s.11-.21,.11-.38v-13.19Zm-3.19-5.99h3.51l1.32-1.64c.55,.42,1,.79,1.37,1.1s.71,.6,1.03,.88c-.07,.28-.31,.42-.71,.42h-6.31l-.21-.76Zm.05,5.88h3.99l1.35-1.66c.32,.25,.6,.47,.86,.67,.25,.2,.52,.42,.81,.66,.28,.24,.54,.47,.77,.7-.07,.26-.3,.4-.69,.4h-6.86l-.21-.77Z" fill="#fff"/>
        </g>
        <path d="M356.49,65.97h4.48c.92,0,1.76-.16,2.5-.47,.74-.32,1.32-.78,1.74-1.39,.42-.61,.63-1.35,.63-2.22,0-1.32-.46-2.34-1.39-3.07-.92-.73-2.09-1.09-3.48-1.09h-3.76v21.77h4.16c1.19,0,2.24-.21,3.15-.63s1.62-1.03,2.14-1.82c.51-.79,.77-1.75,.77-2.89,0-.84-.15-1.6-.44-2.26-.29-.66-.71-1.21-1.25-1.66-.54-.45-1.18-.78-1.92-1.01-.74-.22-1.56-.34-2.46-.34h-4.87v-1.86h4.87c1.35,0,2.59,.15,3.72,.44,1.13,.29,2.13,.73,2.99,1.33,.86,.59,1.52,1.35,2,2.28,.48,.92,.71,2.02,.71,3.29,0,1.82-.42,3.33-1.25,4.53-.83,1.2-1.95,2.1-3.37,2.69-1.41,.59-3.02,.89-4.81,.89h-7.52v-27.71h7.13c1.66,0,3.11,.25,4.34,.75,1.23,.5,2.18,1.26,2.87,2.28s1.03,2.32,1.03,3.9c0,1.29-.34,2.4-1.03,3.33-.69,.92-1.64,1.62-2.87,2.1-1.23,.48-2.67,.71-4.34,.71h-4.48v-1.86Z" fill="#c7b299"/>
        <g>
          <path d="M329.3,100.76h2.24c.46,0,.88-.08,1.25-.24,.37-.16,.66-.39,.87-.69,.21-.3,.32-.67,.32-1.11,0-.66-.23-1.17-.69-1.53-.46-.36-1.04-.54-1.74-.54h-1.88v10.88h2.08c.59,0,1.12-.11,1.57-.32,.46-.21,.81-.51,1.07-.91,.26-.4,.39-.88,.39-1.45,0-.42-.07-.8-.22-1.13-.15-.33-.35-.61-.62-.83-.27-.22-.59-.39-.96-.5-.37-.11-.78-.17-1.23-.17h-2.44v-.93h2.44c.67,0,1.29,.07,1.86,.22,.57,.15,1.07,.37,1.49,.66s.76,.68,1,1.14c.24,.46,.36,1.01,.36,1.64,0,.91-.21,1.67-.62,2.27-.42,.6-.98,1.05-1.68,1.35-.71,.3-1.51,.45-2.41,.45h-3.76v-13.85h3.56c.83,0,1.55,.12,2.17,.38,.61,.25,1.09,.63,1.44,1.14,.34,.51,.51,1.16,.51,1.95,0,.65-.17,1.2-.51,1.66-.34,.46-.82,.81-1.44,1.05-.61,.24-1.34,.36-2.17,.36h-2.24v-.93Z" fill="#c7b299"/>
          <path d="M340.88,107.09c.17,.25,.4,.44,.69,.56,.3,.12,.64,.19,1.02,.19,.49,0,.93-.1,1.32-.3,.39-.2,.7-.48,.93-.84,.23-.36,.35-.78,.35-1.26l.32,1.19c0,.58-.18,1.06-.52,1.44-.35,.38-.78,.67-1.29,.85-.51,.18-1.01,.28-1.51,.28-.55,0-1.07-.12-1.55-.35s-.87-.56-1.16-1c-.29-.44-.44-.96-.44-1.58,0-.88,.31-1.59,.94-2.13,.63-.54,1.5-.8,2.62-.8,.66,0,1.21,.08,1.65,.23s.8,.32,1.06,.51,.44,.35,.53,.46v.93c-.46-.32-.94-.54-1.43-.68-.49-.14-1.01-.21-1.56-.21-.51,0-.93,.07-1.26,.2s-.56,.32-.72,.55c-.16,.24-.24,.52-.24,.85s.08,.64,.25,.89Zm-1.26-6.25c.34-.25,.81-.5,1.42-.75,.6-.25,1.32-.38,2.17-.38,.71,0,1.34,.11,1.87,.33s.95,.53,1.25,.94c.3,.41,.45,.91,.45,1.5v6.53h-1.58v-6.31c0-.32-.05-.58-.16-.78-.11-.21-.25-.37-.45-.49s-.41-.2-.66-.26-.51-.08-.79-.08c-.45,0-.85,.05-1.22,.16-.36,.11-.67,.23-.92,.38-.25,.15-.45,.27-.59,.38l-.77-1.17Z" fill="#c7b299"/>
          <path d="M352.02,93.57v15.44h-1.58v-15.44h1.58Z" fill="#c7b299"/>
          <path d="M356.94,107.09c.17,.25,.4,.44,.69,.56,.3,.12,.64,.19,1.02,.19,.49,0,.93-.1,1.32-.3,.39-.2,.7-.48,.93-.84,.23-.36,.35-.78,.35-1.26l.32,1.19c0,.58-.18,1.06-.52,1.44-.35,.38-.78,.67-1.29,.85-.51,.18-1.01,.28-1.51,.28-.55,0-1.07-.12-1.55-.35s-.87-.56-1.16-1c-.29-.44-.44-.96-.44-1.58,0-.88,.31-1.59,.94-2.13,.63-.54,1.5-.8,2.62-.8,.66,0,1.21,.08,1.65,.23s.8,.32,1.06,.51,.44,.35,.53,.46v.93c-.46-.32-.94-.54-1.43-.68-.49-.14-1.01-.21-1.56-.21-.51,0-.93,.07-1.26,.2s-.56,.32-.72,.55c-.16,.24-.24,.52-.24,.85s.08,.64,.25,.89Zm-1.26-6.25c.34-.25,.81-.5,1.42-.75,.6-.25,1.32-.38,2.17-.38,.71,0,1.34,.11,1.87,.33s.95,.53,1.25,.94c.3,.41,.45,.91,.45,1.5v6.53h-1.58v-6.31c0-.32-.05-.58-.16-.78-.11-.21-.25-.37-.45-.49s-.41-.2-.66-.26-.51-.08-.79-.08c-.45,0-.85,.05-1.22,.16-.36,.11-.67,.23-.92,.38-.25,.15-.45,.27-.59,.38l-.77-1.17Z" fill="#c7b299"/>
          <path d="M371.84,101.77c-.33-.38-.81-.57-1.45-.57-.46,0-.87,.1-1.22,.29-.35,.19-.62,.46-.81,.8-.19,.34-.29,.74-.29,1.19v5.54h-1.58v-9.1h1.58v1.42c.3-.55,.68-.96,1.14-1.23,.46-.26,.98-.4,1.57-.4,.96,0,1.73,.32,2.29,.96,.56,.64,.84,1.51,.84,2.6v5.74h-1.58v-5.54c0-.75-.17-1.32-.5-1.7Z" fill="#c7b299"/>
          <path d="M379,106.14c.27,.49,.64,.88,1.11,1.16,.47,.28,1,.43,1.59,.43,.49,0,.95-.08,1.38-.23,.43-.15,.8-.36,1.12-.61,.32-.26,.54-.53,.67-.82v1.98c-.32,.37-.77,.66-1.36,.86-.59,.2-1.19,.31-1.81,.31-.88,0-1.68-.21-2.4-.61-.71-.41-1.28-.97-1.69-1.69-.42-.72-.62-1.53-.62-2.44s.21-1.74,.62-2.45c.42-.71,.98-1.27,1.69-1.68s1.51-.61,2.4-.61c.62,0,1.22,.1,1.81,.31,.59,.21,1.04,.49,1.36,.86v1.98c-.13-.3-.36-.58-.67-.83-.32-.25-.69-.45-1.12-.6-.43-.15-.89-.23-1.38-.23-.59,0-1.13,.14-1.59,.42-.47,.28-.84,.66-1.11,1.16-.27,.5-.41,1.06-.41,1.69s.14,1.19,.41,1.68Z" fill="#c7b299"/>
          <path d="M389.61,108.6c-.65-.4-1.16-.96-1.52-1.67-.36-.71-.54-1.54-.54-2.47s.19-1.78,.56-2.49c.38-.71,.9-1.27,1.58-1.66,.68-.4,1.47-.59,2.37-.59s1.67,.19,2.31,.56c.64,.38,1.13,.91,1.48,1.61s.52,1.53,.52,2.49c0,.09,0,.19-.01,.29,0,.1,0,.16,0,.19h-7.78v-1.35h6.53l-.63,.91c.04-.07,.08-.17,.12-.31s.06-.25,.06-.35c0-.54-.11-1.01-.33-1.4-.22-.4-.52-.71-.9-.93s-.83-.34-1.35-.34c-.61,0-1.13,.13-1.55,.39-.43,.26-.76,.63-.99,1.11s-.35,1.07-.37,1.77c0,.71,.11,1.32,.34,1.82,.22,.5,.55,.88,.99,1.15,.44,.26,.96,.4,1.58,.4s1.17-.14,1.64-.41c.48-.27,.88-.68,1.21-1.24l1.29,.81c-.48,.76-1.07,1.34-1.79,1.73-.72,.39-1.57,.58-2.54,.58-.84,0-1.59-.2-2.25-.6Z" fill="#c7b299"/>
        </g>
      </g>
      <g>
        <g>
          <path d="M338.71,645.9c.46,.39,.85,.71,1.16,.98,.32,.26,.61,.53,.87,.79-.07,.28-.3,.42-.69,.42h-8.53l-.21-.79h6.31l1.08-1.4Zm-.84,3.48c.42,.35,.78,.65,1.07,.88s.55,.48,.78,.73c-.05,.28-.27,.42-.66,.42h-6.57l-.21-.76h4.57l1.03-1.27Zm-.08,3.38c.42,.35,.78,.65,1.07,.88,.29,.24,.55,.48,.78,.73-.07,.28-.3,.42-.69,.42h-6.47l-.21-.77h4.51l1-1.27Zm-3.51,13.01c0,.05-.07,.13-.22,.22-.15,.1-.34,.18-.57,.26-.23,.08-.48,.12-.77,.12h-.26v-9.9l1.95,.87h3.72v.77h-3.85v7.65Zm-.74-23.09c.93,.18,1.67,.42,2.22,.73,.55,.31,.94,.63,1.18,.98,.24,.34,.36,.67,.37,.99,0,.32-.08,.58-.26,.79-.19,.21-.42,.33-.7,.37-.28,.04-.6-.05-.95-.26-.11-.39-.27-.79-.5-1.21-.23-.42-.49-.83-.78-1.21-.29-.39-.57-.72-.83-1l.26-.16Zm4.49,20.77v.79h-4.65v-.79h4.65Zm-1.11-6.1l1-1.08,2.14,1.64c-.09,.11-.22,.2-.41,.29-.18,.09-.4,.15-.65,.18v6.33c0,.07-.09,.15-.26,.25-.18,.1-.38,.18-.61,.26-.23,.08-.45,.12-.66,.12h-.29v-8h-.26Zm4.15-9.92v-.66l2.19,.92h-.34v5.62c0,.99-.03,2.05-.09,3.21-.06,1.15-.21,2.32-.45,3.5-.24,1.18-.61,2.33-1.11,3.46-.5,1.13-1.2,2.16-2.1,3.11l-.4-.26c.72-1.32,1.24-2.71,1.56-4.16,.32-1.45,.52-2.93,.61-4.43s.13-2.98,.13-4.42v-5.88Zm5.25,5.01v.77h-4.3v-.77h4.3Zm7.29-6.33c.55,.42,1,.78,1.36,1.08,.36,.3,.68,.59,.96,.87-.05,.28-.28,.42-.69,.42h-12.99v-.79h10.11l1.24-1.58Zm-8.42,6.33l.98-1.06,1.95,1.64c-.18,.19-.5,.33-.98,.4-.04,1.78-.08,3.24-.15,4.38-.06,1.14-.16,2.03-.29,2.67-.13,.63-.35,1.09-.65,1.37-.21,.19-.46,.33-.74,.42-.28,.09-.58,.14-.9,.16,0-.18-.03-.36-.08-.57-.05-.2-.14-.36-.26-.46-.11-.12-.28-.23-.51-.33-.24-.1-.49-.17-.75-.22v-.42c.25,.02,.54,.04,.9,.07,.35,.03,.61,.04,.77,.04,.18,0,.3-.06,.37-.18,.12-.18,.22-.55,.3-1.13,.08-.58,.14-1.42,.18-2.52,.04-1.1,.08-2.51,.12-4.24h-.26Zm10.17-.79c-.05,.16-.15,.27-.3,.34-.15,.07-.4,.11-.75,.11-.58,2.29-1.31,4.33-2.18,6.13-.87,1.8-1.95,3.38-3.23,4.72-1.29,1.35-2.85,2.51-4.7,3.5l-.26-.45c1.6-1.13,2.95-2.41,4.05-3.84,1.1-1.43,2.02-3.08,2.76-4.95,.74-1.86,1.35-4,1.82-6.41l2.8,.84Zm-4.46-8.87c-.02,.18-.09,.33-.22,.46-.13,.13-.37,.22-.73,.28-.02,1.94,0,3.86,.08,5.77,.07,1.91,.23,3.73,.49,5.45,.26,1.72,.65,3.3,1.19,4.72,.54,1.42,1.24,2.61,2.1,3.56,.18,.23,.3,.34,.38,.33,.08,0,.18-.15,.3-.41,.16-.33,.34-.78,.55-1.35,.21-.56,.4-1.1,.55-1.61l.32,.05-.48,4.14c.33,.58,.53,1.03,.59,1.36,.06,.33,.02,.56-.12,.7-.28,.25-.62,.33-1.02,.25s-.8-.26-1.2-.55c-.41-.29-.76-.61-1.06-.96-1.02-1.18-1.84-2.57-2.47-4.17-.62-1.6-1.1-3.37-1.43-5.3-.33-1.94-.55-4-.66-6.19-.11-2.19-.17-4.48-.17-6.87l2.98,.34Zm.58,.21c.86,.09,1.55,.25,2.07,.49,.52,.24,.89,.5,1.12,.79,.23,.29,.35,.58,.37,.86,.02,.28-.05,.52-.21,.71-.16,.19-.37,.31-.62,.34s-.54-.04-.86-.21c-.14-.49-.42-.99-.84-1.5-.42-.51-.84-.93-1.27-1.27l.24-.21Z" fill="#fff"/>
          <path d="M371.79,643.18c-.05,.14-.16,.26-.33,.37s-.4,.16-.7,.16c-.6,1.69-1.29,3.29-2.07,4.82-.78,1.52-1.63,2.93-2.55,4.22-.92,1.29-1.89,2.43-2.93,3.42l-.34-.26c.72-1.11,1.44-2.4,2.15-3.88s1.38-3.06,1.99-4.74c.62-1.68,1.13-3.37,1.53-5.08l3.25,.98Zm-2.4,6.52c-.04,.12-.12,.22-.25,.3s-.32,.14-.57,.17v15.7c0,.05-.09,.14-.26,.25-.18,.11-.39,.22-.65,.32-.26,.1-.51,.15-.78,.15h-.4v-16.49l.9-1.16,2.01,.77Zm15.95-4.46c.33,.26,.63,.51,.88,.73,.25,.22,.53,.45,.82,.69,.29,.24,.54,.47,.75,.7-.07,.28-.3,.42-.69,.42h-16.53l-.21-.76h13.62l1.35-1.77Zm-1.5,3.8c.32,.25,.59,.47,.83,.67,.24,.2,.49,.42,.75,.65,.26,.23,.5,.45,.71,.66-.07,.28-.3,.42-.69,.42h-13.15l-.21-.76h10.53l1.21-1.64Zm0,3.67c.3,.25,.57,.47,.81,.66s.49,.41,.75,.65,.51,.46,.74,.67c-.07,.28-.31,.42-.71,.42h-13.04l-.21-.76h10.43l1.24-1.64Zm-9.19,13.19c0,.05-.09,.14-.26,.25s-.4,.21-.67,.3c-.27,.09-.56,.13-.86,.13h-.29v-9.74l2.24,.95h9.48v.76h-9.64v7.34Zm9.69-2.19v.77h-10.64v-.77h10.64Zm-7.81-21.74c1.02,.26,1.83,.58,2.43,.96,.6,.38,1.03,.78,1.31,1.2,.27,.42,.41,.82,.42,1.2s-.08,.69-.26,.94c-.19,.25-.43,.39-.73,.44-.3,.04-.62-.07-.98-.33-.07-.49-.23-1-.49-1.52-.26-.52-.55-1.02-.9-1.49-.34-.48-.7-.88-1.07-1.21l.26-.18Zm6.31,15.83l1.11-1.19,2.35,1.79c-.07,.11-.2,.21-.4,.3s-.42,.16-.69,.2v6.7s-.1,.11-.29,.22c-.19,.11-.43,.21-.7,.29-.27,.08-.53,.12-.78,.12h-.34v-8.44h-.26Z" fill="#fff"/>
        </g>
        <path d="M353.06,577.46h17.62v3.17h-7.13v24.54h-3.37v-24.54h-7.13v-3.17Z" fill="#c7b299"/>
        <g>
          <path d="M341.32,617.85h8.81v1.58h-3.56v12.27h-1.68v-12.27h-3.56v-1.58Z" fill="#c7b299"/>
          <path d="M352.8,631.7h-1.58v-9.1h1.58v9.1Zm2.18-7.71c-.17-.07-.39-.11-.65-.11-.4,0-.71,.1-.93,.3-.22,.2-.38,.47-.47,.81s-.13,.73-.13,1.17h-.71c0-.72,.13-1.37,.39-1.93,.26-.56,.59-1.01,1-1.33,.41-.33,.82-.5,1.25-.5,.33,0,.64,.04,.92,.13s.54,.25,.78,.5l-.87,1.31c-.21-.16-.4-.27-.57-.35Z" fill="#c7b299"/>
          <path d="M361.08,629.82c.33,.4,.81,.59,1.45,.59,.46,0,.87-.1,1.22-.29,.35-.19,.62-.46,.81-.8,.19-.34,.29-.74,.29-1.19v-5.54h1.58v9.1h-1.58v-1.42c-.3,.54-.68,.95-1.13,1.22s-.98,.41-1.58,.41c-.95,0-1.71-.32-2.28-.97s-.85-1.51-.85-2.59v-5.74h1.58v5.54c0,.73,.17,1.29,.5,1.68Z" fill="#c7b299"/>
          <path d="M371.4,629.68c.24,.24,.51,.43,.82,.56,.31,.14,.65,.21,1.02,.21,.45,0,.8-.1,1.06-.31,.26-.2,.39-.48,.39-.84,0-.32-.1-.58-.31-.8s-.47-.4-.78-.55c-.32-.15-.65-.29-1.01-.43-.4-.16-.8-.35-1.2-.56s-.74-.5-1.01-.85-.41-.79-.41-1.32,.14-.99,.43-1.35c.28-.36,.65-.62,1.11-.79,.46-.17,.93-.26,1.42-.26s.95,.08,1.38,.24c.43,.16,.81,.37,1.14,.63,.33,.26,.59,.57,.77,.91l-1.27,.81c-.25-.34-.56-.63-.94-.85-.38-.22-.8-.34-1.28-.34-.33,0-.61,.07-.85,.22s-.36,.37-.36,.67c0,.24,.09,.45,.28,.63,.18,.19,.42,.35,.71,.5,.29,.15,.59,.28,.91,.42,.53,.21,1.01,.44,1.45,.68,.44,.24,.78,.54,1.04,.88,.26,.34,.39,.79,.39,1.33,0,.79-.29,1.45-.86,1.98-.57,.53-1.33,.79-2.27,.79-.61,0-1.16-.11-1.64-.33s-.9-.5-1.24-.84c-.34-.34-.59-.69-.76-1.05l1.25-.77c.18,.28,.4,.54,.63,.77Z" fill="#c7b299"/>
          <path d="M382.53,622.6v1.48h-4.55v-1.48h4.55Zm-1.48-3.17v12.27h-1.58v-12.27h1.58Z" fill="#c7b299"/>
        </g>
      </g>
      <g>
        <g>
          <path d="M584.28,510.57l1.32-1.24,2.17,2.11c-.12,.11-.27,.18-.44,.21s-.42,.07-.75,.11c-.62,1.27-1.44,2.56-2.48,3.88-1.04,1.32-2.2,2.56-3.49,3.73-1.29,1.17-2.62,2.17-4.01,3l-.29-.29c.9-.72,1.77-1.55,2.61-2.48,.84-.93,1.64-1.91,2.39-2.94,.75-1.03,1.4-2.07,1.97-3.11s1-2.04,1.32-2.97h-.32Zm1.45,0v.77h-8.87l-.24-.77h9.11Zm-6.1-5.17c1.02,.21,1.83,.49,2.44,.84,.61,.35,1.05,.73,1.33,1.12,.28,.4,.43,.77,.45,1.13,.02,.36-.06,.66-.24,.91-.18,.25-.41,.4-.71,.45s-.63-.04-1-.29c-.11-.46-.29-.93-.55-1.42-.26-.49-.57-.96-.92-1.41-.35-.45-.7-.84-1.03-1.17l.24-.16Zm3.41,23.64c0,.05-.08,.14-.22,.25-.15,.11-.35,.22-.61,.32-.25,.1-.56,.15-.91,.15h-.37v-11.8l2.11-1.82v12.9Zm-.26-11.5c1.14,.26,2.08,.59,2.8,.98,.72,.39,1.26,.79,1.62,1.2,.36,.41,.58,.8,.66,1.16s.05,.67-.08,.92c-.13,.25-.34,.4-.62,.45-.28,.04-.6-.04-.95-.25-.19-.47-.5-.97-.91-1.48-.41-.51-.87-1.01-1.36-1.49-.49-.48-.96-.9-1.4-1.25l.24-.24Zm5.76-1.29c-.09,.11-.22,.18-.41,.22-.19,.04-.39,.02-.62-.07-.48,.42-.99,.84-1.56,1.24-.56,.4-1.14,.74-1.72,1l-.32-.34c.42-.42,.86-.96,1.32-1.61,.46-.65,.88-1.35,1.27-2.08l2.03,1.64Zm5.25-7.6c-.11,2.15-.26,4.14-.45,5.99-.19,1.85-.48,3.54-.85,5.07-.37,1.53-.88,2.92-1.53,4.17-.65,1.25-1.49,2.36-2.52,3.33-1.03,.97-2.3,1.81-3.81,2.53l-.32-.4c1.5-.93,2.7-2.08,3.6-3.43,.91-1.35,1.6-2.91,2.09-4.66,.48-1.75,.83-3.68,1.04-5.79,.21-2.11,.36-4.38,.45-6.81h2.3Zm5.57-.13v.77h-12.38l-.24-.77h12.62Zm-1.43,0l1.24-1.35,2.24,1.95c-.19,.23-.58,.38-1.16,.45-.04,2.25-.09,4.29-.16,6.11-.07,1.82-.15,3.43-.25,4.84-.1,1.41-.22,2.63-.37,3.67s-.33,1.89-.53,2.55c-.2,.66-.44,1.16-.73,1.49-.41,.47-.88,.82-1.43,1.04-.55,.22-1.15,.33-1.82,.33,0-.35-.03-.66-.08-.92s-.16-.48-.32-.63c-.21-.19-.54-.37-.99-.51-.45-.15-.93-.28-1.44-.38v-.45c.37,.04,.77,.08,1.21,.12,.44,.04,.86,.08,1.25,.11s.69,.04,.88,.04c.26,0,.47-.02,.61-.07,.14-.04,.28-.15,.42-.3,.37-.37,.66-1.31,.88-2.82,.22-1.51,.4-3.55,.53-6.12s.22-5.61,.28-9.13h-.29Z" fill="#fff"/>
          <path d="M612,513.42c.44,1.55,.65,2.94,.63,4.18s-.16,2.3-.44,3.18c-.27,.88-.59,1.58-.94,2.08-.23,.35-.5,.62-.81,.82-.31,.19-.61,.29-.91,.3-.3,0-.55-.08-.77-.25-.25-.26-.34-.57-.29-.91,.05-.34,.2-.66,.45-.96,.48-.46,.91-1.12,1.31-1.99s.72-1.86,.96-2.98,.36-2.27,.34-3.47h.45Zm6.18-2.96c-.02,.18-.09,.33-.22,.45-.13,.12-.36,.2-.67,.24v14.38c0,.33,.11,.57,.32,.71,.21,.14,.66,.21,1.35,.21h3.59c.79,0,1.47,0,2.02-.03,.55-.02,.96-.04,1.23-.08,.23-.02,.4-.06,.5-.12,.11-.06,.19-.16,.26-.3,.14-.28,.31-.82,.5-1.61,.19-.79,.4-1.71,.63-2.77h.32l.08,4.57c.39,.14,.64,.28,.77,.41,.12,.13,.19,.31,.19,.54,0,.26-.09,.49-.28,.69-.19,.19-.52,.35-.99,.46s-1.14,.2-2.01,.25c-.86,.05-1.97,.08-3.33,.08h-3.72c-.9,0-1.61-.07-2.13-.2-.52-.13-.88-.38-1.1-.74-.21-.36-.32-.87-.32-1.52v-15.96l3.01,.34Zm.74-4.83c1.32,.62,2.38,1.26,3.19,1.94,.81,.68,1.42,1.34,1.82,1.99,.4,.65,.65,1.24,.73,1.75,.08,.52,.04,.95-.12,1.28-.16,.33-.4,.53-.74,.59s-.7-.06-1.11-.36c-.18-.76-.49-1.56-.94-2.4s-.95-1.67-1.5-2.48c-.55-.81-1.1-1.52-1.62-2.14l.29-.18Zm8.61,8.21c1.11,.77,2.02,1.55,2.73,2.32s1.27,1.53,1.66,2.26c.4,.73,.66,1.41,.79,2.04,.13,.63,.16,1.18,.09,1.65-.07,.47-.21,.83-.42,1.09-.21,.26-.46,.39-.74,.38-.28,0-.56-.17-.85-.49-.11-.81-.29-1.75-.57-2.81-.27-1.06-.65-2.15-1.12-3.25-.48-1.1-1.09-2.09-1.85-2.97l.26-.24Z" fill="#fff"/>
        </g>
        <path d="M594.2,448.84c.7-1.73,1.68-3.23,2.95-4.51,1.27-1.28,2.76-2.28,4.48-3.01,1.72-.73,3.58-1.09,5.58-1.09s3.9,.36,5.6,1.09,3.19,1.73,4.46,3.01c1.27,1.28,2.25,2.78,2.95,4.51,.7,1.73,1.05,3.61,1.05,5.64s-.35,3.88-1.05,5.62c-.7,1.74-1.68,3.25-2.95,4.53-1.27,1.28-2.75,2.28-4.46,3.01s-3.57,1.09-5.6,1.09-3.87-.36-5.58-1.09c-1.72-.73-3.21-1.73-4.48-3.01-1.27-1.28-2.25-2.79-2.95-4.53-.7-1.74-1.05-3.62-1.05-5.62s.35-3.91,1.05-5.64Zm3.88,11.22c.91,1.64,2.16,2.93,3.74,3.88s3.38,1.42,5.39,1.42,3.83-.47,5.41-1.42c1.57-.95,2.81-2.24,3.72-3.88,.91-1.64,1.37-3.5,1.37-5.58s-.46-3.95-1.37-5.58c-.91-1.64-2.15-2.93-3.72-3.88-1.57-.95-3.37-1.42-5.41-1.42s-3.8,.48-5.39,1.42c-1.58,.95-2.83,2.24-3.74,3.88-.91,1.64-1.37,3.5-1.37,5.58s.46,3.95,1.37,5.58Z" fill="#c7b299"/>
        <g>
          <path d="M578.84,485.12c.35-.86,.84-1.62,1.48-2.26,.63-.64,1.38-1.14,2.24-1.5,.86-.36,1.79-.54,2.79-.54s1.95,.18,2.8,.54c.85,.36,1.59,.86,2.23,1.5,.63,.64,1.13,1.39,1.48,2.26,.35,.86,.52,1.8,.52,2.82s-.17,1.94-.52,2.81c-.35,.87-.84,1.63-1.48,2.27-.63,.64-1.38,1.14-2.23,1.5-.85,.36-1.79,.54-2.8,.54s-1.93-.18-2.79-.54c-.86-.36-1.6-.86-2.24-1.5-.63-.64-1.13-1.4-1.48-2.27-.35-.87-.52-1.81-.52-2.81s.17-1.96,.52-2.82Zm1.94,5.61c.46,.82,1.08,1.46,1.87,1.94,.79,.48,1.69,.71,2.69,.71s1.92-.24,2.7-.71c.79-.47,1.41-1.12,1.86-1.94,.46-.82,.68-1.75,.68-2.79s-.23-1.97-.68-2.79c-.46-.82-1.08-1.46-1.86-1.94-.79-.47-1.69-.71-2.7-.71s-1.9,.24-2.69,.71c-.79,.48-1.42,1.12-1.87,1.94-.46,.82-.68,1.75-.68,2.79s.23,1.97,.68,2.79Z" fill="#c7b299"/>
          <path d="M597.23,494.87h-1.58v-9.1h1.58v9.1Zm2.18-7.71c-.17-.07-.39-.11-.65-.11-.4,0-.71,.1-.93,.3-.22,.2-.38,.47-.47,.81s-.13,.73-.13,1.17h-.71c0-.72,.13-1.37,.39-1.93,.26-.56,.59-1.01,1-1.33,.41-.33,.82-.5,1.25-.5,.33,0,.64,.04,.92,.13s.54,.25,.78,.5l-.87,1.31c-.21-.16-.4-.27-.57-.35Z" fill="#c7b299"/>
          <path d="M603.75,481.23c.22-.21,.47-.32,.76-.32s.56,.11,.77,.32c.21,.21,.32,.47,.32,.77s-.11,.54-.32,.76c-.21,.22-.47,.33-.77,.33s-.54-.11-.76-.33-.33-.47-.33-.76,.11-.56,.33-.77Zm1.55,4.53v9.1h-1.58v-9.1h1.58Z" fill="#c7b299"/>
          <path d="M609.39,487.78c.41-.71,.96-1.25,1.64-1.63s1.44-.57,2.26-.57c.77,0,1.43,.19,2,.57,.57,.38,1.01,.93,1.34,1.63,.32,.71,.48,1.55,.48,2.54s-.16,1.82-.48,2.53c-.32,.71-.77,1.26-1.34,1.64-.57,.38-1.23,.57-2,.57-.82,0-1.57-.19-2.26-.57s-1.23-.93-1.64-1.64c-.41-.71-.61-1.56-.61-2.53s.2-1.84,.61-2.54Zm1.17,7.69c0,.44,.12,.84,.36,1.22,.24,.38,.57,.68,1.01,.91,.44,.23,.95,.35,1.54,.35,.46,0,.92-.11,1.37-.34,.45-.22,.82-.58,1.12-1.06,.3-.48,.45-1.11,.45-1.87v-8.91h1.58v8.91c0,1.04-.22,1.92-.65,2.62-.44,.71-1,1.24-1.68,1.59s-1.41,.53-2.18,.53c-.88,0-1.67-.17-2.35-.49-.68-.33-1.21-.8-1.59-1.4-.38-.6-.57-1.29-.57-2.07h1.6Zm.25-3.36c.28,.49,.66,.86,1.14,1.11,.48,.25,.99,.38,1.54,.38,.46,0,.92-.13,1.37-.38,.45-.25,.82-.62,1.11-1.11s.44-1.08,.44-1.78c0-.53-.09-.99-.26-1.4s-.4-.74-.68-1.02c-.28-.28-.6-.49-.94-.63s-.69-.22-1.03-.22c-.55,0-1.07,.12-1.54,.38s-.85,.62-1.14,1.11c-.28,.49-.43,1.08-.43,1.78s.14,1.29,.43,1.78Z" fill="#c7b299"/>
          <path d="M622.17,481.23c.22-.21,.47-.32,.76-.32s.56,.11,.77,.32c.21,.21,.32,.47,.32,.77s-.11,.54-.32,.76c-.21,.22-.47,.33-.77,.33s-.54-.11-.76-.33-.33-.47-.33-.76,.11-.56,.33-.77Zm1.55,4.53v9.1h-1.58v-9.1h1.58Z" fill="#c7b299"/>
          <path d="M633.33,487.63c-.33-.38-.81-.57-1.45-.57-.46,0-.87,.1-1.22,.29-.35,.19-.62,.46-.81,.8-.19,.34-.29,.74-.29,1.19v5.54h-1.58v-9.1h1.58v1.42c.3-.55,.68-.96,1.14-1.23,.46-.26,.98-.4,1.57-.4,.96,0,1.73,.32,2.29,.96,.56,.64,.84,1.51,.84,2.6v5.74h-1.58v-5.54c0-.75-.17-1.32-.5-1.7Z" fill="#c7b299"/>
        </g>
      </g>
      <g>
        <g>
          <path d="M101.63,508.59c.35,.26,.66,.51,.94,.73,.27,.22,.56,.46,.87,.71,.31,.25,.58,.5,.83,.73-.07,.28-.31,.42-.71,.42h-23.52l-.21-.76h20.33l1.48-1.82Zm-19.46,4.96v-.71l2.4,.98h-.37v6.28c0,.83-.04,1.68-.11,2.55-.07,.87-.23,1.73-.49,2.57-.26,.84-.65,1.65-1.19,2.43-.54,.77-1.27,1.48-2.2,2.11l-.34-.26c.72-.86,1.24-1.8,1.56-2.82,.32-1.02,.52-2.08,.61-3.19,.09-1.11,.13-2.23,.13-3.38v-6.54Zm7.81,4.25v.77h-6.86v-.77h6.86Zm0,4.2v.77h-6.86v-.77h6.86Zm-.24-8.18v.76h-6.47v-.76h6.47Zm-4.3-8.34c1.02,.23,1.84,.52,2.46,.88,.62,.36,1.06,.74,1.33,1.15,.27,.41,.42,.8,.44,1.17,.02,.38-.07,.69-.25,.94-.19,.25-.43,.39-.74,.44-.31,.04-.65-.06-1.02-.3-.07-.47-.23-.96-.49-1.46-.26-.5-.56-.98-.91-1.44-.35-.46-.71-.84-1.08-1.16l.26-.21Zm3.19,8.34l1-1.21,2.43,1.85c-.07,.09-.21,.18-.42,.29-.21,.11-.45,.18-.71,.21v12.03c0,.51-.06,.95-.19,1.31s-.37,.65-.74,.87c-.37,.22-.96,.36-1.77,.44-.02-.32-.06-.59-.12-.82-.06-.23-.16-.42-.3-.58-.14-.14-.34-.27-.59-.4-.26-.12-.61-.22-1.07-.29v-.37c.37,.02,.69,.04,.95,.05,.26,.02,.52,.04,.77,.05,.25,.02,.43,.03,.55,.03,.19,0,.32-.04,.38-.13,.06-.09,.09-.21,.09-.37v-12.96h-.26Zm10.85-7.5c-.05,.14-.16,.26-.32,.36-.16,.1-.4,.14-.71,.12-.33,.42-.75,.88-1.24,1.36-.49,.48-1.01,.97-1.54,1.45-.54,.48-1.07,.92-1.6,1.31h-.48c.32-.51,.64-1.09,.96-1.73,.33-.64,.64-1.3,.94-1.97,.3-.67,.55-1.28,.74-1.82l3.25,.92Zm-2.35,7.55c-.02,.18-.1,.33-.24,.46-.14,.13-.39,.21-.74,.25v10.13c0,.05-.08,.13-.24,.22-.16,.1-.36,.18-.61,.25-.25,.07-.5,.11-.77,.11h-.37v-11.74l2.96,.32Zm5.49-.74c-.02,.18-.1,.33-.25,.45-.15,.12-.37,.2-.67,.24v13.17c0,.53-.07,.98-.21,1.36-.14,.38-.43,.68-.86,.91-.43,.23-1.1,.39-2.02,.48-.04-.3-.1-.57-.19-.8-.09-.24-.23-.45-.42-.62-.21-.16-.49-.3-.84-.42-.35-.12-.84-.22-1.45-.29v-.4c.58,.04,1.07,.07,1.47,.09s.77,.05,1.14,.07c.36,.02,.6,.03,.73,.03,.25,0,.41-.04,.49-.12s.12-.21,.12-.41v-14.04l2.98,.32Z" fill="#fff"/>
          <path d="M114.25,527.73c0,.07-.07,.16-.2,.28-.13,.11-.31,.21-.54,.3-.23,.09-.49,.13-.79,.13h-.34v-21.4l2.01,.95h3.88v.76h-4.01v18.97Zm4.07-8.95v.76h-4.94v-.76h4.94Zm.05-5.59v.79h-4.96v-.79h4.96Zm0,11.27v.77h-4.94v-.77h4.94Zm-1.56-16.47l1.06-1.16,2.17,1.74c-.07,.11-.2,.2-.4,.29-.19,.09-.42,.16-.69,.21v17.39c0,.05-.09,.14-.26,.25-.18,.11-.38,.22-.62,.3-.24,.09-.47,.13-.7,.13h-.29v-19.16h-.26Zm6.05,8.58c0,1.21-.05,2.43-.16,3.65-.11,1.22-.3,2.41-.59,3.56-.29,1.15-.71,2.24-1.27,3.26-.55,1.02-1.29,1.93-2.2,2.74l-.37-.26c.76-1.14,1.33-2.4,1.72-3.76,.39-1.36,.64-2.78,.77-4.26,.12-1.48,.18-2.96,.18-4.46v-5.22l1.27-1.48,.98,.5h-.32v5.73Zm4.41-10.42c-.05,.12-.15,.21-.29,.26-.14,.05-.38,.06-.71,.03-.49,.9-1.11,1.81-1.85,2.73-.74,.92-1.56,1.8-2.46,2.63s-1.83,1.53-2.8,2.11l-.29-.29c.74-.65,1.46-1.44,2.17-2.36,.7-.92,1.34-1.9,1.9-2.93,.56-1.03,1.02-2.02,1.37-2.97l2.96,.79Zm6.6,3.22c.48,.39,.88,.72,1.21,1,.33,.28,.63,.55,.9,.82-.07,.28-.29,.42-.66,.42h-13.1v-.77h10.51l1.14-1.48Zm.05,5.91c.44,.35,.81,.65,1.1,.9,.29,.25,.55,.48,.78,.71-.05,.28-.27,.42-.66,.42h-12.41l-.21-.77h10.4l1-1.27Zm-6.36-4.09c-.05,.65-.18,1.28-.4,1.87-.21,.6-.61,1.14-1.2,1.64-.59,.49-1.49,.92-2.71,1.29l-.32-.37c.83-.42,1.43-.87,1.82-1.35,.39-.47,.63-.97,.74-1.48,.11-.51,.17-1.05,.18-1.61h1.87Zm5.12,6.54c.4,.32,.75,.59,1.04,.82s.56,.46,.81,.69c-.07,.28-.3,.42-.69,.42h-9.79l-.21-.76h7.87l.98-1.16Zm-6.94,11.35c0,.07-.08,.15-.24,.24-.16,.09-.35,.17-.58,.25-.23,.08-.48,.12-.74,.12h-.29v-6.81l1.98,.87h7.23v.76h-7.37v4.57Zm6.97-8.95c.4,.32,.75,.59,1.04,.82s.55,.46,.78,.69c-.07,.28-.3,.42-.69,.42h-9.69l-.21-.76h7.79l.98-1.16Zm-2.59-12.4v.76h-6.05l.34-.76h5.7Zm2.83,19.74v.79h-8.08v-.79h8.08Zm-5.81-13.7c.67,.12,1.19,.3,1.57,.53s.65,.48,.81,.75c.16,.27,.22,.54,.2,.79s-.11,.47-.25,.65c-.14,.18-.32,.27-.53,.29s-.43-.07-.66-.26c-.11-.35-.27-.77-.49-1.25-.22-.48-.52-.89-.91-1.23l.26-.26Zm1.77-6.04l1.11-1.13,2.01,1.85c-.09,.11-.22,.17-.38,.2-.17,.03-.38,.05-.65,.07-.41,.39-.91,.85-1.51,1.39-.6,.54-1.18,.97-1.74,1.31h-.48c.25-.33,.49-.73,.74-1.19,.25-.46,.48-.91,.69-1.36,.21-.45,.38-.82,.5-1.12h-.29Zm2.53,3.4v2.01c0,.12,.02,.21,.07,.26,.04,.05,.16,.08,.36,.08h1.4c.14,0,.25,0,.34-.03h.34c.05-.02,.12-.04,.2-.05,.08-.02,.15-.04,.22-.05h.21l.11,.03c.25,.07,.43,.15,.54,.22,.11,.08,.17,.2,.17,.36,0,.33-.19,.56-.58,.69-.39,.12-1.14,.18-2.24,.18h-1.21c-.44,0-.77-.05-1-.14-.23-.1-.38-.25-.45-.45-.07-.2-.11-.46-.11-.78v-2.32h1.64Zm.34,12.61l.92-1,2.03,1.56c-.07,.07-.18,.15-.33,.22-.15,.08-.33,.14-.54,.17v4.25c0,.05-.09,.12-.26,.21-.18,.09-.39,.17-.63,.25-.25,.08-.47,.12-.66,.12h-.32v-5.78h-.21Z" fill="#fff"/>
        </g>
        <path d="M105.6,457.89l-.32,.71-4.12,9.74h-3.76l12.87-29.09,12.87,29.09h-3.76l-4.04-9.5-.32-.79-4.75-11.16-4.67,11Zm-1.39-1.03h12.28l1.19,3.17h-14.65l1.19-3.17Z" fill="#c7b299"/>
        <g>
          <path d="M75.18,489.65l-.16,.36-2.06,4.87h-1.88l6.44-14.55,6.44,14.55h-1.88l-2.02-4.75-.16-.4-2.38-5.58-2.34,5.5Zm-.69-.51h6.14l.59,1.58h-7.33l.59-1.58Z" fill="#c7b299"/>
          <path d="M86.35,487.78c.41-.71,.96-1.25,1.64-1.63s1.44-.57,2.26-.57c.77,0,1.43,.19,2,.57,.57,.38,1.01,.93,1.34,1.63,.32,.71,.48,1.55,.48,2.54s-.16,1.82-.48,2.53c-.32,.71-.77,1.26-1.34,1.64-.57,.38-1.23,.57-2,.57-.82,0-1.57-.19-2.26-.57s-1.23-.93-1.64-1.64c-.41-.71-.61-1.56-.61-2.53s.2-1.84,.61-2.54Zm1.42,4.32c.28,.49,.66,.86,1.14,1.11,.48,.25,.99,.38,1.54,.38,.46,0,.92-.13,1.37-.38,.45-.25,.82-.62,1.11-1.11s.44-1.08,.44-1.78-.15-1.29-.44-1.78-.66-.86-1.11-1.11-.9-.38-1.37-.38c-.55,0-1.07,.12-1.54,.38s-.85,.62-1.14,1.11c-.28,.49-.43,1.08-.43,1.78s.14,1.29,.43,1.78Zm7.18-12.67v15.44h-1.58v-15.44h1.58Z" fill="#c7b299"/>
          <path d="M99.1,485.77l2.57,6.43,2.57-6.43h1.78l-4.36,9.8-4.36-9.8h1.78Z" fill="#c7b299"/>
          <path d="M109.46,492.95c.17,.25,.4,.44,.69,.56,.3,.12,.64,.19,1.02,.19,.49,0,.93-.1,1.32-.3,.39-.2,.7-.48,.93-.84,.23-.36,.35-.78,.35-1.26l.32,1.19c0,.58-.18,1.06-.52,1.44-.35,.38-.78,.67-1.29,.85-.51,.18-1.01,.28-1.51,.28-.55,0-1.07-.12-1.55-.35s-.87-.56-1.16-1c-.29-.44-.44-.96-.44-1.58,0-.88,.31-1.59,.94-2.13,.63-.54,1.5-.8,2.62-.8,.66,0,1.21,.08,1.65,.23s.8,.32,1.06,.51,.44,.35,.53,.46v.93c-.46-.32-.94-.54-1.43-.68-.49-.14-1.01-.21-1.56-.21-.51,0-.93,.07-1.26,.2s-.56,.32-.72,.55c-.16,.24-.24,.52-.24,.85s.08,.64,.25,.89Zm-1.26-6.25c.34-.25,.81-.5,1.42-.75,.6-.25,1.32-.38,2.17-.38,.71,0,1.34,.11,1.87,.33s.95,.53,1.25,.94c.3,.41,.45,.91,.45,1.5v6.53h-1.58v-6.31c0-.32-.05-.58-.16-.78-.11-.21-.25-.37-.45-.49s-.41-.2-.66-.26-.51-.08-.79-.08c-.45,0-.85,.05-1.22,.16-.36,.11-.67,.23-.92,.38-.25,.15-.45,.27-.59,.38l-.77-1.17Z" fill="#c7b299"/>
          <path d="M124.36,487.63c-.33-.38-.81-.57-1.45-.57-.46,0-.87,.1-1.22,.29-.35,.19-.62,.46-.81,.8-.19,.34-.29,.74-.29,1.19v5.54h-1.58v-9.1h1.58v1.42c.3-.55,.68-.96,1.14-1.23,.46-.26,.98-.4,1.57-.4,.96,0,1.73,.32,2.29,.96,.56,.64,.84,1.51,.84,2.6v5.74h-1.58v-5.54c0-.75-.17-1.32-.5-1.7Z" fill="#c7b299"/>
          <path d="M131.52,492c.27,.49,.64,.88,1.11,1.16,.47,.28,1,.43,1.59,.43,.49,0,.95-.08,1.38-.23,.43-.15,.8-.36,1.12-.61,.32-.26,.54-.53,.67-.82v1.98c-.32,.37-.77,.66-1.36,.86-.59,.2-1.19,.31-1.81,.31-.88,0-1.68-.21-2.4-.61-.71-.41-1.28-.97-1.69-1.69-.42-.72-.62-1.53-.62-2.44s.21-1.74,.62-2.45c.42-.71,.98-1.27,1.69-1.68s1.51-.61,2.4-.61c.62,0,1.22,.1,1.81,.31,.59,.21,1.04,.49,1.36,.86v1.98c-.13-.3-.36-.58-.67-.83-.32-.25-.69-.45-1.12-.6-.43-.15-.89-.23-1.38-.23-.59,0-1.13,.14-1.59,.42-.47,.28-.84,.66-1.11,1.16-.27,.5-.41,1.06-.41,1.69s.14,1.19,.41,1.68Z" fill="#c7b299"/>
          <path d="M142.14,494.46c-.65-.4-1.16-.96-1.52-1.67-.36-.71-.54-1.54-.54-2.47s.19-1.78,.56-2.49c.38-.71,.9-1.27,1.58-1.66,.68-.4,1.47-.59,2.37-.59s1.67,.19,2.31,.56c.64,.38,1.13,.91,1.48,1.61s.52,1.53,.52,2.49c0,.09,0,.19-.01,.29,0,.1,0,.16,0,.19h-7.78v-1.35h6.53l-.63,.91c.04-.07,.08-.17,.12-.31s.06-.25,.06-.35c0-.54-.11-1.01-.33-1.4-.22-.4-.52-.71-.9-.93s-.83-.34-1.35-.34c-.61,0-1.13,.13-1.55,.39-.43,.26-.76,.63-.99,1.11s-.35,1.07-.37,1.77c0,.71,.11,1.32,.34,1.82,.22,.5,.55,.88,.99,1.15,.44,.26,.96,.4,1.58,.4s1.17-.14,1.64-.41c.48-.27,.88-.68,1.21-1.24l1.29,.81c-.48,.76-1.07,1.34-1.79,1.73-.72,.39-1.57,.58-2.54,.58-.84,0-1.59-.2-2.25-.6Z" fill="#c7b299"/>
        </g>
      </g>
      <g>
        <g>
          <path d="M595.93,301c.39,.95,.58,1.8,.59,2.56,0,.76-.08,1.39-.28,1.91-.19,.52-.47,.92-.82,1.2-.21,.18-.46,.29-.74,.34-.28,.05-.55,.04-.79-.05-.25-.09-.43-.25-.55-.5-.14-.33-.13-.66,.03-.96,.16-.31,.4-.55,.71-.73,.3-.21,.57-.51,.82-.9,.25-.39,.43-.83,.54-1.33,.11-.5,.14-1.02,.07-1.54h.42Zm18.59,6.83c.35,.26,.66,.5,.94,.71s.55,.44,.85,.67c.29,.24,.56,.47,.81,.7-.05,.28-.29,.42-.71,.42h-22.68l-.24-.77h19.67l1.37-1.74Zm-2.24-.82c-.05,.21-.17,.36-.36,.45-.19,.09-.41,.13-.67,.13-.19,1.55-.5,2.99-.91,4.33-.41,1.34-1.02,2.56-1.82,3.68-.8,1.12-1.84,2.12-3.12,3.01-1.28,.89-2.86,1.66-4.75,2.31-1.89,.65-4.15,1.17-6.77,1.56l-.16-.37c2.41-.56,4.47-1.23,6.18-1.99,1.71-.76,3.12-1.63,4.25-2.59,1.13-.96,2.02-2.02,2.68-3.18s1.15-2.41,1.47-3.76c.32-1.35,.52-2.77,.61-4.29l3.38,.71Zm2.88-4.59v.77h-19.43v-.77h19.43Zm-18.03,13.3c.32-.54,.67-1.21,1.06-1.99,.39-.78,.78-1.62,1.19-2.51,.4-.89,.79-1.78,1.16-2.68,.37-.9,.7-1.73,.99-2.49,.29-.77,.51-1.41,.67-1.94l3.22,1.05c-.07,.16-.21,.29-.41,.38-.2,.1-.57,.11-1.1,.04l.53-.34c-.25,.6-.57,1.34-.96,2.23s-.84,1.84-1.33,2.86-.99,2.02-1.5,3c-.51,.98-.99,1.85-1.43,2.62l-2.09-.24Zm.71-.45c2.57,.42,4.78,.86,6.64,1.32,1.86,.46,3.41,.92,4.66,1.39,1.25,.47,2.24,.92,2.97,1.36,.73,.44,1.26,.85,1.58,1.23,.33,.38,.49,.71,.5,1,0,.29-.1,.51-.32,.67-.22,.16-.49,.24-.82,.25s-.66-.08-1.02-.28c-.99-.72-2.22-1.46-3.7-2.22-1.48-.76-3.16-1.5-5.06-2.22-1.89-.72-3.95-1.41-6.17-2.06l.71-.45Zm5.28-17.23c1.04,.19,1.86,.46,2.47,.79,.61,.33,1.04,.7,1.29,1.1,.25,.4,.37,.77,.36,1.13s-.14,.66-.36,.9c-.22,.24-.49,.37-.82,.38s-.68-.11-1.07-.4c-.05-.44-.18-.89-.4-1.35-.21-.46-.47-.89-.77-1.31-.3-.41-.62-.76-.95-1.04l.24-.21Zm10.51,4.38l1.32-1.32,2.3,2.24c-.09,.09-.21,.15-.37,.17-.16,.03-.37,.05-.63,.07-.25,.3-.54,.62-.88,.98-.34,.35-.7,.69-1.07,1.02-.37,.33-.72,.61-1.06,.86l-.29-.19c.12-.35,.25-.76,.37-1.23,.12-.47,.24-.93,.36-1.4,.11-.47,.2-.87,.25-1.2h-.29Z" fill="#fff"/>
          <path d="M628.27,306.2c.44,1.55,.65,2.94,.63,4.18s-.16,2.3-.44,3.18c-.27,.88-.59,1.58-.94,2.08-.23,.35-.5,.62-.81,.82-.31,.19-.61,.29-.91,.3-.3,0-.55-.08-.77-.25-.25-.26-.34-.57-.29-.91,.05-.34,.2-.66,.45-.96,.48-.46,.91-1.12,1.31-1.99s.72-1.86,.96-2.98,.36-2.27,.34-3.47h.45Zm6.18-2.96c-.02,.18-.09,.33-.22,.45-.13,.12-.36,.2-.67,.24v14.38c0,.33,.11,.57,.32,.71,.21,.14,.66,.21,1.35,.21h3.59c.79,0,1.47,0,2.02-.03,.55-.02,.96-.04,1.23-.08,.23-.02,.4-.06,.5-.12,.11-.06,.19-.16,.26-.3,.14-.28,.31-.82,.5-1.61,.19-.79,.4-1.71,.63-2.77h.32l.08,4.57c.39,.14,.64,.28,.77,.41,.12,.13,.19,.31,.19,.54,0,.26-.09,.49-.28,.69-.19,.19-.52,.35-.99,.46s-1.14,.2-2.01,.25c-.86,.05-1.97,.08-3.33,.08h-3.72c-.9,0-1.61-.07-2.13-.2-.52-.13-.88-.38-1.1-.74-.21-.36-.32-.87-.32-1.52v-15.96l3.01,.34Zm.74-4.83c1.32,.62,2.38,1.26,3.19,1.94,.81,.68,1.42,1.34,1.82,1.99,.4,.65,.65,1.24,.73,1.75,.08,.52,.04,.95-.12,1.28-.16,.33-.4,.53-.74,.59s-.7-.06-1.11-.36c-.18-.76-.49-1.56-.94-2.4s-.95-1.67-1.5-2.48c-.55-.81-1.1-1.52-1.62-2.14l.29-.18Zm8.61,8.21c1.11,.77,2.02,1.55,2.73,2.32s1.27,1.53,1.66,2.26c.4,.73,.66,1.41,.79,2.04,.13,.63,.16,1.18,.09,1.65-.07,.47-.21,.83-.42,1.09-.21,.26-.46,.39-.74,.38-.28,0-.56-.17-.85-.49-.11-.81-.29-1.75-.57-2.81-.27-1.06-.65-2.15-1.12-3.25-.48-1.1-1.09-2.09-1.85-2.97l.26-.24Z" fill="#fff"/>
        </g>
        <path d="M618.8,250.67l-.32,.71-4.12,9.74h-3.76l12.87-29.09,12.87,29.09h-3.76l-4.04-9.5-.32-.79-4.75-11.16-4.67,11Zm-1.39-1.03h12.28l1.19,3.17h-14.65l1.19-3.17Z" fill="#c7b299"/>
        <g>
          <path d="M580.81,282.42l-.16,.36-2.06,4.87h-1.88l6.44-14.55,6.44,14.55h-1.88l-2.02-4.75-.16-.4-2.38-5.58-2.34,5.5Zm-.69-.51h6.14l.59,1.58h-7.33l.59-1.58Z" fill="#c7b299"/>
          <path d="M593.17,285.63c.24,.24,.51,.43,.82,.56,.31,.14,.65,.21,1.02,.21,.45,0,.8-.1,1.06-.31,.26-.2,.39-.48,.39-.84,0-.32-.1-.58-.31-.8s-.47-.4-.78-.55c-.32-.15-.65-.29-1.01-.43-.4-.16-.8-.35-1.2-.56s-.74-.5-1.01-.85-.41-.79-.41-1.32,.14-.99,.43-1.35c.28-.36,.65-.62,1.11-.79,.46-.17,.93-.26,1.42-.26s.95,.08,1.38,.24c.43,.16,.81,.37,1.14,.63,.33,.26,.59,.57,.77,.91l-1.27,.81c-.25-.34-.56-.63-.94-.85-.38-.22-.8-.34-1.28-.34-.33,0-.61,.07-.85,.22s-.36,.37-.36,.67c0,.24,.09,.45,.28,.63,.18,.19,.42,.35,.71,.5,.29,.15,.59,.28,.91,.42,.53,.21,1.01,.44,1.45,.68,.44,.24,.78,.54,1.04,.88,.26,.34,.39,.79,.39,1.33,0,.79-.29,1.45-.86,1.98-.57,.53-1.33,.79-2.27,.79-.61,0-1.16-.11-1.64-.33s-.9-.5-1.24-.84c-.34-.34-.59-.69-.76-1.05l1.25-.77c.18,.28,.4,.54,.63,.77Z" fill="#c7b299"/>
          <path d="M602.14,285.63c.24,.24,.51,.43,.82,.56,.31,.14,.65,.21,1.02,.21,.45,0,.8-.1,1.06-.31,.26-.2,.39-.48,.39-.84,0-.32-.1-.58-.31-.8s-.47-.4-.78-.55c-.32-.15-.65-.29-1.01-.43-.4-.16-.8-.35-1.2-.56s-.74-.5-1.01-.85-.41-.79-.41-1.32,.14-.99,.43-1.35c.28-.36,.65-.62,1.11-.79,.46-.17,.93-.26,1.42-.26s.95,.08,1.38,.24c.43,.16,.81,.37,1.14,.63,.33,.26,.59,.57,.77,.91l-1.27,.81c-.25-.34-.56-.63-.94-.85-.38-.22-.8-.34-1.28-.34-.33,0-.61,.07-.85,.22s-.36,.37-.36,.67c0,.24,.09,.45,.28,.63,.18,.19,.42,.35,.71,.5,.29,.15,.59,.28,.91,.42,.53,.21,1.01,.44,1.45,.68,.44,.24,.78,.54,1.04,.88,.26,.34,.39,.79,.39,1.33,0,.79-.29,1.45-.86,1.98-.57,.53-1.33,.79-2.27,.79-.61,0-1.16-.11-1.64-.33s-.9-.5-1.24-.84c-.34-.34-.59-.69-.76-1.05l1.25-.77c.18,.28,.4,.54,.63,.77Z" fill="#c7b299"/>
          <path d="M612.18,285.77c.33,.4,.81,.59,1.45,.59,.46,0,.87-.1,1.22-.29,.35-.19,.62-.46,.81-.8,.19-.34,.29-.74,.29-1.19v-5.54h1.58v9.1h-1.58v-1.42c-.3,.54-.68,.95-1.13,1.22s-.98,.41-1.58,.41c-.95,0-1.71-.32-2.28-.97s-.85-1.51-.85-2.59v-5.74h1.58v5.54c0,.73,.17,1.29,.5,1.68Z" fill="#c7b299"/>
          <path d="M623.07,287.65h-1.58v-9.1h1.58v9.1Zm2.18-7.71c-.17-.07-.39-.11-.65-.11-.4,0-.71,.1-.93,.3-.22,.2-.38,.47-.47,.81s-.13,.73-.13,1.17h-.71c0-.72,.13-1.37,.39-1.93,.26-.56,.59-1.01,1-1.33,.41-.33,.82-.5,1.25-.5,.33,0,.64,.04,.92,.13s.54,.25,.78,.5l-.87,1.31c-.21-.16-.4-.27-.57-.35Z" fill="#c7b299"/>
          <path d="M630.23,285.73c.17,.25,.4,.44,.69,.56,.3,.12,.64,.19,1.02,.19,.49,0,.93-.1,1.32-.3,.39-.2,.7-.48,.93-.84,.23-.36,.35-.78,.35-1.26l.32,1.19c0,.58-.18,1.06-.52,1.44-.35,.38-.78,.67-1.29,.85-.51,.18-1.01,.28-1.51,.28-.55,0-1.07-.12-1.55-.35s-.87-.56-1.16-1c-.29-.44-.44-.96-.44-1.58,0-.88,.31-1.59,.94-2.13,.63-.54,1.5-.8,2.62-.8,.66,0,1.21,.08,1.65,.23s.8,.32,1.06,.51,.44,.35,.53,.46v.93c-.46-.32-.94-.54-1.43-.68-.49-.14-1.01-.21-1.56-.21-.51,0-.93,.07-1.26,.2s-.56,.32-.72,.55c-.16,.24-.24,.52-.24,.85s.08,.64,.25,.89Zm-1.26-6.25c.34-.25,.81-.5,1.42-.75,.6-.25,1.32-.38,2.17-.38,.71,0,1.34,.11,1.87,.33s.95,.53,1.25,.94c.3,.41,.45,.91,.45,1.5v6.53h-1.58v-6.31c0-.32-.05-.58-.16-.78-.11-.21-.25-.37-.45-.49s-.41-.2-.66-.26-.51-.08-.79-.08c-.45,0-.85,.05-1.22,.16-.36,.11-.67,.23-.92,.38-.25,.15-.45,.27-.59,.38l-.77-1.17Z" fill="#c7b299"/>
          <path d="M645.13,280.4c-.33-.38-.81-.57-1.45-.57-.46,0-.87,.1-1.22,.29-.35,.19-.62,.46-.81,.8-.19,.34-.29,.74-.29,1.19v5.54h-1.58v-9.1h1.58v1.42c.3-.55,.68-.96,1.14-1.23,.46-.26,.98-.4,1.57-.4,.96,0,1.73,.32,2.29,.96,.56,.64,.84,1.51,.84,2.6v5.74h-1.58v-5.54c0-.75-.17-1.32-.5-1.7Z" fill="#c7b299"/>
          <path d="M652.29,284.78c.27,.49,.64,.88,1.11,1.16,.47,.28,1,.43,1.59,.43,.49,0,.95-.08,1.38-.23,.43-.15,.8-.36,1.12-.61,.32-.26,.54-.53,.67-.82v1.98c-.32,.37-.77,.66-1.36,.86-.59,.2-1.19,.31-1.81,.31-.88,0-1.68-.21-2.4-.61-.71-.41-1.28-.97-1.69-1.69-.42-.72-.62-1.53-.62-2.44s.21-1.74,.62-2.45c.42-.71,.98-1.27,1.69-1.68s1.51-.61,2.4-.61c.62,0,1.22,.1,1.81,.31,.59,.21,1.04,.49,1.36,.86v1.98c-.13-.3-.36-.58-.67-.83-.32-.25-.69-.45-1.12-.6-.43-.15-.89-.23-1.38-.23-.59,0-1.13,.14-1.59,.42-.47,.28-.84,.66-1.11,1.16-.27,.5-.41,1.06-.41,1.69s.14,1.19,.41,1.68Z" fill="#c7b299"/>
          <path d="M662.9,287.24c-.65-.4-1.16-.96-1.52-1.67-.36-.71-.54-1.54-.54-2.47s.19-1.78,.56-2.49c.38-.71,.9-1.27,1.58-1.66,.68-.4,1.47-.59,2.37-.59s1.67,.19,2.31,.56c.64,.38,1.13,.91,1.48,1.61s.52,1.53,.52,2.49c0,.09,0,.19-.01,.29,0,.1,0,.16,0,.19h-7.78v-1.35h6.53l-.63,.91c.04-.07,.08-.17,.12-.31s.06-.25,.06-.35c0-.54-.11-1.01-.33-1.4-.22-.4-.52-.71-.9-.93s-.83-.34-1.35-.34c-.61,0-1.13,.13-1.55,.39-.43,.26-.76,.63-.99,1.11s-.35,1.07-.37,1.77c0,.71,.11,1.32,.34,1.82,.22,.5,.55,.88,.99,1.15,.44,.26,.96,.4,1.58,.4s1.17-.14,1.64-.41c.48-.27,.88-.68,1.21-1.24l1.29,.81c-.48,.76-1.07,1.34-1.79,1.73-.72,.39-1.57,.58-2.54,.58-.84,0-1.59-.2-2.25-.6Z" fill="#c7b299"/>
        </g>
      </g>
      <g>
        <g>
          <path d="M68.11,298.18l3.25,.95c-.05,.16-.16,.29-.32,.4s-.39,.16-.69,.16c-.55,1.62-1.18,3.18-1.9,4.68-.72,1.5-1.5,2.9-2.35,4.18-.85,1.28-1.75,2.43-2.72,3.43l-.37-.24c.67-1.11,1.32-2.4,1.95-3.88,.63-1.48,1.22-3.04,1.77-4.7s1-3.32,1.37-4.99Zm-1.87,8l.9-1.19,1.95,.71c-.07,.26-.33,.43-.77,.5v15.65c-.02,.05-.11,.13-.29,.24-.18,.11-.39,.2-.63,.29-.25,.09-.51,.13-.79,.13h-.37v-16.33Zm3.56,9.16h14.47l1.29-1.58c.32,.25,.59,.47,.83,.66,.24,.19,.49,.41,.75,.63,.26,.23,.51,.45,.74,.66-.07,.26-.3,.4-.69,.4h-17.19l-.21-.76Zm.34-3.43c.84,0,2.01-.03,3.5-.08,1.49-.05,3.18-.12,5.07-.2,1.89-.08,3.87-.16,5.93-.25v.45c-1.57,.26-3.41,.55-5.52,.86-2.11,.31-4.59,.66-7.45,1.04-.07,.16-.18,.28-.32,.37-.14,.09-.27,.15-.4,.18l-.82-2.38Zm.21-10.98h13.39l1.37-1.69c.33,.26,.63,.5,.9,.7,.26,.2,.54,.42,.83,.66s.56,.47,.81,.7c-.04,.14-.11,.25-.24,.32s-.28,.11-.48,.11h-16.4l-.19-.79Zm1.29,2.48v-.95l2.24,.95h10.56v.77h-10.72v6.07c0,.05-.09,.13-.26,.24-.18,.11-.4,.2-.67,.28-.27,.08-.55,.12-.83,.12h-.32v-7.47Zm1.43,13.14c.92,.18,1.64,.41,2.18,.7s.92,.6,1.14,.94c.22,.33,.33,.65,.32,.95,0,.3-.1,.55-.28,.74-.18,.19-.41,.3-.69,.33-.28,.03-.59-.07-.92-.3-.12-.55-.39-1.11-.79-1.69-.41-.58-.8-1.07-1.19-1.48l.24-.18Zm-.03-10.5h11.56v.77h-11.56v-.77Zm0,2.67h11.56v.77h-11.56v-.77Zm7.37,4.25l2.96,.32c-.05,.35-.34,.57-.87,.66v5.99c0,.51-.07,.95-.2,1.32-.13,.37-.41,.66-.83,.87-.42,.21-1.07,.36-1.95,.45-.04-.28-.09-.54-.16-.78-.07-.24-.19-.43-.37-.57-.16-.16-.4-.29-.73-.4-.33-.11-.77-.19-1.33-.26v-.4c.49,.04,.92,.06,1.27,.08s.69,.04,1,.05,.54,.03,.66,.03c.21,0,.36-.04,.44-.11s.12-.18,.12-.34v-6.91Zm-2.85-14.72l3.06,.29c-.02,.18-.1,.33-.24,.46-.14,.13-.39,.22-.74,.28v13.01l-2.09,.13v-14.17Zm4.57,11.93c1.02,.09,1.86,.25,2.51,.5,.65,.25,1.16,.52,1.52,.83,.36,.31,.6,.62,.71,.94,.11,.32,.12,.59,.03,.83-.1,.24-.26,.4-.5,.49-.24,.09-.52,.07-.86-.05-.23-.39-.55-.79-.96-1.2-.41-.41-.85-.8-1.32-1.16s-.92-.66-1.36-.91l.24-.26Zm1.43-6.76h-.26l1.06-1.16,2.3,1.74c-.07,.09-.19,.18-.37,.28-.18,.1-.38,.16-.61,.2v5.36s-.13,.09-.33,.17c-.2,.08-.44,.15-.71,.21-.27,.06-.52,.09-.75,.09h-.32v-6.89Z" fill="#fff"/>
          <path d="M100.11,305.78l1.24-1.24,2.24,2.11c-.11,.09-.24,.16-.41,.21-.17,.05-.41,.09-.73,.11-.3,1.69-.76,3.33-1.37,4.91-.62,1.58-1.43,3.05-2.43,4.41s-2.23,2.55-3.67,3.59l-.32-.29c1.18-1.3,2.17-2.7,2.96-4.2s1.42-3.06,1.89-4.68c.47-1.63,.77-3.27,.91-4.92h-.32Zm1.43,0v.79h-5.81l-.24-.79h6.05Zm11.91-6.2v.77h-14.57l-.24-.77h14.81Zm-2.01,13.59c.51,.41,.94,.75,1.28,1.04,.34,.29,.65,.57,.91,.83-.07,.28-.3,.42-.69,.42h-12.15l-.21-.77h9.66l1.19-1.53Zm-2.4-9.53c-.02,.18-.1,.32-.25,.44s-.37,.19-.67,.22v15.38c0,.53-.08,.99-.22,1.37-.15,.39-.47,.7-.95,.95s-1.24,.41-2.26,.5c-.05-.32-.13-.59-.22-.83-.1-.24-.26-.44-.49-.59-.23-.16-.56-.3-.99-.44-.43-.13-1.02-.24-1.76-.33v-.4c.7,.05,1.3,.1,1.78,.13,.48,.04,.94,.06,1.37,.08s.73,.03,.88,.03c.28,0,.47-.04,.57-.13s.15-.24,.15-.45v-16.28l3.06,.34Zm1.27,5.7c.46,.37,.85,.69,1.16,.95,.32,.26,.59,.52,.82,.76-.05,.28-.27,.42-.66,.42h-9.14l-.21-.77h6.97l1.06-1.37Zm-.37-3.8c.44,.35,.81,.66,1.1,.91,.29,.25,.55,.5,.78,.73-.07,.28-.28,.42-.63,.42h-7.87l-.21-.76h5.83l1-1.29Zm1.98-5.96l1.37-1.29,2.27,2.03c-.19,.16-.57,.25-1.14,.26-.63,.37-1.34,.76-2.13,1.19-.78,.42-1.6,.82-2.46,1.19-.85,.37-1.69,.69-2.5,.95h-.48c.65-.37,1.32-.82,2.01-1.35,.69-.53,1.33-1.06,1.93-1.6,.6-.54,1.07-1,1.43-1.39h-.32Zm7.18,5.2c-.09,.12-.2,.21-.34,.25-.14,.04-.36,.03-.66-.04-.46,.32-1,.67-1.64,1.04s-1.3,.75-2.01,1.11c-.7,.36-1.4,.69-2.09,.99l-.32-.32c.55-.46,1.1-.97,1.66-1.54,.56-.57,1.09-1.14,1.58-1.72,.49-.57,.9-1.07,1.21-1.49l2.59,1.71Zm-6.57,2.9c.35,1.53,.86,2.97,1.52,4.31,.66,1.35,1.46,2.53,2.4,3.56,.94,1.03,1.98,1.83,3.13,2.39l-.08,.29c-.42,.07-.79,.28-1.11,.62-.32,.34-.55,.79-.71,1.33-1.06-.84-1.95-1.86-2.68-3.06-.73-1.2-1.33-2.57-1.8-4.13-.47-1.56-.83-3.29-1.1-5.18l.42-.13Z" fill="#fff"/>
        </g>
        <path d="M95.34,233.41v27.71h-3.37v-27.71h3.37Z" fill="#c7b299"/>
        <g>
          <path d="M45.91,273.79v13.85h-1.68v-13.85h1.68Z" fill="#c7b299"/>
          <path d="M55.32,280.4c-.33-.38-.81-.57-1.45-.57-.46,0-.87,.1-1.22,.29-.35,.19-.62,.46-.81,.8-.19,.34-.29,.74-.29,1.19v5.54h-1.58v-9.1h1.58v1.42c.3-.55,.68-.96,1.14-1.23,.46-.26,.98-.4,1.57-.4,.96,0,1.73,.32,2.29,.96,.56,.64,.84,1.51,.84,2.6v5.74h-1.58v-5.54c0-.75-.17-1.32-.5-1.7Z" fill="#c7b299"/>
          <path d="M62.94,287.65h-1.58v-15.44h1.58v15.44Zm3.77-7.24c-.32-.38-.81-.57-1.46-.57-.46,0-.87,.1-1.22,.3-.35,.2-.62,.47-.81,.81-.19,.34-.29,.73-.29,1.17h-.52c0-.72,.14-1.37,.42-1.93,.28-.56,.66-1.01,1.14-1.33,.48-.33,1.04-.5,1.67-.5s1.18,.13,1.65,.4c.47,.26,.83,.66,1.09,1.19,.26,.53,.39,1.19,.39,1.98v5.74h-1.58v-5.54c0-.75-.16-1.32-.49-1.7Z" fill="#c7b299"/>
          <path d="M74.02,287.24c-.65-.4-1.16-.96-1.52-1.67-.36-.71-.54-1.54-.54-2.47s.19-1.78,.56-2.49c.38-.71,.9-1.27,1.58-1.66,.68-.4,1.47-.59,2.37-.59s1.67,.19,2.31,.56c.64,.38,1.13,.91,1.48,1.61s.52,1.53,.52,2.49c0,.09,0,.19-.01,.29,0,.1,0,.16,0,.19h-7.78v-1.35h6.53l-.63,.91c.04-.07,.08-.17,.12-.31s.06-.25,.06-.35c0-.54-.11-1.01-.33-1.4-.22-.4-.52-.71-.9-.93s-.83-.34-1.35-.34c-.61,0-1.13,.13-1.55,.39-.43,.26-.76,.63-.99,1.11s-.35,1.07-.37,1.77c0,.71,.11,1.32,.34,1.82,.22,.5,.55,.88,.99,1.15,.44,.26,.96,.4,1.58,.4s1.17-.14,1.64-.41c.48-.27,.88-.68,1.21-1.24l1.29,.81c-.48,.76-1.07,1.34-1.79,1.73-.72,.39-1.57,.58-2.54,.58-.84,0-1.59-.2-2.25-.6Z" fill="#c7b299"/>
          <path d="M85.52,287.65h-1.58v-9.1h1.58v9.1Zm2.18-7.71c-.17-.07-.39-.11-.65-.11-.4,0-.71,.1-.93,.3-.22,.2-.38,.47-.47,.81s-.13,.73-.13,1.17h-.71c0-.72,.13-1.37,.39-1.93,.26-.56,.59-1.01,1-1.33,.41-.33,.82-.5,1.25-.5,.33,0,.64,.04,.92,.13s.54,.25,.78,.5l-.87,1.31c-.21-.16-.4-.27-.57-.35Z" fill="#c7b299"/>
          <path d="M92.04,274.01c.22-.21,.47-.32,.76-.32s.56,.11,.77,.32c.21,.21,.32,.47,.32,.77s-.11,.54-.32,.76c-.21,.22-.47,.33-.77,.33s-.54-.11-.76-.33-.33-.47-.33-.76,.11-.56,.33-.77Zm1.55,4.53v9.1h-1.58v-9.1h1.58Z" fill="#c7b299"/>
          <path d="M101.02,278.54v1.48h-4.55v-1.48h4.55Zm-1.48-3.17v12.27h-1.58v-12.27h1.58Z" fill="#c7b299"/>
          <path d="M104.55,285.73c.17,.25,.4,.44,.69,.56,.3,.12,.64,.19,1.02,.19,.49,0,.93-.1,1.32-.3,.39-.2,.7-.48,.93-.84,.23-.36,.35-.78,.35-1.26l.32,1.19c0,.58-.18,1.06-.52,1.44-.35,.38-.78,.67-1.29,.85-.51,.18-1.01,.28-1.51,.28-.55,0-1.07-.12-1.55-.35s-.87-.56-1.16-1c-.29-.44-.44-.96-.44-1.58,0-.88,.31-1.59,.94-2.13,.63-.54,1.5-.8,2.62-.8,.66,0,1.21,.08,1.65,.23s.8,.32,1.06,.51,.44,.35,.53,.46v.93c-.46-.32-.94-.54-1.43-.68-.49-.14-1.01-.21-1.56-.21-.51,0-.93,.07-1.26,.2s-.56,.32-.72,.55c-.16,.24-.24,.52-.24,.85s.08,.64,.25,.89Zm-1.26-6.25c.34-.25,.81-.5,1.42-.75,.6-.25,1.32-.38,2.17-.38,.71,0,1.34,.11,1.87,.33s.95,.53,1.25,.94c.3,.41,.45,.91,.45,1.5v6.53h-1.58v-6.31c0-.32-.05-.58-.16-.78-.11-.21-.25-.37-.45-.49s-.41-.2-.66-.26-.51-.08-.79-.08c-.45,0-.85,.05-1.22,.16-.36,.11-.67,.23-.92,.38-.25,.15-.45,.27-.59,.38l-.77-1.17Z" fill="#c7b299"/>
          <path d="M119.45,280.4c-.33-.38-.81-.57-1.45-.57-.46,0-.87,.1-1.22,.29-.35,.19-.62,.46-.81,.8-.19,.34-.29,.74-.29,1.19v5.54h-1.58v-9.1h1.58v1.42c.3-.55,.68-.96,1.14-1.23,.46-.26,.98-.4,1.57-.4,.96,0,1.73,.32,2.29,.96,.56,.64,.84,1.51,.84,2.6v5.74h-1.58v-5.54c0-.75-.17-1.32-.5-1.7Z" fill="#c7b299"/>
          <path d="M126.61,284.78c.27,.49,.64,.88,1.11,1.16,.47,.28,1,.43,1.59,.43,.49,0,.95-.08,1.38-.23,.43-.15,.8-.36,1.12-.61,.32-.26,.54-.53,.67-.82v1.98c-.32,.37-.77,.66-1.36,.86-.59,.2-1.19,.31-1.81,.31-.88,0-1.68-.21-2.4-.61-.71-.41-1.28-.97-1.69-1.69-.42-.72-.62-1.53-.62-2.44s.21-1.74,.62-2.45c.42-.71,.98-1.27,1.69-1.68s1.51-.61,2.4-.61c.62,0,1.22,.1,1.81,.31,.59,.21,1.04,.49,1.36,.86v1.98c-.13-.3-.36-.58-.67-.83-.32-.25-.69-.45-1.12-.6-.43-.15-.89-.23-1.38-.23-.59,0-1.13,.14-1.59,.42-.47,.28-.84,.66-1.11,1.16-.27,.5-.41,1.06-.41,1.69s.14,1.19,.41,1.68Z" fill="#c7b299"/>
          <path d="M137.23,287.24c-.65-.4-1.16-.96-1.52-1.67-.36-.71-.54-1.54-.54-2.47s.19-1.78,.56-2.49c.38-.71,.9-1.27,1.58-1.66,.68-.4,1.47-.59,2.37-.59s1.67,.19,2.31,.56c.64,.38,1.13,.91,1.48,1.61s.52,1.53,.52,2.49c0,.09,0,.19-.01,.29,0,.1,0,.16,0,.19h-7.78v-1.35h6.53l-.63,.91c.04-.07,.08-.17,.12-.31s.06-.25,.06-.35c0-.54-.11-1.01-.33-1.4-.22-.4-.52-.71-.9-.93s-.83-.34-1.35-.34c-.61,0-1.13,.13-1.55,.39-.43,.26-.76,.63-.99,1.11s-.35,1.07-.37,1.77c0,.71,.11,1.32,.34,1.82,.22,.5,.55,.88,.99,1.15,.44,.26,.96,.4,1.58,.4s1.17-.14,1.64-.41c.48-.27,.88-.68,1.21-1.24l1.29,.81c-.48,.76-1.07,1.34-1.79,1.73-.72,.39-1.57,.58-2.54,.58-.84,0-1.59-.2-2.25-.6Z" fill="#c7b299"/>
        </g>
      </g>
    </g>
  </g>
</svg>