<?xml version="1.0" encoding="UTF-8"?>
<svg id="_圖層_2" data-name="圖層 2" xmlns="http://www.w3.org/2000/svg" viewBox="0 0 682.84 600.52">
  <g id="_圖層_3" data-name="圖層 3">
    <g>
      <g opacity="0">
        <g>
          <circle cx="343.15" cy="134.31" r="134.31" fill="#c7b299" opacity=".8"/>
          <circle cx="343.15" cy="134.31" r="124.61" fill="#c7b299"/>
        </g>
        <g>
          <path d="M293.73,124.75c.27,.77,.39,1.45,.36,2.04s-.16,1.08-.4,1.46c-.23,.38-.52,.66-.85,.84-.32,.18-.68,.22-1.07,.13-.39-.09-.64-.31-.76-.66-.1-.35-.05-.66,.13-.91,.18-.26,.43-.45,.73-.58,.38-.18,.74-.48,1.06-.9,.32-.42,.46-.89,.41-1.4l.38-.02Zm7.78,18.79c-.1,.11-.25,.18-.46,.2-.21,.02-.47,0-.79-.06-.67,.35-1.48,.68-2.41,.98-.94,.3-1.94,.56-3.02,.78s-2.17,.36-3.28,.44l-.1-.36c.99-.26,1.98-.58,2.95-.98,.98-.4,1.88-.83,2.7-1.3,.82-.46,1.48-.92,1.98-1.37l2.42,1.66Zm-9.62-10.9c.58-.03,1.35-.09,2.33-.17,.98-.08,2.08-.18,3.3-.3,1.22-.12,2.48-.24,3.78-.37l.05,.38c-.85,.26-1.91,.55-3.19,.89-1.28,.34-2.81,.72-4.58,1.15-.06,.14-.15,.26-.25,.34-.1,.08-.21,.14-.32,.17l-1.1-2.09Zm7.92-5.9c.4,.3,.75,.57,1.04,.79,.29,.22,.56,.45,.8,.67-.06,.26-.27,.38-.62,.38h-7.92l-.19-.7h5.9l.98-1.15Zm-.34,2.35c.35,.27,.65,.51,.9,.71,.25,.2,.48,.4,.68,.59-.05,.26-.24,.38-.58,.38h-7.3l-.19-.7h5.64l.84-.98Zm11.38-3.24v.7h-17.47v-.7h17.47Zm-13.9,16.75c0,.06-.09,.15-.28,.26s-.42,.21-.71,.3-.59,.13-.91,.13h-.34v-9.94l2.4,1.01h11.14v.7h-11.3v7.54Zm10.8-1.25v.7h-12.1v-.7h12.1Zm.05-4.68v.7h-12.1v-.7h12.1Zm-.02,2.28v.7h-12.05v-.7h12.05Zm-9.96-10.75v4.42l-1.99,.29v-4.7h1.99Zm2.66-4.58c.8,0,1.42,.09,1.86,.26,.44,.18,.74,.39,.89,.65,.15,.26,.19,.51,.12,.76-.07,.25-.22,.46-.46,.64-.23,.18-.5,.26-.82,.26s-.63-.13-.95-.38c.03-.38-.03-.77-.19-1.15-.16-.38-.37-.68-.62-.89l.17-.14Zm9.72,5.18c.4,.29,.74,.54,1.02,.76,.28,.22,.54,.43,.78,.64-.06,.26-.26,.38-.6,.38h-10.39l-.19-.7h8.4l.98-1.08Zm-7.06,3l.38,.26v1.22h.17l-.65,.86-2.02-1.15c.14-.14,.33-.29,.56-.43,.23-.14,.44-.25,.64-.31l-.43,.77v-1.22h1.34Zm1.87-4.63c-.05,.11-.13,.19-.25,.23-.12,.04-.32,.04-.59-.01-.32,.42-.71,.84-1.18,1.27-.46,.43-.96,.79-1.49,1.08l-.31-.19c.29-.4,.56-.9,.82-1.5,.26-.6,.46-1.14,.6-1.62l2.4,.74Zm-.91,3.84c-.02,.11-.07,.21-.16,.3-.09,.09-.23,.15-.42,.18v1.1h-1.73v-1.82l2.3,.24Zm5.62,1.58v.7h-7.27v-.7h7.27Zm-.84-5.76c.38,.29,.71,.54,.98,.76,.27,.22,.52,.43,.74,.64-.05,.26-.25,.38-.6,.38h-7.46v-.7h5.42l.91-1.08Zm-6,15.53c1.71,.05,3.12,.17,4.24,.37,1.11,.2,1.98,.43,2.59,.7,.62,.26,1.04,.54,1.26,.83,.22,.29,.31,.56,.25,.8-.06,.25-.21,.44-.47,.59-.26,.14-.55,.22-.89,.22s-.66-.11-.98-.34c-.56-.48-1.35-.98-2.38-1.49-1.02-.51-2.26-.96-3.72-1.34l.1-.34Zm4.15-14.21v4.87h-1.94v-4.87h1.94Zm-.48,6.24l1.06-1.13,2.18,1.68c-.06,.08-.16,.16-.3,.23-.14,.07-.3,.12-.49,.16v7.01c0,.06-.1,.14-.31,.24-.21,.1-.46,.18-.74,.26s-.56,.12-.82,.12h-.38v-8.57h-.19Zm4.32-3.36c-.02,.13-.07,.24-.16,.32s-.24,.15-.44,.18v2.06s-.08,.11-.23,.19-.33,.15-.54,.2c-.21,.06-.42,.08-.65,.08h-.34v-3.26l2.35,.22Zm-1.03-5.18l1.15-1.15,2.06,1.97c-.08,.08-.19,.14-.34,.17-.14,.03-.34,.06-.58,.07-.29,.24-.66,.49-1.1,.74s-.86,.46-1.25,.62l-.26-.17c.1-.3,.2-.68,.32-1.13,.12-.45,.2-.82,.25-1.13h-.26Z" fill="#534741"/>
          <path d="M330.02,124.94c-.06,.14-.22,.26-.46,.35s-.57,.06-.98-.08l.74-.19c-.48,.56-1.1,1.17-1.85,1.84-.75,.66-1.58,1.33-2.47,1.99-.9,.66-1.81,1.29-2.75,1.88-.94,.59-1.84,1.1-2.7,1.54l-.02-.26h1.13c-.08,.72-.24,1.26-.48,1.63s-.5,.6-.77,.7l-.94-2.71c.43-.1,.72-.18,.86-.26,.64-.37,1.33-.87,2.06-1.51,.74-.64,1.46-1.34,2.16-2.09s1.34-1.5,1.91-2.23c.57-.74,1.01-1.39,1.33-1.97l3.22,1.39Zm-10.99,6.72c.75,0,1.73-.02,2.94-.05s2.59-.08,4.14-.13c1.55-.06,3.2-.12,4.94-.19,1.74-.07,3.52-.15,5.33-.23v.41c-1.82,.35-4.17,.74-7.03,1.16s-6.09,.85-9.67,1.28l-.65-2.26Zm4.3,13.39c0,.06-.1,.16-.29,.3-.19,.14-.44,.25-.76,.35-.31,.1-.64,.14-.97,.14h-.36v-10.87l2.54,1.06h10.92v.7h-11.09v8.33Zm11.09-2.02v.7h-12.26v-.7h12.26Zm-3.02-15.89c1.5,.5,2.73,1.05,3.68,1.66,.95,.61,1.69,1.22,2.21,1.85,.52,.62,.85,1.2,1,1.74,.14,.54,.16,.99,.04,1.37s-.34,.62-.67,.72c-.33,.1-.72,.02-1.16-.25-.19-.59-.48-1.2-.86-1.82s-.82-1.24-1.32-1.86c-.5-.62-1.02-1.2-1.56-1.74s-1.07-1.02-1.58-1.44l.24-.22Zm1.66,8.88l1.2-1.34,2.54,1.97c-.08,.1-.21,.19-.4,.29-.18,.1-.41,.18-.68,.24v7.85s-.14,.12-.36,.23c-.22,.1-.49,.2-.79,.28-.3,.08-.59,.12-.86,.12h-.38v-9.62h-.26Z" fill="#534741"/>
          <path d="M348.69,133l1.13-1.2,2.09,1.8c-.13,.21-.42,.33-.89,.36-.18,1.2-.42,2.37-.74,3.52-.32,1.14-.76,2.23-1.32,3.26-.56,1.03-1.28,1.98-2.17,2.84-.89,.86-1.99,1.62-3.3,2.28l-.22-.31c1.34-.99,2.4-2.15,3.18-3.47,.78-1.32,1.35-2.76,1.73-4.31s.63-3.14,.76-4.78h-.24Zm.38-7.03v.7h-5.38l-.22-.7h5.59Zm1.03,.82c-.18,.4-.4,.9-.68,1.49s-.58,1.22-.91,1.88-.64,1.31-.95,1.93c-.3,.62-.58,1.15-.82,1.58h.17l-.79,.74-1.97-1.37c.14-.11,.35-.23,.61-.36,.26-.13,.51-.21,.73-.24l-.82,.7c.26-.42,.54-.94,.86-1.57s.64-1.3,.97-1.99,.63-1.36,.91-2,.5-1.18,.66-1.61l2.02,.82Zm-5.5,8.38c.61,1.73,1.35,3.11,2.22,4.15s1.92,1.83,3.16,2.38c1.23,.54,2.68,.91,4.33,1.1,1.66,.19,3.56,.29,5.72,.29h2.81c.56,0,1.1,0,1.62-.01,.52,0,.97-.01,1.36-.01v.29c-.46,.1-.81,.32-1.04,.67-.23,.35-.36,.76-.4,1.22h-4.51c-2.24,0-4.2-.13-5.89-.38-1.69-.26-3.14-.74-4.37-1.44-1.22-.7-2.27-1.7-3.13-3-.86-1.3-1.59-2.99-2.18-5.09l.31-.17Zm5.4-2.16v.7h-4.58l.36-.7h4.22Zm-2.21-7.03l1.08-1.08,2.16,1.94c-.13,.13-.34,.22-.62,.29-.29,.06-.61,.09-.97,.08-.36,0-.72-.03-1.07-.06l-.26-1.18h-.31Zm16.49,1.75c.45,.43,.82,.8,1.12,1.09,.3,.3,.56,.58,.78,.85-.06,.26-.27,.38-.62,.38h-15.41l-.19-.7h13.25l1.08-1.63Zm-1.37,9.46c.34,.26,.63,.49,.89,.7s.53,.43,.82,.66c.29,.23,.55,.45,.79,.66-.03,.13-.11,.22-.23,.29-.12,.06-.27,.1-.44,.1h-14.21l-.19-.7h11.23l1.34-1.7Zm-.94-3.1c.3,.24,.57,.46,.8,.66,.23,.2,.48,.41,.73,.62,.25,.22,.49,.42,.7,.61-.06,.26-.28,.38-.65,.38h-11.83l-.19-.7h9.24l1.2-1.58Zm-.24-7.85v.7h-9.86l-.22-.7h10.08Zm-.05,6.29v.7h-9.67l-.22-.7h9.89Zm-2.76-8.59c-.03,.18-.11,.32-.23,.43s-.34,.19-.66,.24v17.35c0,.08-.08,.17-.25,.28-.17,.1-.39,.2-.66,.28-.27,.08-.55,.12-.84,.12h-.43v-19.01l3.07,.31Zm1.61,2.3l1.06-1.15,2.28,1.73c-.06,.08-.18,.17-.36,.25-.18,.09-.38,.16-.62,.2v6.14c0,.06-.1,.14-.3,.23-.2,.09-.44,.17-.71,.25-.27,.08-.53,.12-.77,.12h-.34v-7.78h-.24Z" fill="#534741"/>
          <path d="M378.31,126.5c.48,.38,.88,.71,1.2,.98,.32,.27,.61,.54,.86,.79-.05,.26-.26,.38-.62,.38h-9.53l-.19-.7h7.13l1.15-1.46Zm-1.06,3.31c.45,.35,.82,.66,1.13,.92,.3,.26,.58,.52,.84,.76-.06,.26-.28,.38-.65,.38h-7.49l-.19-.7h5.3l1.06-1.37Zm0,3.22c.45,.35,.82,.66,1.13,.91,.3,.26,.58,.5,.84,.74-.06,.26-.28,.38-.65,.38h-7.49l-.19-.7h5.3l1.06-1.34Zm-4.01,12.05c0,.06-.08,.15-.25,.25-.17,.1-.38,.2-.64,.29s-.54,.13-.84,.13h-.29v-9.1l2.14,.91h3.86v.7h-3.98v6.82Zm4.01-2.23v.7h-4.87v-.7h4.87Zm-4.63-18.98c.93,.13,1.66,.33,2.21,.61,.54,.28,.93,.59,1.15,.94,.22,.34,.33,.68,.31,1-.02,.32-.12,.59-.32,.82-.2,.22-.46,.35-.78,.38-.32,.03-.66-.07-1.03-.31-.08-.56-.3-1.15-.66-1.76-.36-.62-.72-1.12-1.09-1.52l.22-.14Zm3.65,13.7l1.01-1.1,2.21,1.68c-.16,.19-.48,.34-.96,.43v5.69s-.09,.12-.28,.22c-.18,.1-.41,.19-.67,.28-.26,.09-.52,.13-.76,.13h-.34v-7.32h-.22Zm11.09-2.93l1.32-1.25,2.16,1.97c-.1,.11-.22,.19-.36,.24-.14,.05-.36,.08-.65,.1-.67,1.63-1.57,3.11-2.69,4.43-1.12,1.32-2.51,2.46-4.18,3.43-1.67,.97-3.64,1.73-5.93,2.29l-.19-.34c2.86-1.07,5.2-2.54,7-4.4,1.8-1.86,3.06-4.02,3.78-6.47h-.26Zm-6.29-9.62v-.7l2.45,.94h-.38v1.92c0,.51-.04,1.08-.13,1.7s-.28,1.26-.56,1.91c-.29,.65-.72,1.27-1.31,1.87-.58,.6-1.36,1.14-2.34,1.62l-.22-.29c.74-.7,1.28-1.44,1.63-2.22,.35-.78,.58-1.56,.7-2.34,.11-.78,.17-1.54,.17-2.26v-2.16Zm7.66,9.62v.7h-9.05l-.22-.7h9.26Zm-7.51,.07c.4,1.28,.94,2.4,1.63,3.37,.69,.97,1.5,1.8,2.45,2.5s2,1.28,3.16,1.74,2.4,.84,3.73,1.13l-.02,.26c-.48,.1-.88,.31-1.2,.64s-.57,.76-.74,1.28c-1.66-.59-3.12-1.34-4.37-2.26s-2.28-2.05-3.11-3.42-1.45-3.04-1.88-5.03l.36-.22Zm6.14-9.46v.7h-5.04v-.7h5.04Zm-1.34,0l1.08-1.15,2.09,1.73c-.16,.16-.46,.27-.89,.34v4.42c0,.13,.02,.22,.07,.28,.05,.06,.16,.08,.34,.08h1.19c.14,0,.24,0,.3-.02h.43c.08-.02,.16-.03,.25-.05s.16-.03,.23-.05h.24l.1,.02c.27,.11,.46,.23,.58,.35,.11,.12,.17,.28,.17,.47,0,.42-.21,.73-.64,.94-.42,.21-1.2,.31-2.34,.31h-1.18c-.53,0-.92-.06-1.18-.17s-.42-.3-.5-.56c-.08-.26-.12-.6-.12-1.02v-5.9h-.22Z" fill="#534741"/>
        </g>
      </g>
      <g>
        <g>
          <circle cx="134.31" cy="466.2" r="134.31" fill="#c7b299" opacity=".8"/>
          <circle cx="134.31" cy="466.2" r="124.61" fill="#c7b299"/>
        </g>
        <g>
          <path d="M86.89,454.03c.27,.77,.39,1.45,.36,2.04s-.16,1.08-.4,1.46c-.23,.38-.52,.66-.85,.84-.32,.18-.68,.22-1.07,.13-.39-.09-.64-.31-.76-.66-.1-.35-.05-.66,.13-.91,.18-.26,.43-.45,.73-.58,.38-.18,.74-.48,1.06-.9,.32-.42,.46-.89,.41-1.4l.38-.02Zm7.78,18.79c-.1,.11-.25,.18-.46,.2-.21,.02-.47,0-.79-.06-.67,.35-1.48,.68-2.41,.98-.94,.3-1.94,.56-3.02,.78s-2.17,.36-3.28,.44l-.1-.36c.99-.26,1.98-.58,2.95-.98,.98-.4,1.88-.83,2.7-1.3,.82-.46,1.48-.92,1.98-1.37l2.42,1.66Zm-9.62-10.9c.58-.03,1.35-.09,2.33-.17,.98-.08,2.08-.18,3.3-.3,1.22-.12,2.48-.24,3.78-.37l.05,.38c-.85,.26-1.91,.55-3.19,.89-1.28,.34-2.81,.72-4.58,1.15-.06,.14-.15,.26-.25,.34-.1,.08-.21,.14-.32,.17l-1.1-2.09Zm7.92-5.9c.4,.3,.75,.57,1.04,.79,.29,.22,.56,.45,.8,.67-.06,.26-.27,.38-.62,.38h-7.92l-.19-.7h5.9l.98-1.15Zm-.34,2.35c.35,.27,.65,.51,.9,.71,.25,.2,.48,.4,.68,.59-.05,.26-.24,.38-.58,.38h-7.3l-.19-.7h5.64l.84-.98Zm11.38-3.24v.7h-17.47v-.7h17.47Zm-13.9,16.75c0,.06-.09,.15-.28,.26s-.42,.21-.71,.3-.59,.13-.91,.13h-.34v-9.94l2.4,1.01h11.14v.7h-11.3v7.54Zm10.8-1.25v.7h-12.1v-.7h12.1Zm.05-4.68v.7h-12.1v-.7h12.1Zm-.02,2.28v.7h-12.05v-.7h12.05Zm-9.96-10.75v4.42l-1.99,.29v-4.7h1.99Zm2.66-4.58c.8,0,1.42,.09,1.86,.26,.44,.18,.74,.39,.89,.65,.15,.26,.19,.51,.12,.76-.07,.25-.22,.46-.46,.64-.23,.18-.5,.26-.82,.26s-.63-.13-.95-.38c.03-.38-.03-.77-.19-1.15-.16-.38-.37-.68-.62-.89l.17-.14Zm9.72,5.18c.4,.29,.74,.54,1.02,.76,.28,.22,.54,.43,.78,.64-.06,.26-.26,.38-.6,.38h-10.39l-.19-.7h8.4l.98-1.08Zm-7.06,3l.38,.26v1.22h.17l-.65,.86-2.02-1.15c.14-.14,.33-.29,.56-.43,.23-.14,.44-.25,.64-.31l-.43,.77v-1.22h1.34Zm1.87-4.63c-.05,.11-.13,.19-.25,.23-.12,.04-.32,.04-.59-.01-.32,.42-.71,.84-1.18,1.27-.46,.43-.96,.79-1.49,1.08l-.31-.19c.29-.4,.56-.9,.82-1.5,.26-.6,.46-1.14,.6-1.62l2.4,.74Zm-.91,3.84c-.02,.11-.07,.21-.16,.3-.09,.09-.23,.15-.42,.18v1.1h-1.73v-1.82l2.3,.24Zm5.62,1.58v.7h-7.27v-.7h7.27Zm-.84-5.76c.38,.29,.71,.54,.98,.76,.27,.22,.52,.43,.74,.64-.05,.26-.25,.38-.6,.38h-7.46v-.7h5.42l.91-1.08Zm-6,15.53c1.71,.05,3.12,.17,4.24,.37,1.11,.2,1.98,.43,2.59,.7,.62,.26,1.04,.54,1.26,.83,.22,.29,.31,.56,.25,.8-.06,.25-.21,.44-.47,.59-.26,.14-.55,.22-.89,.22s-.66-.11-.98-.34c-.56-.48-1.35-.98-2.38-1.49-1.02-.51-2.26-.96-3.72-1.34l.1-.34Zm4.15-14.21v4.87h-1.94v-4.87h1.94Zm-.48,6.24l1.06-1.13,2.18,1.68c-.06,.08-.16,.16-.3,.23-.14,.07-.3,.12-.49,.16v7.01c0,.06-.1,.14-.31,.24-.21,.1-.46,.18-.74,.26s-.56,.12-.82,.12h-.38v-8.57h-.19Zm4.32-3.36c-.02,.13-.07,.24-.16,.32s-.24,.15-.44,.18v2.06s-.08,.11-.23,.19-.33,.15-.54,.2c-.21,.06-.42,.08-.65,.08h-.34v-3.26l2.35,.22Zm-1.03-5.18l1.15-1.15,2.06,1.97c-.08,.08-.19,.14-.34,.17-.14,.03-.34,.06-.58,.07-.29,.24-.66,.49-1.1,.74s-.86,.46-1.25,.62l-.26-.17c.1-.3,.2-.68,.32-1.13,.12-.45,.2-.82,.25-1.13h-.26Z" fill="#534741"/>
          <path d="M114.13,467.4c0,.06-.1,.16-.3,.29-.2,.13-.45,.24-.76,.35-.3,.1-.62,.16-.96,.16h-.36v-11.18l2.57,1.06h14.93v.7h-15.12v8.64Zm15.24-2.23v.7h-16.46v-.7h16.46Zm-5.9-11.93c-.03,.16-.11,.3-.23,.42-.12,.12-.34,.2-.66,.25v20.4c0,.08-.1,.2-.29,.35-.19,.15-.44,.28-.74,.38-.3,.1-.61,.16-.91,.16h-.48v-22.3l3.31,.34Zm4.94,4.85l1.18-1.3,2.47,1.9c-.08,.1-.2,.19-.37,.29-.17,.1-.38,.17-.64,.22v8.04s-.11,.12-.34,.22c-.22,.1-.49,.19-.8,.28-.31,.09-.6,.13-.85,.13h-.41v-9.77h-.24Z" fill="#534741"/>
          <path d="M141.85,462.29l1.13-1.2,2.09,1.8c-.13,.21-.42,.33-.89,.36-.18,1.2-.42,2.37-.74,3.52-.32,1.14-.76,2.23-1.32,3.26-.56,1.03-1.28,1.98-2.17,2.84-.89,.86-1.99,1.62-3.3,2.28l-.22-.31c1.34-.99,2.4-2.15,3.18-3.47,.78-1.32,1.35-2.76,1.73-4.31s.63-3.14,.76-4.78h-.24Zm.38-7.03v.7h-5.38l-.22-.7h5.59Zm1.03,.82c-.18,.4-.4,.9-.68,1.49s-.58,1.22-.91,1.88-.64,1.31-.95,1.93c-.3,.62-.58,1.15-.82,1.58h.17l-.79,.74-1.97-1.37c.14-.11,.35-.23,.61-.36,.26-.13,.51-.21,.73-.24l-.82,.7c.26-.42,.54-.94,.86-1.57s.64-1.3,.97-1.99,.63-1.36,.91-2,.5-1.18,.66-1.61l2.02,.82Zm-5.5,8.38c.61,1.73,1.35,3.11,2.22,4.15s1.92,1.83,3.16,2.38c1.23,.54,2.68,.91,4.33,1.1,1.66,.19,3.56,.29,5.72,.29h2.81c.56,0,1.1,0,1.62-.01,.52,0,.97-.01,1.36-.01v.29c-.46,.1-.81,.32-1.04,.67-.23,.35-.36,.76-.4,1.22h-4.51c-2.24,0-4.2-.13-5.89-.38-1.69-.26-3.14-.74-4.37-1.44-1.22-.7-2.27-1.7-3.13-3-.86-1.3-1.59-2.99-2.18-5.09l.31-.17Zm5.4-2.16v.7h-4.58l.36-.7h4.22Zm-2.21-7.03l1.08-1.08,2.16,1.94c-.13,.13-.34,.22-.62,.29-.29,.06-.61,.09-.97,.08-.36,0-.72-.03-1.07-.06l-.26-1.18h-.31Zm16.49,1.75c.45,.43,.82,.8,1.12,1.09,.3,.3,.56,.58,.78,.85-.06,.26-.27,.38-.62,.38h-15.41l-.19-.7h13.25l1.08-1.63Zm-1.37,9.46c.34,.26,.63,.49,.89,.7s.53,.43,.82,.66c.29,.23,.55,.45,.79,.66-.03,.13-.11,.22-.23,.29-.12,.06-.27,.1-.44,.1h-14.21l-.19-.7h11.23l1.34-1.7Zm-.94-3.1c.3,.24,.57,.46,.8,.66,.23,.2,.48,.41,.73,.62,.25,.22,.49,.42,.7,.61-.06,.26-.28,.38-.65,.38h-11.83l-.19-.7h9.24l1.2-1.58Zm-.24-7.85v.7h-9.86l-.22-.7h10.08Zm-.05,6.29v.7h-9.67l-.22-.7h9.89Zm-2.76-8.59c-.03,.18-.11,.32-.23,.43s-.34,.19-.66,.24v17.35c0,.08-.08,.17-.25,.28-.17,.1-.39,.2-.66,.28-.27,.08-.55,.12-.84,.12h-.43v-19.01l3.07,.31Zm1.61,2.3l1.06-1.15,2.28,1.73c-.06,.08-.18,.17-.36,.25-.18,.09-.38,.16-.62,.2v6.14c0,.06-.1,.14-.3,.23-.2,.09-.44,.17-.71,.25-.27,.08-.53,.12-.77,.12h-.34v-7.78h-.24Z" fill="#534741"/>
          <path d="M171.47,455.79c.48,.38,.88,.71,1.2,.98,.32,.27,.61,.54,.86,.79-.05,.26-.26,.38-.62,.38h-9.53l-.19-.7h7.13l1.15-1.46Zm-1.06,3.31c.45,.35,.82,.66,1.13,.92,.3,.26,.58,.52,.84,.76-.06,.26-.28,.38-.65,.38h-7.49l-.19-.7h5.3l1.06-1.37Zm0,3.22c.45,.35,.82,.66,1.13,.91,.3,.26,.58,.5,.84,.74-.06,.26-.28,.38-.65,.38h-7.49l-.19-.7h5.3l1.06-1.34Zm-4.01,12.05c0,.06-.08,.15-.25,.25-.17,.1-.38,.2-.64,.29s-.54,.13-.84,.13h-.29v-9.1l2.14,.91h3.86v.7h-3.98v6.82Zm4.01-2.23v.7h-4.87v-.7h4.87Zm-4.63-18.98c.93,.13,1.66,.33,2.21,.61,.54,.28,.93,.59,1.15,.94,.22,.34,.33,.68,.31,1-.02,.32-.12,.59-.32,.82-.2,.22-.46,.35-.78,.38-.32,.03-.66-.07-1.03-.31-.08-.56-.3-1.15-.66-1.76-.36-.62-.72-1.12-1.09-1.52l.22-.14Zm3.65,13.7l1.01-1.1,2.21,1.68c-.16,.19-.48,.34-.96,.43v5.69s-.09,.12-.28,.22c-.18,.1-.41,.19-.67,.28-.26,.09-.52,.13-.76,.13h-.34v-7.32h-.22Zm11.09-2.93l1.32-1.25,2.16,1.97c-.1,.11-.22,.19-.36,.24-.14,.05-.36,.08-.65,.1-.67,1.63-1.57,3.11-2.69,4.43-1.12,1.32-2.51,2.46-4.18,3.43-1.67,.97-3.64,1.73-5.93,2.29l-.19-.34c2.86-1.07,5.2-2.54,7-4.4,1.8-1.86,3.06-4.02,3.78-6.47h-.26Zm-6.29-9.62v-.7l2.45,.94h-.38v1.92c0,.51-.04,1.08-.13,1.7s-.28,1.26-.56,1.91c-.29,.65-.72,1.27-1.31,1.87-.58,.6-1.36,1.14-2.34,1.62l-.22-.29c.74-.7,1.28-1.44,1.63-2.22,.35-.78,.58-1.56,.7-2.34,.11-.78,.17-1.54,.17-2.26v-2.16Zm7.66,9.62v.7h-9.05l-.22-.7h9.26Zm-7.51,.07c.4,1.28,.94,2.4,1.63,3.37,.69,.97,1.5,1.8,2.45,2.5s2,1.28,3.16,1.74,2.4,.84,3.73,1.13l-.02,.26c-.48,.1-.88,.31-1.2,.64s-.57,.76-.74,1.28c-1.66-.59-3.12-1.34-4.37-2.26s-2.28-2.05-3.11-3.42-1.45-3.04-1.88-5.03l.36-.22Zm6.14-9.46v.7h-5.04v-.7h5.04Zm-1.34,0l1.08-1.15,2.09,1.73c-.16,.16-.46,.27-.89,.34v4.42c0,.13,.02,.22,.07,.28,.05,.06,.16,.08,.34,.08h1.19c.14,0,.24,0,.3-.02h.43c.08-.02,.16-.03,.25-.05s.16-.03,.23-.05h.24l.1,.02c.27,.11,.46,.23,.58,.35,.11,.12,.17,.28,.17,.47,0,.42-.21,.73-.64,.94-.42,.21-1.2,.31-2.34,.31h-1.18c-.53,0-.92-.06-1.18-.17s-.42-.3-.5-.56c-.08-.26-.12-.6-.12-1.02v-5.9h-.22Z" fill="#534741"/>
        </g>
      </g>
      <g opacity="0">
        <g>
          <circle cx="548.52" cy="466.2" r="134.31" fill="#c7b299" opacity=".8"/>
          <circle cx="548.52" cy="466.2" r="124.61" fill="#c7b299"/>
        </g>
        <g>
          <path d="M500.1,456.63c.27,.77,.39,1.45,.36,2.04s-.16,1.08-.4,1.46c-.23,.38-.52,.66-.85,.84-.32,.18-.68,.22-1.07,.13-.39-.09-.64-.31-.76-.66-.1-.35-.05-.66,.13-.91,.18-.26,.43-.45,.73-.58,.38-.18,.74-.48,1.06-.9,.32-.42,.46-.89,.41-1.4l.38-.02Zm7.78,18.79c-.1,.11-.25,.18-.46,.2-.21,.02-.47,0-.79-.06-.67,.35-1.48,.68-2.41,.98-.94,.3-1.94,.56-3.02,.78s-2.17,.36-3.28,.44l-.1-.36c.99-.26,1.98-.58,2.95-.98,.98-.4,1.88-.83,2.7-1.3,.82-.46,1.48-.92,1.98-1.37l2.42,1.66Zm-9.62-10.9c.58-.03,1.35-.09,2.33-.17,.98-.08,2.08-.18,3.3-.3,1.22-.12,2.48-.24,3.78-.37l.05,.38c-.85,.26-1.91,.55-3.19,.89-1.28,.34-2.81,.72-4.58,1.15-.06,.14-.15,.26-.25,.34-.1,.08-.21,.14-.32,.17l-1.1-2.09Zm7.92-5.9c.4,.3,.75,.57,1.04,.79,.29,.22,.56,.45,.8,.67-.06,.26-.27,.38-.62,.38h-7.92l-.19-.7h5.9l.98-1.15Zm-.34,2.35c.35,.27,.65,.51,.9,.71,.25,.2,.48,.4,.68,.59-.05,.26-.24,.38-.58,.38h-7.3l-.19-.7h5.64l.84-.98Zm11.38-3.24v.7h-17.47v-.7h17.47Zm-13.9,16.75c0,.06-.09,.15-.28,.26s-.42,.21-.71,.3-.59,.13-.91,.13h-.34v-9.94l2.4,1.01h11.14v.7h-11.3v7.54Zm10.8-1.25v.7h-12.1v-.7h12.1Zm.05-4.68v.7h-12.1v-.7h12.1Zm-.02,2.28v.7h-12.05v-.7h12.05Zm-9.96-10.75v4.42l-1.99,.29v-4.7h1.99Zm2.66-4.58c.8,0,1.42,.09,1.86,.26,.44,.18,.74,.39,.89,.65,.15,.26,.19,.51,.12,.76-.07,.25-.22,.46-.46,.64-.23,.18-.5,.26-.82,.26s-.63-.13-.95-.38c.03-.38-.03-.77-.19-1.15-.16-.38-.37-.68-.62-.89l.17-.14Zm9.72,5.18c.4,.29,.74,.54,1.02,.76,.28,.22,.54,.43,.78,.64-.06,.26-.26,.38-.6,.38h-10.39l-.19-.7h8.4l.98-1.08Zm-7.06,3l.38,.26v1.22h.17l-.65,.86-2.02-1.15c.14-.14,.33-.29,.56-.43,.23-.14,.44-.25,.64-.31l-.43,.77v-1.22h1.34Zm1.87-4.63c-.05,.11-.13,.19-.25,.23-.12,.04-.32,.04-.59-.01-.32,.42-.71,.84-1.18,1.27-.46,.43-.96,.79-1.49,1.08l-.31-.19c.29-.4,.56-.9,.82-1.5,.26-.6,.46-1.14,.6-1.62l2.4,.74Zm-.91,3.84c-.02,.11-.07,.21-.16,.3-.09,.09-.23,.15-.42,.18v1.1h-1.73v-1.82l2.3,.24Zm5.62,1.58v.7h-7.27v-.7h7.27Zm-.84-5.76c.38,.29,.71,.54,.98,.76,.27,.22,.52,.43,.74,.64-.05,.26-.25,.38-.6,.38h-7.46v-.7h5.42l.91-1.08Zm-6,15.53c1.71,.05,3.12,.17,4.24,.37,1.11,.2,1.98,.43,2.59,.7,.62,.26,1.04,.54,1.26,.83,.22,.29,.31,.56,.25,.8-.06,.25-.21,.44-.47,.59-.26,.14-.55,.22-.89,.22s-.66-.11-.98-.34c-.56-.48-1.35-.98-2.38-1.49-1.02-.51-2.26-.96-3.72-1.34l.1-.34Zm4.15-14.21v4.87h-1.94v-4.87h1.94Zm-.48,6.24l1.06-1.13,2.18,1.68c-.06,.08-.16,.16-.3,.23-.14,.07-.3,.12-.49,.16v7.01c0,.06-.1,.14-.31,.24-.21,.1-.46,.18-.74,.26s-.56,.12-.82,.12h-.38v-8.57h-.19Zm4.32-3.36c-.02,.13-.07,.24-.16,.32s-.24,.15-.44,.18v2.06s-.08,.11-.23,.19-.33,.15-.54,.2c-.21,.06-.42,.08-.65,.08h-.34v-3.26l2.35,.22Zm-1.03-5.18l1.15-1.15,2.06,1.97c-.08,.08-.19,.14-.34,.17-.14,.03-.34,.06-.58,.07-.29,.24-.66,.49-1.1,.74s-.86,.46-1.25,.62l-.26-.17c.1-.3,.2-.68,.32-1.13,.12-.45,.2-.82,.25-1.13h-.26Z" fill="#534741"/>
          <path d="M535.31,457.06c-.56,.9-1.26,1.79-2.11,2.69-.85,.9-1.8,1.76-2.84,2.59s-2.15,1.6-3.31,2.29c-1.16,.7-2.33,1.29-3.52,1.79l-.14-.34c1.02-.59,2.06-1.32,3.1-2.18,1.04-.86,2.02-1.79,2.93-2.78,.91-.99,1.7-1.98,2.36-2.98,.66-.99,1.14-1.91,1.43-2.76l3.62,.89c-.05,.14-.16,.25-.32,.32s-.42,.12-.76,.16c.53,.75,1.17,1.44,1.93,2.06,.76,.62,1.59,1.2,2.5,1.74,.9,.54,1.85,1.01,2.83,1.43,.98,.42,1.97,.79,2.96,1.13l-.02,.36c-.34,.08-.64,.23-.9,.44-.26,.22-.48,.46-.64,.74-.16,.28-.27,.56-.34,.83-1.26-.61-2.46-1.33-3.6-2.18-1.14-.85-2.15-1.8-3.04-2.84s-1.6-2.18-2.12-3.4Zm-7.75,11.76v-1.06l2.54,1.06h10.92v.7h-11.09v7.49c0,.06-.1,.16-.3,.28-.2,.12-.45,.23-.76,.32-.3,.1-.62,.14-.96,.14h-.36v-8.93Zm.86,6.34h12.6v.7h-12.6v-.7Zm.6-10.68h7.46l1.42-1.78c.34,.27,.64,.52,.9,.73s.54,.44,.83,.68c.29,.24,.55,.46,.79,.67-.06,.26-.28,.38-.65,.38h-10.56l-.19-.7Zm10.39,4.34h-.24l1.18-1.3,2.5,1.9c-.08,.1-.21,.19-.38,.29-.18,.1-.39,.18-.65,.24v6.98s-.11,.12-.34,.22c-.22,.1-.49,.18-.8,.26-.31,.08-.6,.12-.85,.12h-.41v-8.71Z" fill="#534741"/>
          <path d="M553.12,462.73c.27,.83,.4,1.58,.38,2.23s-.13,1.21-.35,1.66c-.22,.45-.48,.78-.8,.98-.21,.14-.44,.23-.71,.26-.26,.03-.5,0-.72-.11-.22-.1-.38-.28-.49-.52-.13-.34-.11-.64,.06-.91,.17-.27,.41-.5,.73-.67,.26-.16,.5-.39,.74-.7,.24-.3,.44-.65,.59-1.03s.21-.78,.18-1.2h.38Zm4.82-6.89c-.02,.14-.08,.27-.19,.38-.11,.11-.3,.18-.55,.22-.03,.78-.11,1.53-.24,2.23s-.38,1.37-.76,1.99-.97,1.19-1.78,1.7c-.81,.51-1.93,.98-3.37,1.39l-.26-.36c1.1-.46,1.96-.97,2.56-1.52,.6-.55,1.03-1.15,1.28-1.8,.26-.65,.41-1.34,.47-2.09,.06-.74,.09-1.54,.11-2.39l2.74,.24Zm-6.48,.91c.77,.19,1.37,.43,1.8,.72,.43,.29,.74,.58,.91,.89,.18,.3,.25,.59,.22,.85s-.13,.48-.3,.65-.38,.25-.64,.25-.51-.1-.77-.31c-.06-.5-.24-1.01-.54-1.55-.3-.54-.6-.98-.92-1.33l.24-.17Zm18.38,7.06v.7h-16.99v-.7h16.99Zm-14.38,13.34c0,.06-.1,.15-.29,.25-.19,.1-.43,.2-.72,.29s-.58,.13-.89,.13h-.31v-6.94l2.35,.96h12.14v.7h-12.29v4.61Zm12.29-1.37v.7h-13.54v-.7h13.54Zm-10.37-5.35c0,.06-.1,.15-.29,.25-.19,.1-.43,.2-.72,.29s-.58,.13-.89,.13h-.34v-6.05l2.38,.96h8.47v.7h-8.62v3.72Zm8.47-1.13v.7h-10.01v-.7h10.01Zm-9.77-9.38c.93,.06,1.68,.21,2.26,.43,.58,.22,1.02,.48,1.33,.78,.31,.3,.5,.59,.58,.89,.07,.3,.05,.56-.06,.78-.11,.22-.29,.37-.53,.44-.24,.07-.53,.04-.86-.11-.16-.35-.4-.72-.73-1.09-.33-.38-.68-.73-1.07-1.06-.38-.33-.75-.61-1.1-.85l.19-.22Zm5.04-1.82c-.08,.08-.21,.14-.4,.18-.18,.04-.4,0-.64-.11-.59,.35-1.22,.67-1.87,.96-.66,.29-1.27,.53-1.85,.72l-.24-.38c.45-.34,.94-.78,1.48-1.32s1.06-1.14,1.57-1.78l1.94,1.73Zm1.22,11.52c-.19,.26-.42,.56-.7,.9-.27,.34-.55,.68-.84,1s-.57,.6-.84,.84h-.89c.1-.4,.21-.87,.34-1.42s.22-.98,.26-1.32h2.66Zm5.09-13.82c-.02,.14-.08,.27-.19,.38-.11,.11-.29,.18-.53,.22-.05,.78-.14,1.54-.26,2.26-.13,.72-.39,1.4-.78,2.03-.39,.63-1.01,1.21-1.85,1.73-.84,.52-2,.99-3.49,1.4l-.26-.36c1.14-.48,2.01-1,2.63-1.56,.62-.56,1.06-1.17,1.32-1.82,.26-.66,.42-1.36,.48-2.11s.09-1.55,.11-2.4l2.83,.24Zm-6.46,1.01c.75,.22,1.34,.48,1.78,.78,.43,.3,.73,.6,.89,.91,.16,.31,.22,.6,.18,.88-.04,.27-.14,.49-.31,.66s-.38,.26-.64,.26-.52-.1-.79-.32c-.03-.53-.19-1.07-.47-1.62s-.57-1.01-.88-1.38l.24-.17Zm3.22,9.22l1.06-1.13,2.26,1.7c-.05,.06-.15,.14-.3,.22s-.33,.14-.54,.19v3.22s-.11,.12-.32,.2c-.22,.09-.46,.17-.74,.25-.28,.08-.55,.12-.8,.12h-.38v-4.78h-.22Zm1.22-5.86c.99,.08,1.8,.24,2.44,.48,.63,.24,1.12,.52,1.45,.84,.34,.32,.55,.64,.64,.95,.09,.31,.08,.58-.04,.82-.11,.23-.29,.39-.54,.47s-.54,.04-.88-.12c-.19-.37-.47-.75-.84-1.15-.37-.4-.77-.78-1.2-1.15-.43-.37-.85-.67-1.25-.91l.22-.22Zm5.3-1.85c-.1,.08-.23,.14-.41,.17-.18,.03-.38,0-.62-.12-.58,.32-1.18,.61-1.81,.86s-1.22,.47-1.76,.65l-.24-.38c.42-.32,.88-.74,1.4-1.26s1.02-1.08,1.5-1.67l1.94,1.75Zm-4.49,13.54l1.1-1.18,2.35,1.75c-.08,.1-.2,.19-.37,.28s-.36,.16-.59,.2v4.13c0,.06-.1,.15-.31,.25-.21,.1-.46,.2-.74,.29-.29,.09-.57,.13-.84,.13h-.36v-5.86h-.24Zm2.35-8.04l1.27-1.27,2.23,2.16c-.1,.08-.21,.14-.35,.17-.14,.03-.32,.06-.56,.07-.35,.37-.8,.76-1.34,1.19s-1.05,.77-1.51,1.04l-.26-.14c.1-.3,.2-.65,.3-1.04,.1-.39,.2-.78,.29-1.16,.09-.38,.16-.72,.2-1.01h-.26Z" fill="#534741"/>
          <path d="M581.08,467.34l1.22-1.22,2.11,1.85c-.13,.19-.43,.3-.91,.31-.35,1.2-.84,2.38-1.45,3.55-.62,1.17-1.39,2.27-2.33,3.3-.94,1.03-2.04,1.93-3.32,2.7l-.24-.31c.93-.86,1.74-1.85,2.44-2.96,.7-1.11,1.27-2.29,1.73-3.53,.46-1.24,.79-2.47,1-3.68h-.24Zm.77-5.62v.7h-5.09l-.22-.7h5.3Zm.84,.86c-.19,.32-.44,.71-.76,1.18-.31,.46-.64,.96-.98,1.49-.34,.53-.68,1.03-1.02,1.51s-.63,.89-.89,1.22h.22l-.79,.67-1.8-1.37c.18-.11,.4-.22,.67-.34,.27-.11,.52-.18,.74-.22l-.86,.65c.26-.34,.56-.75,.9-1.24,.34-.49,.69-1,1.04-1.55s.68-1.07,1-1.57c.31-.5,.56-.93,.73-1.28l1.8,.84Zm-4.8-7.06c1.04,.14,1.88,.38,2.52,.7,.64,.32,1.12,.68,1.43,1.07,.31,.39,.49,.77,.53,1.13,.04,.36-.02,.67-.19,.94-.17,.26-.4,.43-.71,.49-.3,.06-.65-.02-1.03-.24-.11-.46-.32-.94-.62-1.42-.3-.48-.64-.94-1.02-1.37-.38-.43-.75-.81-1.12-1.13l.22-.17Zm4.75,11.81v.7h-4.37l.26-.7h4.1Zm-2.09-5.62l1.1-1.1,2.21,1.99c-.13,.13-.34,.22-.64,.29-.3,.06-.63,.09-1,.08-.37,0-.74-.04-1.1-.08l-.29-1.18h-.29Zm.31,10.06c.58,.96,1.26,1.67,2.06,2.12,.8,.46,1.78,.76,2.94,.9s2.56,.22,4.19,.22h4.33c.86,0,1.67,0,2.45-.01,.78,0,1.42-.02,1.93-.04v.29c-.43,.1-.76,.33-.97,.71-.22,.38-.33,.8-.35,1.28h-7.44c-1.73,0-3.19-.14-4.38-.43-1.19-.29-2.19-.82-2.99-1.58-.8-.77-1.48-1.86-2.04-3.29l.26-.17Zm15.19-9.62c.32,.27,.61,.51,.86,.71,.25,.2,.52,.42,.8,.65,.28,.23,.53,.45,.76,.66-.06,.26-.29,.38-.67,.38h-13.66l-.19-.7h10.78l1.32-1.7Zm-6.94-5.28c-.05,.14-.14,.26-.29,.36-.14,.1-.34,.14-.6,.14-.45,1.23-1,2.36-1.64,3.4-.65,1.03-1.38,1.91-2.2,2.63l-.34-.22c.45-.91,.86-2,1.22-3.28,.37-1.27,.64-2.56,.82-3.88l3.02,.84Zm-1.2,16.66c0,.06-.09,.15-.28,.25-.18,.1-.42,.2-.71,.29-.29,.09-.59,.13-.91,.13h-.34v-8.45l2.35,.96h7.01v.7h-7.13v6.12Zm7.08-15.7c.54,.42,1,.77,1.36,1.07,.36,.3,.68,.59,.97,.88-.05,.26-.26,.38-.65,.38h-10.39v-.7h7.46l1.25-1.63Zm-.1,14.06v.7h-8.16v-.7h8.16Zm-1.9-16.13c-.02,.16-.09,.3-.22,.42s-.34,.2-.65,.25v7.87h-2.18v-8.83l3.05,.29Zm.86,10.94l1.08-1.18,2.3,1.75c-.06,.1-.18,.19-.35,.28-.17,.09-.36,.15-.59,.18v5.64c0,.06-.1,.15-.31,.25-.21,.1-.45,.2-.73,.28s-.55,.12-.8,.12h-.38v-7.32h-.22Z" fill="#534741"/>
        </g>
      </g>
      <g opacity="0">
        <circle cx="341.94" cy="361.33" r="148.2" fill="none" stroke="#c7b299" stroke-dasharray="0 0 5.54 5.54" stroke-miterlimit="10" stroke-width=".7"/>
        <circle cx="341.94" cy="361.33" r="174.85" fill="none" stroke="#c7b299" stroke-dasharray="0 0 6.54 6.54" stroke-miterlimit="10" stroke-width=".82"/>
        <circle cx="341.94" cy="361.33" r="204.31" fill="none" stroke="#c7b299" stroke-dasharray="0 0 7.64 7.64" stroke-miterlimit="10" stroke-width=".96"/>
        <g>
          <circle cx="341.94" cy="361.33" r="126.95" fill="#e5dbd1"/>
          <g>
            <g>
              <path d="M351.08,348.98l12.7-39.04s.1-.43-.09-.41c-.18,.02-.56,1.17-.56,1.17-.35,1.03-1.97,5.98-2.29,6.49-.17,.26-.62,.45-.72,.53-.1,.08-.19,0-.41,.67-.22,.68-4.94,14.28-4.94,14.28,0,0-.14,.32-.4,.54-.26,.22-.32-.18-.86,1.56-.55,1.75-4.37,13.63-4.37,13.63,0,0-.42,.52,.11,.56,.52,.04,1.85,.01,1.85,.01" fill="#534741" fill-rule="evenodd"/>
              <path d="M348.14,348.98l12.71-39.04s.09-.43-.09-.41c-.18,.02-.56,1.17-.56,1.17-.35,1.03-1.97,5.98-2.3,6.49-.17,.26-.62,.45-.72,.53-.1,.08-.18,0-.4,.67-.23,.68-4.95,14.28-4.95,14.28,0,0-.14,.32-.4,.54-.26,.22-.32-.18-.86,1.56-.55,1.75-4.36,13.63-4.36,13.63,0,0-.42,.52,.1,.56,.52,.04,1.85,.01,1.85,.01" fill="#534741" fill-rule="evenodd"/>
              <path d="M345.03,348.98l12.7-39.04s.09-.43-.09-.41c-.19,.02-.56,1.17-.56,1.17-.35,1.03-1.97,5.98-2.3,6.49-.17,.26-.62,.45-.72,.53-.1,.08-.19,0-.41,.67-.23,.68-4.95,14.28-4.95,14.28,0,0-.14,.32-.4,.54-.26,.22-.32-.18-.87,1.56-.55,1.75-4.36,13.63-4.36,13.63,0,0-.42,.52,.1,.56,.52,.04,1.85,.01,1.85,.01" fill="#534741" fill-rule="evenodd"/>
              <path d="M341.96,348.96l12.7-39.03s.1-.43-.09-.41c-.18,.02-.56,1.17-.56,1.17-.35,1.03-1.98,5.98-2.3,6.49-.16,.26-.62,.45-.72,.53-.1,.08-.19,0-.41,.68-.23,.68-4.95,14.27-4.95,14.27,0,0-.14,.32-.41,.54-.26,.22-.32-.19-.87,1.56-.54,1.75-4.36,13.63-4.36,13.63,0,0-.42,.52,.1,.56,.52,.04,1.84,.01,1.84,.01" fill="#534741" fill-rule="evenodd"/>
              <path d="M320.1,310.07l12.52,38.48c.05,.18,.24,.37,.51,.41,.18,.02,2.52,.01,4.22,0,.61,.02,1.6,0,1.6,0l12.7-39.03s.09-.43-.09-.41c-.17,.02-.55,1.17-.55,1.17-.35,1.03-1.98,5.98-2.3,6.49-.16,.26-.62,.45-.72,.53-.1,.08-.34,.11-.53,.69-.19,.57-3.11,9.74-4.51,13.79-.07,.17-.09,.23-.11,.27-.03,.04-.38,.48-.55-.04-1.14-3.38-3.06-9.39-4.43-13.54-.96-2.9-3.17-6.66-8.89-8.22-6.33-1.73-8.76-1.08-8.76-1.08,0,0-.22,.19-.1,.49" fill="#534741" fill-rule="evenodd"/>
            </g>
            <g>
              <path d="M268.05,366.12c.27,.77,.39,1.45,.36,2.04s-.16,1.08-.4,1.46c-.23,.38-.52,.66-.85,.84-.32,.18-.68,.22-1.07,.13-.39-.09-.64-.31-.76-.66-.1-.35-.05-.66,.13-.91,.18-.26,.43-.45,.73-.58,.38-.18,.74-.48,1.06-.9,.32-.42,.46-.89,.41-1.4l.38-.02Zm7.78,18.79c-.1,.11-.25,.18-.46,.2-.21,.02-.47,0-.79-.06-.67,.35-1.48,.68-2.41,.98-.94,.3-1.94,.56-3.02,.78s-2.17,.36-3.28,.44l-.1-.36c.99-.26,1.98-.58,2.95-.98,.98-.4,1.88-.83,2.7-1.3,.82-.46,1.48-.92,1.98-1.37l2.42,1.66Zm-9.62-10.9c.58-.03,1.35-.09,2.33-.17,.98-.08,2.08-.18,3.3-.3,1.22-.12,2.48-.24,3.78-.37l.05,.38c-.85,.26-1.91,.55-3.19,.89-1.28,.34-2.81,.72-4.58,1.15-.06,.14-.15,.26-.25,.34-.1,.08-.21,.14-.32,.17l-1.1-2.09Zm7.92-5.9c.4,.3,.75,.57,1.04,.79,.29,.22,.56,.45,.8,.67-.06,.26-.27,.38-.62,.38h-7.92l-.19-.7h5.9l.98-1.15Zm-.34,2.35c.35,.27,.65,.51,.9,.71,.25,.2,.48,.4,.68,.59-.05,.26-.24,.38-.58,.38h-7.3l-.19-.7h5.64l.84-.98Zm11.38-3.24v.7h-17.47v-.7h17.47Zm-13.9,16.75c0,.06-.09,.15-.28,.26s-.42,.21-.71,.3-.59,.13-.91,.13h-.34v-9.94l2.4,1.01h11.14v.7h-11.3v7.54Zm10.8-1.25v.7h-12.1v-.7h12.1Zm.05-4.68v.7h-12.1v-.7h12.1Zm-.02,2.28v.7h-12.05v-.7h12.05Zm-9.96-10.75v4.42l-1.99,.29v-4.7h1.99Zm2.66-4.58c.8,0,1.42,.09,1.86,.26,.44,.18,.74,.39,.89,.65,.15,.26,.19,.51,.12,.76-.07,.25-.22,.46-.46,.64-.23,.18-.5,.26-.82,.26s-.63-.13-.95-.38c.03-.38-.03-.77-.19-1.15-.16-.38-.37-.68-.62-.89l.17-.14Zm9.72,5.18c.4,.29,.74,.54,1.02,.76,.28,.22,.54,.43,.78,.64-.06,.26-.26,.38-.6,.38h-10.39l-.19-.7h8.4l.98-1.08Zm-7.06,3l.38,.26v1.22h.17l-.65,.86-2.02-1.15c.14-.14,.33-.29,.56-.43,.23-.14,.44-.25,.64-.31l-.43,.77v-1.22h1.34Zm1.87-4.63c-.05,.11-.13,.19-.25,.23-.12,.04-.32,.04-.59-.01-.32,.42-.71,.84-1.18,1.27-.46,.43-.96,.79-1.49,1.08l-.31-.19c.29-.4,.56-.9,.82-1.5,.26-.6,.46-1.14,.6-1.62l2.4,.74Zm-.91,3.84c-.02,.11-.07,.21-.16,.3-.09,.09-.23,.15-.42,.18v1.1h-1.73v-1.82l2.3,.24Zm5.62,1.58v.7h-7.27v-.7h7.27Zm-.84-5.76c.38,.29,.71,.54,.98,.76,.27,.22,.52,.43,.74,.64-.05,.26-.25,.38-.6,.38h-7.46v-.7h5.42l.91-1.08Zm-6,15.53c1.71,.05,3.12,.17,4.24,.37,1.11,.2,1.98,.43,2.59,.7,.62,.26,1.04,.54,1.26,.83,.22,.29,.31,.56,.25,.8-.06,.25-.21,.44-.47,.59-.26,.14-.55,.22-.89,.22s-.66-.11-.98-.34c-.56-.48-1.35-.98-2.38-1.49-1.02-.51-2.26-.96-3.72-1.34l.1-.34Zm4.15-14.21v4.87h-1.94v-4.87h1.94Zm-.48,6.24l1.06-1.13,2.18,1.68c-.06,.08-.16,.16-.3,.23-.14,.07-.3,.12-.49,.16v7.01c0,.06-.1,.14-.31,.24-.21,.1-.46,.18-.74,.26s-.56,.12-.82,.12h-.38v-8.57h-.19Zm4.32-3.36c-.02,.13-.07,.24-.16,.32s-.24,.15-.44,.18v2.06s-.08,.11-.23,.19-.33,.15-.54,.2c-.21,.06-.42,.08-.65,.08h-.34v-3.26l2.35,.22Zm-1.03-5.18l1.15-1.15,2.06,1.97c-.08,.08-.19,.14-.34,.17-.14,.03-.34,.06-.58,.07-.29,.24-.66,.49-1.1,.74s-.86,.46-1.25,.62l-.26-.17c.1-.3,.2-.68,.32-1.13,.12-.45,.2-.82,.25-1.13h-.26Z" fill="#534741"/>
              <path d="M304.34,366.31c-.06,.14-.22,.26-.46,.35s-.57,.06-.98-.08l.74-.19c-.48,.56-1.1,1.17-1.85,1.84-.75,.66-1.58,1.33-2.47,1.99-.9,.66-1.81,1.29-2.75,1.88-.94,.59-1.84,1.1-2.7,1.54l-.02-.26h1.13c-.08,.72-.24,1.26-.48,1.63s-.5,.6-.77,.7l-.94-2.71c.43-.1,.72-.18,.86-.26,.64-.37,1.33-.87,2.06-1.51,.74-.64,1.46-1.34,2.16-2.09s1.34-1.5,1.91-2.23c.57-.74,1.01-1.39,1.33-1.97l3.22,1.39Zm-10.99,6.72c.75,0,1.73-.02,2.94-.05s2.59-.08,4.14-.13c1.55-.06,3.2-.12,4.94-.19,1.74-.07,3.52-.15,5.33-.23v.41c-1.82,.35-4.17,.74-7.03,1.16s-6.09,.85-9.67,1.28l-.65-2.26Zm4.3,13.39c0,.06-.1,.16-.29,.3-.19,.14-.44,.25-.76,.35-.31,.1-.64,.14-.97,.14h-.36v-10.87l2.54,1.06h10.92v.7h-11.09v8.33Zm11.09-2.02v.7h-12.26v-.7h12.26Zm-3.02-15.89c1.5,.5,2.73,1.05,3.68,1.66,.95,.61,1.69,1.22,2.21,1.85,.52,.62,.85,1.2,1,1.74,.14,.54,.16,.99,.04,1.37s-.34,.62-.67,.72c-.33,.1-.72,.02-1.16-.25-.19-.59-.48-1.2-.86-1.82s-.82-1.24-1.32-1.86c-.5-.62-1.02-1.2-1.56-1.74s-1.07-1.02-1.58-1.44l.24-.22Zm1.66,8.88l1.2-1.34,2.54,1.97c-.08,.1-.21,.19-.4,.29-.18,.1-.41,.18-.68,.24v7.85s-.14,.12-.36,.23c-.22,.1-.49,.2-.79,.28-.3,.08-.59,.12-.86,.12h-.38v-9.62h-.26Z" fill="#534741"/>
              <path d="M323.01,374.38l1.13-1.2,2.09,1.8c-.13,.21-.42,.33-.89,.36-.18,1.2-.42,2.37-.74,3.52-.32,1.14-.76,2.23-1.32,3.26-.56,1.03-1.28,1.98-2.17,2.84-.89,.86-1.99,1.62-3.3,2.28l-.22-.31c1.34-.99,2.4-2.15,3.18-3.47,.78-1.32,1.35-2.76,1.73-4.31s.63-3.14,.76-4.78h-.24Zm.38-7.03v.7h-5.38l-.22-.7h5.59Zm1.03,.82c-.18,.4-.4,.9-.68,1.49s-.58,1.22-.91,1.88-.64,1.31-.95,1.93c-.3,.62-.58,1.15-.82,1.58h.17l-.79,.74-1.97-1.37c.14-.11,.35-.23,.61-.36,.26-.13,.51-.21,.73-.24l-.82,.7c.26-.42,.54-.94,.86-1.57s.64-1.3,.97-1.99,.63-1.36,.91-2,.5-1.18,.66-1.61l2.02,.82Zm-5.5,8.38c.61,1.73,1.35,3.11,2.22,4.15s1.92,1.83,3.16,2.38c1.23,.54,2.68,.91,4.33,1.1,1.66,.19,3.56,.29,5.72,.29h2.81c.56,0,1.1,0,1.62-.01,.52,0,.97-.01,1.36-.01v.29c-.46,.1-.81,.32-1.04,.67-.23,.35-.36,.76-.4,1.22h-4.51c-2.24,0-4.2-.13-5.89-.38-1.69-.26-3.14-.74-4.37-1.44-1.22-.7-2.27-1.7-3.13-3-.86-1.3-1.59-2.99-2.18-5.09l.31-.17Zm5.4-2.16v.7h-4.58l.36-.7h4.22Zm-2.21-7.03l1.08-1.08,2.16,1.94c-.13,.13-.34,.22-.62,.29-.29,.06-.61,.09-.97,.08-.36,0-.72-.03-1.07-.06l-.26-1.18h-.31Zm16.49,1.75c.45,.43,.82,.8,1.12,1.09,.3,.3,.56,.58,.78,.85-.06,.26-.27,.38-.62,.38h-15.41l-.19-.7h13.25l1.08-1.63Zm-1.37,9.46c.34,.26,.63,.49,.89,.7s.53,.43,.82,.66c.29,.23,.55,.45,.79,.66-.03,.13-.11,.22-.23,.29-.12,.06-.27,.1-.44,.1h-14.21l-.19-.7h11.23l1.34-1.7Zm-.94-3.1c.3,.24,.57,.46,.8,.66,.23,.2,.48,.41,.73,.62,.25,.22,.49,.42,.7,.61-.06,.26-.28,.38-.65,.38h-11.83l-.19-.7h9.24l1.2-1.58Zm-.24-7.85v.7h-9.86l-.22-.7h10.08Zm-.05,6.29v.7h-9.67l-.22-.7h9.89Zm-2.76-8.59c-.03,.18-.11,.32-.23,.43s-.34,.19-.66,.24v17.35c0,.08-.08,.17-.25,.28-.17,.1-.39,.2-.66,.28-.27,.08-.55,.12-.84,.12h-.43v-19.01l3.07,.31Zm1.61,2.3l1.06-1.15,2.28,1.73c-.06,.08-.18,.17-.36,.25-.18,.09-.38,.16-.62,.2v6.14c0,.06-.1,.14-.3,.23-.2,.09-.44,.17-.71,.25-.27,.08-.53,.12-.77,.12h-.34v-7.78h-.24Z" fill="#534741"/>
              <path d="M352.63,367.87c.48,.38,.88,.71,1.2,.98,.32,.27,.61,.54,.86,.79-.05,.26-.26,.38-.62,.38h-9.53l-.19-.7h7.13l1.15-1.46Zm-1.06,3.31c.45,.35,.82,.66,1.13,.92,.3,.26,.58,.52,.84,.76-.06,.26-.28,.38-.65,.38h-7.49l-.19-.7h5.3l1.06-1.37Zm0,3.22c.45,.35,.82,.66,1.13,.91,.3,.26,.58,.5,.84,.74-.06,.26-.28,.38-.65,.38h-7.49l-.19-.7h5.3l1.06-1.34Zm-4.01,12.05c0,.06-.08,.15-.25,.25-.17,.1-.38,.2-.64,.29s-.54,.13-.84,.13h-.29v-9.1l2.14,.91h3.86v.7h-3.98v6.82Zm4.01-2.23v.7h-4.87v-.7h4.87Zm-4.63-18.98c.93,.13,1.66,.33,2.21,.61,.54,.28,.93,.59,1.15,.94,.22,.34,.33,.68,.31,1-.02,.32-.12,.59-.32,.82-.2,.22-.46,.35-.78,.38-.32,.03-.66-.07-1.03-.31-.08-.56-.3-1.15-.66-1.76-.36-.62-.72-1.12-1.09-1.52l.22-.14Zm3.65,13.7l1.01-1.1,2.21,1.68c-.16,.19-.48,.34-.96,.43v5.69s-.09,.12-.28,.22c-.18,.1-.41,.19-.67,.28-.26,.09-.52,.13-.76,.13h-.34v-7.32h-.22Zm11.09-2.93l1.32-1.25,2.16,1.97c-.1,.11-.22,.19-.36,.24-.14,.05-.36,.08-.65,.1-.67,1.63-1.57,3.11-2.69,4.43-1.12,1.32-2.51,2.46-4.18,3.43-1.67,.97-3.64,1.73-5.93,2.29l-.19-.34c2.86-1.07,5.2-2.54,7-4.4,1.8-1.86,3.06-4.02,3.78-6.47h-.26Zm-6.29-9.62v-.7l2.45,.94h-.38v1.92c0,.51-.04,1.08-.13,1.7s-.28,1.26-.56,1.91c-.29,.65-.72,1.27-1.31,1.87-.58,.6-1.36,1.14-2.34,1.62l-.22-.29c.74-.7,1.28-1.44,1.63-2.22,.35-.78,.58-1.56,.7-2.34,.11-.78,.17-1.54,.17-2.26v-2.16Zm7.66,9.62v.7h-9.05l-.22-.7h9.26Zm-7.51,.07c.4,1.28,.94,2.4,1.63,3.37,.69,.97,1.5,1.8,2.45,2.5s2,1.28,3.16,1.74,2.4,.84,3.73,1.13l-.02,.26c-.48,.1-.88,.31-1.2,.64s-.57,.76-.74,1.28c-1.66-.59-3.12-1.34-4.37-2.26s-2.28-2.05-3.11-3.42-1.45-3.04-1.88-5.03l.36-.22Zm6.14-9.46v.7h-5.04v-.7h5.04Zm-1.34,0l1.08-1.15,2.09,1.73c-.16,.16-.46,.27-.89,.34v4.42c0,.13,.02,.22,.07,.28,.05,.06,.16,.08,.34,.08h1.19c.14,0,.24,0,.3-.02h.43c.08-.02,.16-.03,.25-.05s.16-.03,.23-.05h.24l.1,.02c.27,.11,.46,.23,.58,.35,.11,.12,.17,.28,.17,.47,0,.42-.21,.73-.64,.94-.42,.21-1.2,.31-2.34,.31h-1.18c-.53,0-.92-.06-1.18-.17s-.42-.3-.5-.56c-.08-.26-.12-.6-.12-1.02v-5.9h-.22Z" fill="#534741"/>
              <path d="M375.26,371.21c-.34,2-.88,3.88-1.63,5.63s-1.73,3.35-2.93,4.79l-.34-.29c.51-.99,.95-2.06,1.32-3.22,.37-1.15,.67-2.35,.91-3.59,.24-1.24,.43-2.48,.58-3.71h2.09v.38Zm1.18-1.87c.42,.38,.77,.72,1.07,1,.3,.28,.56,.55,.78,.8-.06,.26-.27,.38-.62,.38h-6.82l-.19-.7h4.73l1.06-1.49Zm-.1-4.13c-.02,.18-.09,.32-.22,.43-.13,.11-.34,.19-.65,.24v20.59c0,.1-.09,.2-.26,.32s-.38,.23-.62,.32-.5,.14-.77,.14h-.41v-22.34l2.93,.29Zm-1.08,7.78c.86,.45,1.51,.92,1.93,1.4,.42,.49,.69,.94,.79,1.36,.1,.42,.09,.76-.05,1.04-.14,.28-.34,.45-.6,.5-.26,.06-.54-.04-.83-.3-.03-.42-.13-.86-.29-1.33s-.35-.93-.58-1.37c-.22-.44-.45-.83-.67-1.16l.29-.14Zm7.15,4.78c-.05,.82-.15,1.64-.3,2.47-.15,.83-.41,1.66-.77,2.47-.36,.82-.88,1.59-1.57,2.33-.69,.74-1.59,1.42-2.71,2.04l-.31-.34c.78-.7,1.4-1.43,1.85-2.18,.45-.75,.78-1.52,1-2.29,.22-.78,.36-1.54,.42-2.3,.06-.76,.1-1.49,.12-2.2h2.28Zm8.66-1.34c.45,.34,.82,.63,1.13,.89,.3,.26,.58,.5,.82,.72-.05,.26-.26,.38-.62,.38h-14.5l-.19-.7h12.31l1.06-1.3Zm-7.8-9.91c-.06,.14-.21,.26-.43,.34-.22,.08-.54,.05-.94-.1l.7-.14c-.27,.42-.62,.88-1.06,1.38-.43,.5-.88,1-1.36,1.48-.47,.48-.92,.89-1.36,1.22l-.02-.26h1.01c-.03,.51-.12,.93-.28,1.26-.15,.33-.33,.54-.54,.64l-1.1-2.18c.29-.08,.47-.14,.55-.19,.3-.3,.61-.74,.92-1.3,.31-.56,.6-1.14,.85-1.75,.25-.61,.44-1.11,.55-1.51l2.5,1.13Zm1.18,3.29c-.06,.13-.21,.23-.44,.3-.23,.07-.54,.03-.92-.13l.7-.14c-.34,.51-.77,1.1-1.3,1.75-.53,.66-1.1,1.3-1.72,1.94-.62,.64-1.21,1.18-1.79,1.63l-.02-.29h.94c-.05,.5-.14,.89-.29,1.19-.14,.3-.3,.48-.48,.56l-1.06-2.02c.3-.1,.5-.17,.58-.22,.34-.3,.68-.7,1.03-1.19,.35-.49,.69-1.02,1.02-1.58,.33-.57,.62-1.12,.89-1.66s.47-1,.61-1.4l2.26,1.25Zm-5.95,.46c.35,0,.88-.02,1.6-.06s1.43-.09,2.15-.16l.02,.38c-.16,.08-.42,.2-.77,.37s-.74,.35-1.15,.55c-.42,.2-.83,.39-1.25,.56l-.6-1.66Zm.12,4.34c.43-.03,1.07-.08,1.92-.16,.85-.07,1.72-.16,2.62-.25l.05,.36c-.24,.11-.57,.26-1,.46s-.9,.4-1.43,.62c-.53,.22-1.06,.44-1.58,.65l-.58-1.68Zm2.62,5.57c.86,.11,1.55,.3,2.06,.55s.88,.54,1.1,.84c.22,.3,.34,.6,.34,.89s-.08,.53-.25,.73c-.17,.2-.39,.32-.66,.35-.27,.03-.56-.06-.86-.26-.06-.35-.2-.71-.41-1.07-.21-.36-.44-.7-.71-1.03-.26-.33-.54-.6-.83-.8l.22-.19Zm10.7,.1c-.06,.13-.17,.21-.31,.25-.14,.04-.35,.03-.62-.04-1.1,1.81-2.46,3.24-4.08,4.3-1.62,1.06-3.35,1.81-5.21,2.26l-.17-.36c1.6-.72,3.11-1.72,4.52-3s2.57-2.88,3.47-4.8l2.4,1.39Zm-9.79-7.75c.69,.43,1.18,.87,1.49,1.31,.3,.44,.47,.85,.49,1.22,.02,.38-.04,.68-.19,.9-.15,.22-.35,.34-.6,.36-.25,.02-.49-.1-.73-.36,.02-.54-.06-1.12-.22-1.74s-.34-1.14-.55-1.57l.31-.12Zm4.87-7.06c-.02,.16-.09,.3-.22,.42s-.34,.2-.65,.25c-.05,2.3-.04,4.46,.01,6.47s.22,3.82,.49,5.44c.27,1.62,.72,2.98,1.33,4.09,.62,1.11,1.46,1.93,2.53,2.46,.21,.11,.36,.16,.44,.13s.19-.14,.3-.35c.14-.32,.32-.75,.52-1.3s.37-1.08,.52-1.61l.29,.05-.31,3.62c.37,.42,.59,.74,.66,.96,.07,.22,.06,.43-.04,.62-.18,.32-.44,.5-.78,.54-.34,.04-.72,0-1.14-.14-.42-.14-.82-.3-1.2-.49-1.34-.67-2.4-1.66-3.18-2.98-.78-1.31-1.34-2.9-1.69-4.75-.35-1.86-.58-3.94-.67-6.26-.1-2.32-.14-4.82-.14-7.51l2.93,.34Zm4.13,1.1c-.06,.13-.2,.24-.42,.32-.22,.09-.52,.06-.92-.08l.7-.14c-.26,.4-.58,.85-.96,1.36s-.79,.99-1.22,1.45c-.43,.46-.84,.86-1.22,1.2l-.02-.29h.96c-.03,.5-.12,.9-.28,1.21-.15,.31-.33,.52-.54,.61l-1.01-2.11c.27-.08,.44-.14,.5-.19,.26-.29,.51-.71,.76-1.26s.47-1.12,.67-1.72,.34-1.09,.42-1.49l2.59,1.13Zm1.37,3.12c-.06,.13-.21,.22-.44,.28-.23,.06-.53-.01-.9-.2l.7-.12c-.3,.46-.71,1-1.21,1.61-.5,.61-1.03,1.2-1.58,1.78s-1.09,1.06-1.62,1.46l-.05-.29h.96c-.05,.51-.15,.92-.3,1.22-.15,.3-.32,.5-.52,.58l-1.01-2.06c.29-.08,.47-.14,.55-.19,.29-.29,.59-.66,.91-1.12s.62-.95,.9-1.48c.28-.53,.54-1.04,.77-1.55,.23-.5,.41-.94,.54-1.31l2.3,1.39Zm-5.76,.38c.37-.02,.9-.04,1.58-.07,.69-.03,1.38-.08,2.09-.14l.05,.36c-.16,.1-.41,.23-.76,.4s-.72,.35-1.13,.54c-.41,.19-.81,.38-1.21,.58l-.62-1.66Zm.19,3.86c.43-.03,1.08-.08,1.96-.14,.87-.06,1.76-.14,2.68-.24l.02,.38c-.24,.1-.58,.24-1.01,.43-.43,.19-.91,.39-1.44,.6s-1.05,.42-1.56,.62l-.65-1.66Zm1.18,1.32c.66,.14,1.14,.34,1.45,.58,.31,.24,.49,.49,.54,.74,.05,.26,.01,.48-.11,.66-.12,.18-.3,.3-.53,.34-.23,.04-.48-.04-.73-.25-.02-.34-.11-.68-.29-1.04-.18-.36-.38-.64-.6-.85l.26-.17Zm2.35-3.07c.74,.38,1.27,.78,1.61,1.2s.53,.81,.58,1.19c.05,.38,0,.68-.17,.91-.16,.23-.37,.37-.62,.41s-.51-.08-.77-.35c.03-.53-.05-1.09-.25-1.69-.2-.6-.43-1.11-.68-1.52l.31-.14Z" fill="#534741"/>
              <path d="M399.88,370.85h2.23v.38c-.35,2.06-.94,3.98-1.78,5.74-.83,1.76-1.92,3.36-3.26,4.8l-.31-.31c.58-.98,1.07-2.04,1.48-3.2s.75-2.37,1.02-3.64c.27-1.26,.48-2.52,.62-3.77Zm-2.93,0h5.83l1.13-1.61c.48,.42,.88,.77,1.19,1.07,.31,.3,.6,.57,.85,.83-.06,.26-.27,.38-.62,.38h-8.18l-.19-.67Zm3.24-5.83l3.02,.31c-.03,.18-.11,.32-.23,.43-.12,.11-.34,.19-.66,.24v20.57c0,.06-.08,.16-.25,.28s-.38,.22-.64,.3c-.26,.08-.53,.12-.82,.12h-.43v-22.25Zm2.14,8.45c.83,.32,1.49,.67,1.97,1.04,.48,.38,.82,.75,1.02,1.12s.29,.71,.26,1.02c-.02,.31-.12,.56-.3,.74-.18,.18-.4,.28-.66,.29-.26,0-.54-.11-.83-.35-.05-.4-.17-.82-.36-1.27-.19-.45-.4-.89-.64-1.32-.23-.43-.47-.81-.71-1.13l.24-.14Zm1.37,8.35h13.42l.96-1.44c.4,.38,.73,.71,1,.98,.26,.27,.49,.53,.68,.77-.05,.26-.24,.38-.58,.38h-15.29l-.19-.7Zm.67-8.81h11.86l1.13-1.42c.46,.37,.86,.68,1.18,.95s.6,.52,.84,.76c-.05,.26-.26,.38-.62,.38h-14.18l-.19-.67Zm.53-5.4h10.94l1.13-1.42c.46,.37,.86,.68,1.18,.95,.32,.26,.61,.52,.86,.78-.06,.26-.27,.38-.62,.38h-13.3l-.19-.7Zm.84,2.62h9.86l1.03-1.3c.43,.35,.8,.65,1.09,.9s.56,.48,.78,.71c-.05,.26-.25,.38-.6,.38h-11.98l-.19-.7Zm.07,5.21v-.94l2.14,.94h7.92v.7h-8.04v10.42c0,.06-.08,.16-.25,.28s-.38,.22-.64,.3-.53,.12-.82,.12h-.31v-11.81Zm1.49,3.07h8.95v.7h-8.95v-.7Zm.62-13.37l2.76,.26c-.02,.14-.08,.27-.2,.38s-.3,.18-.54,.22v7.27h-2.02v-8.14Zm2.54,7.94h2.02v9.05h-2.02v-9.05Zm4.75,2.35h-.24l.96-1.15,2.3,1.73c-.08,.08-.2,.16-.37,.25-.17,.09-.36,.16-.59,.2v8.3c0,.46-.06,.87-.18,1.22-.12,.35-.38,.63-.78,.84-.4,.21-1.01,.34-1.82,.41-.02-.29-.06-.55-.12-.79-.06-.24-.17-.43-.31-.58-.14-.13-.35-.25-.61-.36-.26-.11-.64-.2-1.12-.26v-.36c.4,.03,.74,.06,1.03,.07,.29,.02,.56,.03,.82,.05,.26,.02,.44,.02,.55,.02,.19,0,.32-.04,.38-.12,.06-.08,.1-.2,.1-.36v-9.12Zm-2.54-10.3l2.78,.26c-.02,.16-.08,.29-.2,.4-.12,.1-.31,.18-.56,.23v7.25h-2.02v-8.14Z" fill="#534741"/>
            </g>
          </g>
        </g>
      </g>
    </g>
  </g>
</svg>