<?xml version="1.0" encoding="UTF-8"?>
<svg id="_圖層_2" data-name="圖層 2" xmlns="http://www.w3.org/2000/svg" viewBox="0 0 682.84 600.52">
  <g id="_圖層_3" data-name="圖層 3">
    <g>
      <g opacity="0">
        <g>
          <circle cx="343.15" cy="134.31" r="134.31" fill="#c7b299" opacity=".8"/>
          <circle cx="343.15" cy="134.31" r="124.61" fill="#c7b299"/>
        </g>
        <text transform="translate(289.87 143.87)" fill="#534741" font-family="NotoSerifTC-SemiBold, &apos;Noto Serif TC&apos;" font-size="24" font-variation-settings="&apos;wght&apos; 600" letter-spacing=".1em"><tspan x="0" y="0">寶台建設</tspan></text>
      </g>
      <g opacity="0">
        <g>
          <circle cx="134.31" cy="466.2" r="134.31" fill="#c7b299" opacity=".8"/>
          <circle cx="134.31" cy="466.2" r="124.61" fill="#c7b299"/>
        </g>
        <text transform="translate(83.03 473.16)" fill="#534741" font-family="NotoSerifTC-SemiBold, &apos;Noto Serif TC&apos;" font-size="24" font-variation-settings="&apos;wght&apos; 600" letter-spacing=".1em"><tspan x="0" y="0">寶中建設</tspan></text>
      </g>
      <g opacity="0">
        <g>
          <circle cx="548.52" cy="466.2" r="134.31" fill="#c7b299" opacity=".8"/>
          <circle cx="548.52" cy="466.2" r="124.61" fill="#c7b299"/>
        </g>
        <text transform="translate(496.24 475.76)" fill="#534741" font-family="NotoSerifTC-SemiBold, &apos;Noto Serif TC&apos;" font-size="24" font-variation-settings="&apos;wght&apos; 600" letter-spacing=".1em"><tspan x="0" y="0">寶合營造</tspan></text>
      </g>
      <g>
        <circle cx="341.94" cy="361.33" r="148.2" fill="none" stroke="#c7b299" stroke-dasharray="0 0 5.54 5.54" stroke-miterlimit="10" stroke-width=".7"/>
        <circle cx="341.94" cy="361.33" r="174.85" fill="none" stroke="#c7b299" stroke-dasharray="0 0 6.54 6.54" stroke-miterlimit="10" stroke-width=".82"/>
        <circle cx="341.94" cy="361.33" r="204.31" fill="none" stroke="#c7b299" stroke-dasharray="0 0 7.64 7.64" stroke-miterlimit="10" stroke-width=".96"/>
        <g opacity="0">
          <circle cx="341.94" cy="361.33" r="126.95" fill="#e5dbd1"/>
          <g>
            <g>
              <path d="M351.08,348.98l12.7-39.04s.1-.43-.09-.41c-.18,.02-.56,1.17-.56,1.17-.35,1.03-1.97,5.98-2.29,6.49-.17,.26-.62,.45-.72,.53-.1,.08-.19,0-.41,.67-.22,.68-4.94,14.28-4.94,14.28,0,0-.14,.32-.4,.54-.26,.22-.32-.18-.86,1.56-.55,1.75-4.37,13.63-4.37,13.63,0,0-.42,.52,.11,.56,.52,.04,1.85,.01,1.85,.01" fill="#534741" fill-rule="evenodd"/>
              <path d="M348.14,348.98l12.71-39.04s.09-.43-.09-.41c-.18,.02-.56,1.17-.56,1.17-.35,1.03-1.97,5.98-2.3,6.49-.17,.26-.62,.45-.72,.53-.1,.08-.18,0-.4,.67-.23,.68-4.95,14.28-4.95,14.28,0,0-.14,.32-.4,.54-.26,.22-.32-.18-.86,1.56-.55,1.75-4.36,13.63-4.36,13.63,0,0-.42,.52,.1,.56,.52,.04,1.85,.01,1.85,.01" fill="#534741" fill-rule="evenodd"/>
              <path d="M345.03,348.98l12.7-39.04s.09-.43-.09-.41c-.19,.02-.56,1.17-.56,1.17-.35,1.03-1.97,5.98-2.3,6.49-.17,.26-.62,.45-.72,.53-.1,.08-.19,0-.41,.67-.23,.68-4.95,14.28-4.95,14.28,0,0-.14,.32-.4,.54-.26,.22-.32-.18-.87,1.56-.55,1.75-4.36,13.63-4.36,13.63,0,0-.42,.52,.1,.56,.52,.04,1.85,.01,1.85,.01" fill="#534741" fill-rule="evenodd"/>
              <path d="M341.96,348.96l12.7-39.03s.1-.43-.09-.41c-.18,.02-.56,1.17-.56,1.17-.35,1.03-1.98,5.98-2.3,6.49-.16,.26-.62,.45-.72,.53-.1,.08-.19,0-.41,.68-.23,.68-4.95,14.27-4.95,14.27,0,0-.14,.32-.41,.54-.26,.22-.32-.19-.87,1.56-.54,1.75-4.36,13.63-4.36,13.63,0,0-.42,.52,.1,.56,.52,.04,1.84,.01,1.84,.01" fill="#534741" fill-rule="evenodd"/>
              <path d="M320.1,310.07l12.52,38.48c.05,.18,.24,.37,.51,.41,.18,.02,2.52,.01,4.22,0,.61,.02,1.6,0,1.6,0l12.7-39.03s.09-.43-.09-.41c-.17,.02-.55,1.17-.55,1.17-.35,1.03-1.98,5.98-2.3,6.49-.16,.26-.62,.45-.72,.53-.1,.08-.34,.11-.53,.69-.19,.57-3.11,9.74-4.51,13.79-.07,.17-.09,.23-.11,.27-.03,.04-.38,.48-.55-.04-1.14-3.38-3.06-9.39-4.43-13.54-.96-2.9-3.17-6.66-8.89-8.22-6.33-1.73-8.76-1.08-8.76-1.08,0,0-.22,.19-.1,.49" fill="#534741" fill-rule="evenodd"/>
            </g>
            <text transform="translate(264.19 385.25)" fill="#534741" font-family="NotoSerifTC-SemiBold, &apos;Noto Serif TC&apos;" font-size="24" font-variation-settings="&apos;wght&apos; 600" letter-spacing=".1em"><tspan x="0" y="0">寶台建設機構</tspan></text>
          </g>
        </g>
      </g>
    </g>
  </g>
</svg>