<?xml version="1.0" encoding="UTF-8"?>
<svg id="_圖層_2" data-name="圖層 2" xmlns="http://www.w3.org/2000/svg" viewBox="0 0 18.38 21">
  <g id="_圖層_1-2" data-name="圖層 1">
    <g id="Icons">
      <g id="Color-">
        <path id="Android" d="M11.69,4.2c-.35,0-.63-.27-.63-.61s.28-.61,.63-.61,.63,.27,.63,.61-.28,.61-.63,.61h0Zm-5.01,0c-.35,0-.63-.27-.63-.61s.28-.61,.63-.61,.63,.27,.63,.61-.28,.61-.63,.61h0ZM12.06,1.76l.23-.34,.23-.34,.52-.76c.06-.09,.04-.22-.06-.28-.1-.06-.23-.04-.29,.06l-.79,1.16-.24,.35c-.75-.29-1.6-.44-2.48-.44s-1.73,.16-2.48,.44l-.24-.35-.23-.34L5.67,.09c-.06-.09-.19-.12-.29-.06-.1,.06-.12,.19-.06,.28l.52,.76,.23,.34,.23,.34c-1.77,.8-2.97,2.33-2.97,4.07H15.03c0-1.74-1.2-3.26-2.97-4.07ZM3.43,6.64h-.09V15.58c0,.71,.59,1.29,1.32,1.29h.95c-.03,.11-.05,.22-.05,.34v2.57c0,.67,.56,1.22,1.25,1.22s1.25-.55,1.25-1.22v-2.57c0-.12-.02-.23-.05-.34h2.33c-.03,.11-.05,.22-.05,.34v2.57c0,.67,.56,1.22,1.25,1.22s1.25-.55,1.25-1.22v-2.57c0-.12-.02-.23-.05-.34h.96c.73,0,1.32-.58,1.32-1.29V6.64H3.43Zm-2.18,0c-.69,0-1.25,.55-1.25,1.22v5.22c0,.67,.56,1.22,1.25,1.22s1.25-.55,1.25-1.22V7.86c0-.67-.56-1.22-1.25-1.22Zm15.87,0c-.69,0-1.25,.55-1.25,1.22v5.22c0,.67,.56,1.22,1.25,1.22s1.25-.55,1.25-1.22V7.86c0-.67-.56-1.22-1.25-1.22Z" fill="#fff" fill-rule="evenodd"/>
      </g>
    </g>
  </g>
</svg>