<?xml version="1.0" encoding="UTF-8"?>
<svg id="_圖層_2" data-name="圖層 2" xmlns="http://www.w3.org/2000/svg" viewBox="0 0 36.25 36.25">
  <g id="_圖層_1-2" data-name="圖層 1">
    <g>
      <path d="M22.43,19.31l.51-3.35h-3.21v-2.17c0-.92,.45-1.81,1.89-1.81h1.46v-2.85s-1.32-.23-2.59-.23c-2.64,0-4.37,1.6-4.37,4.5v2.55h-2.94v3.35h2.94v8.09h3.62v-8.09h2.7Z" fill="#c7b299"/>
      <path d="M18.12,36.25C8.13,36.25,0,28.12,0,18.12S8.13,0,18.12,0s18.12,8.13,18.12,18.12-8.13,18.12-18.12,18.12ZM18.12,1.25C8.82,1.25,1.25,8.82,1.25,18.12s7.57,16.88,16.88,16.88,16.88-7.57,16.88-16.88S27.43,1.25,18.12,1.25Z" fill="#c7b299"/>
    </g>
  </g>
</svg>