<?xml version="1.0" encoding="UTF-8"?>
<svg id="_圖層_2" data-name="圖層 2" xmlns="http://www.w3.org/2000/svg" viewBox="0 0 36.25 36.25">
  <g id="_圖層_1-2" data-name="圖層 1">
    <g>
      <g>
        <path d="M23.02,12.18c-.6,0-1.08,.49-1.08,1.08s.49,1.08,1.08,1.08,1.08-.49,1.08-1.08-.49-1.08-1.08-1.08Z" fill="#c7b299"/>
        <path d="M18.2,13.57c-2.51,0-4.55,2.04-4.55,4.55s2.04,4.55,4.55,4.55,4.55-2.04,4.55-4.55-2.04-4.55-4.55-4.55Zm0,7.47c-1.61,0-2.92-1.31-2.92-2.92s1.31-2.92,2.92-2.92,2.92,1.31,2.92,2.92-1.31,2.92-2.92,2.92Z" fill="#c7b299"/>
        <path d="M21.82,27.37h-7.38c-3.06,0-5.55-2.49-5.55-5.55v-7.38c0-3.06,2.49-5.55,5.55-5.55h7.38c3.06,0,5.55,2.49,5.55,5.55v7.38c0,3.06-2.49,5.55-5.55,5.55ZM14.43,10.62c-2.1,0-3.81,1.71-3.81,3.81v7.38c0,2.1,1.71,3.81,3.81,3.81h7.38c2.1,0,3.81-1.71,3.81-3.81v-7.38c0-2.1-1.71-3.81-3.81-3.81h-7.38Z" fill="#c7b299"/>
      </g>
      <path d="M18.12,36.25C8.13,36.25,0,28.12,0,18.12S8.13,0,18.12,0s18.12,8.13,18.12,18.12-8.13,18.12-18.12,18.12ZM18.12,1.25C8.82,1.25,1.25,8.82,1.25,18.12s7.57,16.88,16.88,16.88,16.88-7.57,16.88-16.88S27.43,1.25,18.12,1.25Z" fill="#c7b299"/>
    </g>
  </g>
</svg>