<?xml version="1.0" encoding="UTF-8"?>
<svg id="_圖層_2" data-name="圖層 2" xmlns="http://www.w3.org/2000/svg" viewBox="0 0 16.12 19.8">
  <g id="_圖層_1-2" data-name="圖層 1">
    <path d="M13.46,10.52c.03,3,2.63,3.99,2.66,4.01-.02,.07-.42,1.42-1.37,2.82-.83,1.21-1.68,2.41-3.03,2.43-1.33,.02-1.75-.79-3.27-.79s-1.99,.76-3.24,.81c-1.3,.05-2.29-1.3-3.13-2.51C.38,14.83-.92,10.34,.83,7.32c.87-1.5,2.42-2.46,4.1-2.48,1.28-.02,2.49,.86,3.27,.86s2.25-1.06,3.79-.91c.65,.03,2.46,.26,3.62,1.96-.09,.06-2.16,1.26-2.14,3.77m-2.49-7.36c.69-.84,1.16-2,1.03-3.16-1,.04-2.2,.66-2.92,1.5-.64,.74-1.2,1.93-1.05,3.06,1.11,.09,2.25-.56,2.94-1.4" fill="#fff"/>
  </g>
</svg>