<?xml version="1.0" encoding="UTF-8"?>
<svg id="_圖層_2" data-name="圖層 2" xmlns="http://www.w3.org/2000/svg" viewBox="0 0 36.25 36.25">
  <g id="_圖層_1-2" data-name="圖層 1">
    <g>
      <path d="M24.08,16.4c.28,0,.51,.23,.51,.51s-.23,.51-.51,.51h-1.42v.91h1.42c.28,0,.51,.23,.51,.51s-.23,.51-.51,.51h-1.93c-.28,0-.51-.23-.51-.51v-3.86c0-.28,.23-.51,.51-.51h1.93c.28,0,.51,.23,.51,.51s-.23,.51-.51,.51h-1.42v.91h1.42Zm-3.12,2.44c0,.22-.14,.41-.35,.48-.05,.02-.11,.03-.16,.03-.17,0-.32-.07-.41-.2l-1.98-2.68v2.38c0,.28-.23,.51-.51,.51s-.51-.23-.51-.51v-3.86c0-.22,.14-.41,.35-.48,.05-.02,.11-.03,.16-.03,.16,0,.3,.08,.4,.21l1.99,2.69v-2.39c0-.28,.23-.51,.51-.51s.51,.23,.51,.51v3.86Zm-4.64,0c0,.28-.23,.51-.51,.51s-.51-.23-.51-.51v-3.86c0-.28,.23-.51,.51-.51s.51,.23,.51,.51v3.86Zm-1.99,.51h-1.93c-.28,0-.51-.23-.51-.51v-3.86c0-.28,.23-.51,.51-.51s.51,.23,.51,.51v3.35h1.42c.28,0,.51,.23,.51,.51s-.23,.51-.51,.51m13.51-2.58c0-4.35-4.36-7.88-9.71-7.88s-9.71,3.54-9.71,7.88c0,3.89,3.45,7.15,8.12,7.77,.32,.07,.75,.21,.86,.48,.1,.24,.06,.62,.03,.87l-.13,.83c-.04,.24-.19,.96,.85,.52,1.04-.44,5.59-3.3,7.63-5.64,1.39-1.53,2.06-3.09,2.06-4.83" fill="#c7b299"/>
      <path d="M18.12,36.25C8.13,36.25,0,28.12,0,18.12S8.13,0,18.12,0s18.12,8.13,18.12,18.12-8.13,18.12-18.12,18.12ZM18.12,1.25C8.82,1.25,1.25,8.82,1.25,18.12s7.57,16.88,16.88,16.88,16.88-7.57,16.88-16.88S27.43,1.25,18.12,1.25Z" fill="#c7b299"/>
    </g>
  </g>
</svg>