<?xml version="1.0" encoding="UTF-8"?>
<svg id="_圖層_2" data-name="圖層 2" xmlns="http://www.w3.org/2000/svg" viewBox="0 0 36.25 36.25">
  <defs>
    <style>
      .cls-1 {
        fill: none;
        stroke: #c7b299;
        stroke-miterlimit: 10;
        stroke-width: 1.25px;
      }

      .cls-2 {
        fill: #c7b299;
      }
    </style>
  </defs>
  <g id="_圖層_1-2" data-name="圖層 1">
    <g>
      <g>
        <path class="cls-2" d="M26.3,13.32v.5c-.08.24-.1.49-.19.73-.18.5-.47.93-.84,1.3-1.36,1.35-2.71,2.71-4.07,4.06-.74.74-1.64,1.1-2.69,1.02-.82-.06-1.53-.39-2.11-.98-.26-.26-.25-.67,0-.93.25-.26.64-.28.92-.04.28.24.57.46.94.55.74.18,1.41.01,1.95-.52,1.39-1.38,2.78-2.76,4.16-4.15,1.09-1.1.64-2.9-.83-3.34-.78-.23-1.47-.03-2.04.54-.73.73-1.46,1.46-2.19,2.19-.26.26-.57.31-.85.15-.36-.21-.45-.67-.2-1,.02-.02.04-.05.06-.07.83-.82,1.62-1.68,2.48-2.45.72-.64,1.6-.89,2.56-.76,1.26.17,2.14.85,2.67,1.99.13.28.21.59.25.9"/>
        <path class="cls-2" d="M13.24,26.16h-.09c-.34-.02-.66-.11-.96-.25-.66-.29-1.18-.75-1.55-1.37-.25-.41-.41-.85-.44-1.34v-.09c.03-.06.03-.13,0-.19,0-.17,0-.33,0-.5.05-.2.09-.4.15-.6.17-.56.47-1.03.88-1.44,1.23-1.23,2.46-2.46,3.69-3.68.74-.74,1.64-1.1,2.69-1.02.82.06,1.53.39,2.11.98.26.26.25.66.01.92-.24.26-.64.3-.92.06-.28-.25-.58-.47-.95-.56-.74-.18-1.41-.01-1.95.52-1.27,1.25-2.53,2.51-3.78,3.77-1.08,1.1-.64,2.9.83,3.34.78.23,1.47.03,2.04-.54.61-.6,1.22-1.21,1.82-1.82.25-.25.55-.3.83-.15.37.2.47.67.21,1.01-.02.03-.05.06-.07.08-.67.67-1.34,1.34-2.02,2-.5.48-1.12.74-1.81.82"/>
      </g>
      <circle class="cls-1" cx="18.12" cy="18.12" r="17.5"/>
    </g>
  </g>
</svg>