<?xml version="1.0" encoding="UTF-8"?>
<svg id="_圖層_2" data-name="圖層 2" xmlns="http://www.w3.org/2000/svg" viewBox="0 0 36.25 36.25">
  <defs>
    <style>
      .cls-1 {
        fill: none;
        stroke: #c7b299;
        stroke-miterlimit: 10;
        stroke-width: 1.25px;
      }

      .cls-2 {
        fill: #c7b299;
      }
    </style>
  </defs>
  <g id="_圖層_1-2" data-name="圖層 1">
    <g>
      <path class="cls-2" d="M27.81,12.25c-.1-.81-.8-1.42-1.71-1.41-5.32,0-10.65,0-15.97,0-1.02,0-1.72.69-1.72,1.71,0,3.72,0,7.43,0,11.15,0,.17.01.34.06.51.22.76.82,1.2,1.64,1.2,1.86,0,3.72,0,5.58,0,3.47,0,6.94,0,10.41,0,.44,0,.83-.11,1.17-.4.32-.28.48-.64.56-1.04v-11.68s-.02-.02-.02-.03ZM26.4,11.67c-.14.13-.25.23-.35.33-2.42,2.21-4.85,4.42-7.27,6.63-.45.41-.85.41-1.29,0-2.5-2.28-5-4.56-7.5-6.84-.03-.03-.06-.06-.14-.13h16.55ZM9.25,23.97v-11.75c.1.09.15.14.21.19,2.03,1.86,4.07,3.72,6.11,5.57.11.1.11.14,0,.24-2.11,1.83-4.14,3.75-6.17,5.67-.03.03-.06.08-.14.09ZM26.37,24.58H9.84c.97-.91,1.89-1.78,2.82-2.65,1.15-1.07,2.32-2.13,3.5-3.17.11-.09.17-.1.27,0,.27.26.53.53.85.73.65.41,1.39.32,2.02-.23.19-.16.37-.32.55-.5.1-.1.15-.09.26,0,1.05.93,2.1,1.86,3.12,2.82,1.03.96,2.05,1.92,3.07,2.88.03.03.07.05.11.07,0,.02-.02.04-.03.05ZM27.01,23.96c-.08,0-.11-.04-.14-.08-2.03-1.92-4.06-3.84-6.17-5.67-.1-.08-.13-.13-.01-.24,2.05-1.86,4.09-3.73,6.13-5.59.05-.04.09-.08.19-.16v11.74Z"/>
      <circle class="cls-1" cx="18.12" cy="18.12" r="17.5"/>
    </g>
  </g>
</svg>